{
copyright = "~";
customParameters = (
{
name = glyphOrder;
value = (
    bnA,
    bnAA,
    bnI,
    bnII,
    bnU,
    bnUU,
    bnvR,
    bnvRR,
    bnvL,
    bnvLL,
    bnE,
    bnAI,
    bnO,
    bnAU,
    bnmAA,
    bnmI,
    bnmII,
    bnmU,
    bnmUU,
    bnmvR,
    bnmvRR,
    bnmvL,
    bnmvLL,
    bnmE,
    bnmAI,
    bnmO,
    bnmAU,
    bnAUlengthmark,
    bnKA,
    bnKHA,
    bnGA,
    bnGHA,
    bnNGA,
    bnCA,
    bnCHA,
    bnJA,
    bnJHA,
    bnNYA,
    bnTTA,
    bnTTHA,
    bnDDA,
    bnDDHA,
    bnNNA,
    bnTA,
    bnTHA,
    bnDA,
    bnDHA,
    bnNA,
    bnPA,
    bnPHA,
    bnBA,
    bnBHA,
    bnMA,
    bnYA,
    bnRA,
    bnLA,
    bnSHA,
    bnSSA,
    bnSA,
    bnHA,
    "bnK_SSA",
    "bnJ_NYA",
    asRA,
    asWA,
    bnDDxA,
    bnDDHxA,
    bnYxA,
    bnAnusvara,
    bnCandrabindu,
    bnVisarga,
    bnAvagraha,
    bnVirama,
    bnNukta,
    bnTAkhanda,
    bnZero,
    bnOne,
    bnTwo,
    bnThree,
    bnFour,
    bnFive,
    bnSix,
    bnSeven,
    bnEight,
    bnNine,
    bnAnji,
    bnTaka,
    bnBangladeshitaka,
    bnNumeratorone,
    bnNumeratortwo,
    bnNumeratorthree,
    bnNumeratorfour,
    bnNumeratoroneless,
    bnDenominatorsixteen,
    bnIsshar,
    bnGanda,
    danda,
    doubledanda,
    rupee,
    indianrupee,
    uni200C,
    uni200D,
    uni25CC,
    ITF,
    bnNull,
    bnReph,
    bnRAc2,
    bnYAc2,
    bnBAc2,
    bnK,
    bnKH,
    bnG,
    bnGH,
    bnNG,
    bnC,
    bnCH,
    bnJ,
    bnJH,
    bnNY,
    bnTT,
    bnTTH,
    bnDD,
    bnDDH,
    bnNN,
    bnT,
    bnTH,
    bnD,
    bnDH,
    bnN,
    bnP,
    bnPH,
    bnB,
    bnBH,
    bnM,
    bnY,
    bnR,
    bnL,
    bnSH,
    bnSS,
    bnS,
    bnH,
    "bnK_SS",
    "bnJ_NY",
    asR,
    asW,
    bnDDx,
    bnDDHx,
    bnYx,
    "bnK_KA",
    "bnNG_KA",
    "bnL_KA",
    "bnSS_KA",
    "bnS_KA",
    "bnNG_KHA",
    "bnS_KHA",
    "bnG_GA",
    "bnNG_GA",
    "bnDD_GA",
    "bnD_GA",
    "bnDDx_GA",
    "bnL_GA",
    "bnNG_GHA",

glyphs = (
{
glyphname = bnA;
lastChange = "2015-07-03 10:49:30 +0000";
layers = (
{
background = {
paths = (
{
closed = 1;
nodes = (
"505 56 OFFCURVE",
"624 170 OFFCURVE",
"624 322 CURVE SMOOTH",
"624 435 OFFCURVE",
"546 519 OFFCURVE",
"422 519 CURVE SMOOTH",
"320 519 OFFCURVE",
"252 460 OFFCURVE",
"252 363 CURVE SMOOTH",
"252 336 OFFCURVE",
"258 307 OFFCURVE",
"268 286 CURVE",
"388 286 LINE",
"382 303 OFFCURVE",
"377 319 OFFCURVE",
"377 344 CURVE SMOOTH",
"377 381 OFFCURVE",
"395 407 OFFCURVE",
"428 407 CURVE SMOOTH",
"467 407 OFFCURVE",
"484 373 OFFCURVE",
"484 325 CURVE SMOOTH",
"484 249 OFFCURVE",
"441 176 OFFCURVE",
"340 176 CURVE SMOOTH",
"244 176 OFFCURVE",
"176 236 OFFCURVE",
"176 374 CURVE SMOOTH",
"176 401 OFFCURVE",
"178 431 OFFCURVE",
"183 464 CURVE",
"43 464 LINE",
"39 433 OFFCURVE",
"37 403 OFFCURVE",
"37 376 CURVE SMOOTH",
"37 152 OFFCURVE",
"174 56 OFFCURVE",
"344 56 CURVE SMOOTH"
);
},
{
closed = 1;
nodes = (
"732 78 LINE",
"732 182 OFFCURVE",
"692 239 OFFCURVE",
"598 239 CURVE SMOOTH",
"558 239 LINE",
"525 127 LINE",
"583 127 LINE SMOOTH",
"671 127 OFFCURVE",
"705 77 OFFCURVE",
"705 0 CURVE"
);
},
{
closed = 1;
nodes = (
"845 0 LINE",
"845 586 LINE",
"705 586 LINE",
"705 0 LINE"
);
},
{
closed = 1;
nodes = (
"930 559 LINE",
"930 671 LINE",
"-20 671 LINE",
"-20 559 LINE"
);
}
);
};
layerId = "731EBDE8-0F2D-4E32-814F-AAFC41A14D25";
name = Bold;
paths = (
{
closed = 1;
nodes = (
"505 56 OFFCURVE",
"624 166 OFFCURVE",
"624 318 CURVE SMOOTH",
"624 431 OFFCURVE",
"546 519 OFFCURVE",
"422 519 CURVE SMOOTH",
"320 519 OFFCURVE",
"252 460 OFFCURVE",
"252 363 CURVE SMOOTH",
"252 336 OFFCURVE",
"258 307 OFFCURVE",
"268 286 CURVE",
"388 286 LINE",
"382 303 OFFCURVE",
"377 319 OFFCURVE",
"377 344 CURVE SMOOTH",
"377 381 OFFCURVE",
"395 407 OFFCURVE",
"428 407 CURVE SMOOTH",
"467 407 OFFCURVE",
"484 369 OFFCURVE",
"484 321 CURVE SMOOTH",
"484 245 OFFCURVE",
"441 176 OFFCURVE",
"340 176 CURVE SMOOTH",
"244 176 OFFCURVE",
"171 236 OFFCURVE",
"171 374 CURVE SMOOTH",
"171 401 OFFCURVE",
"173 431 OFFCURVE",
"178 464 CURVE",
"43 464 LINE",
"39 433 OFFCURVE",
"37 403 OFFCURVE",
"37 376 CURVE SMOOTH",
"37 152 OFFCURVE",
"174 56 OFFCURVE",
"344 56 CURVE SMOOTH"
);
},
{
closed = 1;
nodes = (
"732 78 LINE",
"732 182 OFFCURVE",
"692 239 OFFCURVE",
"598 239 CURVE SMOOTH",
"558 239 LINE",
"525 127 LINE",
"583 127 LINE SMOOTH",
"671 127 OFFCURVE",
"705 77 OFFCURVE",
"705 0 CURVE"
);
},
{
closed = 1;
nodes = (
"845 0 LINE",
"845 586 LINE",
"705 586 LINE",
"705 0 LINE"
);
},
{
closed = 1;
nodes = (
"930 559 LINE",
"930 671 LINE",
"-20 671 LINE",
"-20 559 LINE"
);
}
);
width = 910;
},
{
background = {
paths = (
{
closed = 1;
nodes = (
"312 294 OFFCURVE",
"305 321 OFFCURVE",
"305 351 CURVE SMOOTH",
"305 430 OFFCURVE",
"348 504 OFFCURVE",
"448 504 CURVE SMOOTH",
"544 504 OFFCURVE",
"600 421 OFFCURVE",
"600 324 CURVE SMOOTH",
"600 200 OFFCURVE",
"532 76 OFFCURVE",
"351 76 CURVE SMOOTH",
"171 76 OFFCURVE",
"86 203 OFFCURVE",
"86 368 CURVE SMOOTH",
"86 402 OFFCURVE",
"91 445 OFFCURVE",
"96 476 CURVE",
"156 476 LINE",
"151 443 OFFCURVE",
"147 399 OFFCURVE",
"147 366 CURVE SMOOTH",
"147 218 OFFCURVE",
"221 131 OFFCURVE",
"351 131 CURVE SMOOTH",
"471 131 OFFCURVE",
"539 202 OFFCURVE",
"539 324 CURVE SMOOTH",
"539 392 OFFCURVE",
"510 449 OFFCURVE",
"448 449 CURVE SMOOTH",
"394 449 OFFCURVE",
"366 406 OFFCURVE",
"366 350 CURVE SMOOTH",
"366 315 OFFCURVE",
"371 294 OFFCURVE",
"377 271 CURVE",
"321 271 LINE"
);
},
{
closed = 1;
nodes = (
"526 222 LINE",
"613 222 LINE SMOOTH",
"707 222 OFFCURVE",
"745 164 OFFCURVE",
"745 78 CURVE",
"720 20 LINE",
"720 97 OFFCURVE",
"702 167 OFFCURVE",
"614 167 CURVE SMOOTH",
"526 167 LINE"
);
},
{
closed = 1;
nodes = (
"-20 579 LINE",
"-20 634 LINE",
"901 634 LINE",
"901 579 LINE"
);
},
{
closed = 1;
nodes = (
"781 0 LINE",
"720 0 LINE",
"720 596 LINE",
"781 596 LINE"
);
}
);
};
layerId = "D864283E-EAB4-426F-8533-332F2D658CBA";
name = Light;
paths = (
{
closed = 1;
nodes = (
"531 76 OFFCURVE",
"600 210 OFFCURVE",
"600 334 CURVE SMOOTH",
"600 431 OFFCURVE",
"546 514 OFFCURVE",
"448 514 CURVE SMOOTH",
"354 514 OFFCURVE",
"305 440 OFFCURVE",
"305 361 CURVE SMOOTH",
"305 327 OFFCURVE",
"311 301 OFFCURVE",
"318 281 CURVE",
"375 281 LINE",
"370 304 OFFCURVE",
"366 327 OFFCURVE",
"366 358 CURVE SMOOTH",
"366 414 OFFCURVE",
"394 459 OFFCURVE",
"448 459 CURVE SMOOTH",
"513 459 OFFCURVE",
"539 402 OFFCURVE",
"539 334 CURVE SMOOTH",
"539 212 OFFCURVE",
"470 131 OFFCURVE",
"350 131 CURVE SMOOTH",
"220 131 OFFCURVE",
"147 222 OFFCURVE",
"147 364 CURVE SMOOTH",
"147 399 OFFCURVE",
"150 443 OFFCURVE",
"154 476 CURVE",
"94 476 LINE",
"89 445 OFFCURVE",
"86 402 OFFCURVE",
"86 364 CURVE SMOOTH",
"86 209 OFFCURVE",
"170 76 OFFCURVE",
"350 76 CURVE SMOOTH"
);
},
{
closed = 1;
nodes = (
"745 78 LINE",
"745 164 OFFCURVE",
"707 222 OFFCURVE",
"613 222 CURVE SMOOTH",
"526 222 LINE",
"526 167 LINE",
"614 167 LINE SMOOTH",
"702 167 OFFCURVE",
"720 97 OFFCURVE",
"720 20 CURVE"
);
},
{
closed = 1;
nodes = (
"781 0 LINE",
"781 596 LINE",
"720 596 LINE",
"720 0 LINE"
);
},
{
closed = 1;
nodes = (
"901 579 LINE",
"901 634 LINE",
"-20 634 LINE",
"-20 579 LINE"
);
}
);
width = 881;
},
{
associatedMasterId = "731EBDE8-0F2D-4E32-814F-AAFC41A14D25";
background = {
paths = (
{
closed = 1;
nodes = (
"845 0 LINE",
"705 0 LINE",
"705 586 LINE",
"845 586 LINE"
);
},
{
closed = 1;
nodes = (
"-20 559 LINE",
"-20 671 LINE",
"950 671 LINE",
"950 559 LINE"
);
},
{
closed = 1;
nodes = (
"258 292 OFFCURVE",
"252 321 OFFCURVE",
"252 348 CURVE SMOOTH",
"252 445 OFFCURVE",
"320 504 OFFCURVE",
"422 504 CURVE SMOOTH",
"546 504 OFFCURVE",
"624 420 OFFCURVE",
"624 307 CURVE SMOOTH",
"624 155 OFFCURVE",
"505 51 OFFCURVE",
"344 51 CURVE SMOOTH",
"174 51 OFFCURVE",
"37 144 OFFCURVE",
"37 371 CURVE SMOOTH",
"37 398 OFFCURVE",
"39 428 OFFCURVE",
"43 459 CURVE",
"183 459 LINE",
"178 426 OFFCURVE",
"176 396 OFFCURVE",
"176 369 CURVE SMOOTH",
"176 221 OFFCURVE",
"248 171 OFFCURVE",
"344 171 CURVE SMOOTH",
"443 171 OFFCURVE",
"484 234 OFFCURVE",
"484 310 CURVE SMOOTH",
"484 358 OFFCURVE",
"467 392 OFFCURVE",
"428 392 CURVE SMOOTH",
"395 392 OFFCURVE",
"377 366 OFFCURVE",
"377 329 CURVE SMOOTH",
"377 304 OFFCURVE",
"382 288 OFFCURVE",
"388 271 CURVE",
"268 271 LINE"
);
},
{
closed = 1;
nodes = (
"558 239 LINE",
"598 239 LINE SMOOTH",
"692 239 OFFCURVE",
"732 182 OFFCURVE",
"732 78 CURVE",
"705 0 LINE",
"705 77 OFFCURVE",
"671 127 OFFCURVE",
"583 127 CURVE SMOOTH",
"525 127 LINE"
);
}
);
};
layerId = "BBD7246E-696A-4569-A44C-8DBCCECFA004";
name = "Bold Mar 12 15, 16:06";
paths = (
{
closed = 1;
nodes = (
"845 0 LINE",
"705 0 LINE",
"705 586 LINE",
"845 586 LINE"
);
},
{
closed = 1;
nodes = (
"-20 559 LINE",
"-20 671 LINE",
"950 671 LINE",
"950 559 LINE"
);
},
{
closed = 1;
nodes = (
"260 292 OFFCURVE",
"254 321 OFFCURVE",
"254 348 CURVE SMOOTH",
"254 445 OFFCURVE",
"323 504 OFFCURVE",
"425 504 CURVE SMOOTH",
"547 504 OFFCURVE",
"623 425 OFFCURVE",
"623 312 CURVE SMOOTH",
"623 150 OFFCURVE",
"506 51 OFFCURVE",
"348 51 CURVE SMOOTH",
"158 51 OFFCURVE",
"36 168 OFFCURVE",
"36 381 CURVE SMOOTH",
"36 407 OFFCURVE",
"39 435 OFFCURVE",
"41 449 CURVE",
"181 449 LINE",
"178 428 OFFCURVE",
"176 392 OFFCURVE",
"176 373 CURVE SMOOTH",
"176 246 OFFCURVE",
"235 171 OFFCURVE",
"348 171 CURVE SMOOTH",
"444 171 OFFCURVE",
"488 229 OFFCURVE",
"488 312 CURVE SMOOTH",
"488 360 OFFCURVE",
"469 392 OFFCURVE",
"430 392 CURVE SMOOTH",
"397 392 OFFCURVE",
"380 366 OFFCURVE",
"380 329 CURVE SMOOTH",
"380 304 OFFCURVE",
"385 288 OFFCURVE",
"391 271 CURVE",
"270 271 LINE"
);
},
{
closed = 1;
nodes = (
"563 240 LINE",
"803 67 LINE",
"704 0 LINE",
"476 153 LINE"
);
}
);
width = 930;
}
);
unicode = 0985;
},
{
glyphname = bnI;
lastChange = "2015-07-03 10:49:30 +0000";
layers = (
{
background = {
paths = (
{
closed = 1;
nodes = (
"27 853 LINE",
"45 849 OFFCURVE",
"61 847 OFFCURVE",
"75 847 CURVE SMOOTH",
"130 847 OFFCURVE",
"176 871 OFFCURVE",
"244 871 CURVE",
"351 871 OFFCURVE",
"407 811 OFFCURVE",
"407 713 CURVE SMOOTH",
"407 696 OFFCURVE",
"405 677 OFFCURVE",
"402 657 CURVE",
"278 656 LINE",
"279 666 OFFCURVE",
"280 685 OFFCURVE",
"280 693 CURVE SMOOTH",
"280 729 OFFCURVE",
"273 754 OFFCURVE",
"228 754 CURVE",
"191 754 OFFCURVE",
"137 735 OFFCURVE",
"86 735 CURVE SMOOTH",
"66 735 OFFCURVE",
"47 738 OFFCURVE",
"27 746 CURVE"
);
}
);
};
components = (
{
name = bnHA;
}
);
layerId = "731EBDE8-0F2D-4E32-814F-AAFC41A14D25";
name = Bold;
paths = (
{
closed = 1;
nodes = (
"412 662 LINE",
"415 682 OFFCURVE",
"417 701 OFFCURVE",
"417 718 CURVE SMOOTH",
"417 816 OFFCURVE",
"361 876 OFFCURVE",
"254 876 CURVE",
"186 876 OFFCURVE",
"146 852 OFFCURVE",
"91 852 CURVE SMOOTH",
"60 852 OFFCURVE",
"39 857 OFFCURVE",
"17 869 CURVE",
"17 762 LINE",
"37 750 OFFCURVE",
"65 740 OFFCURVE",
"104 740 CURVE SMOOTH",
"155 740 OFFCURVE",
"201 759 OFFCURVE",
"238 759 CURVE",
"283 759 OFFCURVE",
"290 734 OFFCURVE",
"290 698 CURVE SMOOTH",
"290 690 OFFCURVE",
"289 671 OFFCURVE",
"288 661 CURVE"
);
}
);
width = 460;
},
{
background = {
paths = (
{
closed = 1;
nodes = (
"64 796 LINE",
"81 793 OFFCURVE",
"98 790 OFFCURVE",
"116 790 CURVE SMOOTH",
"161 790 OFFCURVE",
"209 815 OFFCURVE",
"258 815 CURVE",
"346 815 OFFCURVE",
"379 763 OFFCURVE",
"379 695 CURVE SMOOTH",
"379 678 OFFCURVE",
"376 648 OFFCURVE",
"371 628 CURVE",
"316 628 LINE",
"318 644 OFFCURVE",
"321 673 OFFCURVE",
"321 693 CURVE SMOOTH",
"321 738 OFFCURVE",
"301 760 OFFCURVE",
"259 760 CURVE",
"218 760 OFFCURVE",
"170 735 OFFCURVE",
"119 735 CURVE SMOOTH",
"94 735 OFFCURVE",
"78 739 OFFCURVE",
"64 743 CURVE"
);
}
);
};
components = (
{
name = bnHA;
}
);
layerId = "D864283E-EAB4-426F-8533-332F2D658CBA";
name = Light;
paths = (
{
closed = 1;
nodes = (
"382 628 LINE",
"387 648 OFFCURVE",
"390 678 OFFCURVE",
"390 695 CURVE SMOOTH",
"390 755 OFFCURVE",
"358 815 OFFCURVE",
"265 815 CURVE",
"206 815 OFFCURVE",
"161 790 OFFCURVE",
"116 790 CURVE SMOOTH",
"89 790 OFFCURVE",
"66 796 OFFCURVE",
"38 805 CURVE",
"38 755 LINE",
"62 742 OFFCURVE",
"85 735 OFFCURVE",
"119 735 CURVE SMOOTH",
"170 735 OFFCURVE",
"215 760 OFFCURVE",
"266 760 CURVE SMOOTH",
"312 760 OFFCURVE",
"332 735 OFFCURVE",
"332 690 CURVE SMOOTH",
"332 672 OFFCURVE",
"329 643 OFFCURVE",
"325 628 CURVE"
);
}
);
width = 454;
}
);
unicode = 0987;
},
{
glyphname = bnII;
lastChange = "2015-07-03 10:49:30 +0000";
layers = (
{
background = {
paths = (
{
closed = 1;
nodes = (
"-20 559 LINE",
"-20 671 LINE",
"690 671 LINE",
"690 559 LINE"
);
},
{
closed = 1;
nodes = (
"605 0 LINE",
"470 0 LINE",
"470 475 LINE",
"605 475 LINE"
);
},
{
closed = 1;
nodes = (
"282 290 LINE",
"360 364 OFFCURVE",
"444 452 OFFCURVE",
"470 475 CURVE",
"519 368 LINE",
"492 344 OFFCURVE",
"396 243 OFFCURVE",
"337 185 CURVE"
);
},
{
closed = 1;
nodes = (
"390 196 OFFCURVE",
"308 88 OFFCURVE",
"162 88 CURVE SMOOTH",
"114 88 OFFCURVE",
"71 94 OFFCURVE",
"42 100 CURVE",
"42 215 LINE",
"64 212 OFFCURVE",
"104 208 OFFCURVE",
"144 208 CURVE SMOOTH",
"206 208 OFFCURVE",
"266 220 OFFCURVE",
"266 326 CURVE",
"266 370 OFFCURVE",
"248 400 OFFCURVE",
"211 400 CURVE SMOOTH",
"177 400 OFFCURVE",
"160 374 OFFCURVE",
"160 338 CURVE SMOOTH",
"160 315 OFFCURVE",
"164 297 OFFCURVE",
"168 285 CURVE",
"41 285 LINE",
"35 303 OFFCURVE",
"29 324 OFFCURVE",
"29 355 CURVE SMOOTH",
"29 447 OFFCURVE",
"95 512 OFFCURVE",
"206 512 CURVE SMOOTH",
"329 512 OFFCURVE",
"392 428 OFFCURVE",
"392 328 CURVE"
);
},
{
closed = 1;
nodes = (
"244 847 OFFCURVE",
"363 871 OFFCURVE",
"431 871 CURVE",
"538 871 OFFCURVE",
"604 816 OFFCURVE",
"604 718 CURVE SMOOTH",
"604 701 OFFCURVE",
"602 682 OFFCURVE",
"599 662 CURVE",
"475 661 LINE",
"476 671 OFFCURVE",
"477 690 OFFCURVE",
"477 698 CURVE SMOOTH",
"477 734 OFFCURVE",
"460 754 OFFCURVE",
"412 754 CURVE",
"355 754 OFFCURVE",
"272 735 OFFCURVE",
"201 735 CURVE",
"141 735 OFFCURVE",
"103 745 OFFCURVE",
"82 757 CURVE",
"82 864 LINE",
"112 852 OFFCURVE",
"149 847 OFFCURVE",
"189 847 CURVE"
);
}
);
};
layerId = "731EBDE8-0F2D-4E32-814F-AAFC41A14D25";
name = Bold;
paths = (
{
closed = 1;
nodes = (
"95 519 OFFCURVE",
"29 454 OFFCURVE",
"29 362 CURVE SMOOTH",
"29 331 OFFCURVE",
"35 310 OFFCURVE",
"41 292 CURVE",
"168 292 LINE",
"164 304 OFFCURVE",
"160 322 OFFCURVE",
"160 345 CURVE SMOOTH",
"160 381 OFFCURVE",
"177 407 OFFCURVE",
"211 407 CURVE SMOOTH",
"248 407 OFFCURVE",
"267 376 OFFCURVE",
"267 322 CURVE",
"267 236 OFFCURVE",
"226 185 OFFCURVE",
"144 185 CURVE SMOOTH",
"104 185 OFFCURVE",
"64 189 OFFCURVE",
"42 192 CURVE",
"42 77 LINE",
"71 71 OFFCURVE",
"114 65 OFFCURVE",
"162 65 CURVE SMOOTH",
"318 65 OFFCURVE",
"391 192 OFFCURVE",
"393 324 CURVE",
"393 424 OFFCURVE",
"329 519 OFFCURVE",
"206 519 CURVE SMOOTH"
);
},
{
closed = 1;
nodes = (
"330 183 LINE",
"396 248 OFFCURVE",
"509 348 OFFCURVE",
"536 372 CURVE",
"480 475 LINE",
"454 452 OFFCURVE",
"360 364 OFFCURVE",
"282 290 CURVE"
);
},
{
closed = 1;
nodes = (
"480 475 LINE",
"480 383 LINE",
"466 327 OFFCURVE",
"452 243 OFFCURVE",
"452 166 CURVE SMOOTH",
"452 107 OFFCURVE",
"453 69 OFFCURVE",
"465 0 CURVE",
"605 0 LINE",
"591 60 OFFCURVE",
"577 151 OFFCURVE",
"577 252 CURVE SMOOTH",
"577 328 OFFCURVE",
"585 413 OFFCURVE",
"602 475 CURVE"
);
},
{
closed = 1;
nodes = (
"-20 671 LINE",
"-20 559 LINE",
"690 559 LINE",
"690 671 LINE"
);
},
{
closed = 1;
nodes = (
"363 876 OFFCURVE",
"244 852 OFFCURVE",
"189 852 CURVE",
"149 852 OFFCURVE",
"112 857 OFFCURVE",
"82 869 CURVE",
"82 762 LINE",
"103 750 OFFCURVE",
"141 740 OFFCURVE",
"201 740 CURVE",
"272 740 OFFCURVE",
"355 759 OFFCURVE",
"412 759 CURVE",
"460 759 OFFCURVE",
"477 739 OFFCURVE",
"477 703 CURVE SMOOTH",
"477 695 OFFCURVE",
"476 676 OFFCURVE",
"475 666 CURVE",
"599 667 LINE",
"602 687 OFFCURVE",
"604 706 OFFCURVE",
"604 723 CURVE SMOOTH",
"604 821 OFFCURVE",
"538 876 OFFCURVE",
"431 876 CURVE"
);
}
);
width = 670;
},
{
background = {
paths = (
{
closed = 1;
nodes = (
"-10 579 LINE",
"-10 634 LINE",
"678 634 LINE",
"678 579 LINE"
);
},
{
closed = 1;
nodes = (
"86 279 LINE",
"79 300 OFFCURVE",
"75 324 OFFCURVE",
"75 351 CURVE SMOOTH",
"75 433 OFFCURVE",
"125 504 OFFCURVE",
"225 504 CURVE SMOOTH",
"332 504 OFFCURVE",
"379 419 OFFCURVE",
"379 335 CURVE SMOOTH",
"379 221 OFFCURVE",
"308 122 OFFCURVE",
"168 122 CURVE SMOOTH",
"140 122 OFFCURVE",
"113 124 OFFCURVE",
"85 127 CURVE",
"85 182 LINE",
"113 180 OFFCURVE",
"140 177 OFFCURVE",
"168 177 CURVE SMOOTH",
"268 177 OFFCURVE",
"318 241 OFFCURVE",
"318 335 CURVE SMOOTH",
"318 398 OFFCURVE",
"293 449 OFFCURVE",
"225 449 CURVE SMOOTH",
"165 449 OFFCURVE",
"136 407 OFFCURVE",
"136 351 CURVE SMOOTH",
"136 320 OFFCURVE",
"140 298 OFFCURVE",
"145 279 CURVE"
);
},
{
closed = 1;
nodes = (
"316 295 LINE",
"384 365 OFFCURVE",
"473 443 OFFCURVE",
"497 464 CURVE",
"533 420 LINE",
"508 398 OFFCURVE",
"406 305 OFFCURVE",
"351 246 CURVE"
);
},
{
closed = 1;
nodes = (
"100 805 LINE",
"134 795 OFFCURVE",
"176 790 OFFCURVE",
"210 790 CURVE SMOOTH",
"265 790 OFFCURVE",
"361 815 OFFCURVE",
"429 815 CURVE",
"522 815 OFFCURVE",
"564 763 OFFCURVE",
"564 695 CURVE SMOOTH",
"564 678 OFFCURVE",
"561 648 OFFCURVE",
"556 628 CURVE",
"499 628 LINE",
"503 643 OFFCURVE",
"506 672 OFFCURVE",
"506 690 CURVE SMOOTH",
"506 735 OFFCURVE",
"480 760 OFFCURVE",
"430 760 CURVE",
"373 760 OFFCURVE",
"284 735 OFFCURVE",
"213 735 CURVE SMOOTH",
"163 735 OFFCURVE",
"130 742 OFFCURVE",
"100 755 CURVE"
);
},
{
closed = 1;
nodes = (
"558 0 LINE",
"497 0 LINE",
"497 464 LINE",
"558 464 LINE"
);
}
);
};
layerId = "D864283E-EAB4-426F-8533-332F2D658CBA";
name = Light;
paths = (
{
closed = 1;
nodes = (
"129 504 OFFCURVE",
"75 437 OFFCURVE",
"75 355 CURVE SMOOTH",
"75 328 OFFCURVE",
"79 300 OFFCURVE",
"86 279 CURVE",
"145 279 LINE",
"140 298 OFFCURVE",
"136 324 OFFCURVE",
"136 355 CURVE SMOOTH",
"136 411 OFFCURVE",
"168 449 OFFCURVE",
"223 449 CURVE SMOOTH",
"294 449 OFFCURVE",
"318 390 OFFCURVE",
"318 324 CURVE SMOOTH",
"318 221 OFFCURVE",
"272 147 OFFCURVE",
"168 147 CURVE SMOOTH",
"140 147 OFFCURVE",
"113 149 OFFCURVE",
"85 152 CURVE",
"85 97 LINE",
"113 94 OFFCURVE",
"140 92 OFFCURVE",
"168 92 CURVE SMOOTH",
"312 92 OFFCURVE",
"379 201 OFFCURVE",
"379 324 CURVE SMOOTH",
"379 411 OFFCURVE",
"333 504 OFFCURVE",
"223 504 CURVE SMOOTH"
);
},
{
closed = 1;
nodes = (
"359 236 LINE",
"416 295 OFFCURVE",
"529 399 OFFCURVE",
"553 420 CURVE",
"517 464 LINE",
"494 444 OFFCURVE",
"391 351 OFFCURVE",
"325 284 CURVE"
);
},
{
closed = 1;
nodes = (
"517 464 LINE",
"515 407 LINE",
"501 337 OFFCURVE",
"494 269 OFFCURVE",
"494 204 CURVE SMOOTH",
"494 134 OFFCURVE",
"502 67 OFFCURVE",
"517 0 CURVE",
"578 0 LINE",
"565 65 OFFCURVE",
"554 136 OFFCURVE",
"554 218 CURVE SMOOTH",
"554 306 OFFCURVE",
"564 379 OFFCURVE",
"579 464 CURVE"
);
},
{
closed = 1;
nodes = (
"-20 634 LINE",
"-20 579 LINE",
"688 579 LINE",
"688 634 LINE"
);
},
{
closed = 1;
nodes = (
"379 815 OFFCURVE",
"293 790 OFFCURVE",
"218 790 CURVE SMOOTH",
"184 790 OFFCURVE",
"142 795 OFFCURVE",
"108 805 CURVE",
"108 755 LINE",
"138 742 OFFCURVE",
"171 735 OFFCURVE",
"221 735 CURVE SMOOTH",
"312 735 OFFCURVE",
"391 760 OFFCURVE",
"448 760 CURVE",
"498 760 OFFCURVE",
"524 735 OFFCURVE",
"524 690 CURVE SMOOTH",
"524 672 OFFCURVE",
"521 643 OFFCURVE",
"517 628 CURVE",
"574 628 LINE",
"579 648 OFFCURVE",
"582 678 OFFCURVE",
"582 695 CURVE SMOOTH",
"582 763 OFFCURVE",
"540 815 OFFCURVE",
"447 815 CURVE"
);
}
);
width = 648;
},
{
associatedMasterId = "D864283E-EAB4-426F-8533-332F2D658CBA";
layerId = "9E2911F8-333E-42BA-ACE4-4BA15A3A1461";
name = "Light Mar 17 15, 14:41";
paths = (
{
closed = 1;
nodes = (
"-20 579 LINE",
"-20 634 LINE",
"668 634 LINE",
"668 579 LINE"
);
},
{
closed = 1;
nodes = (
"76 279 LINE",
"69 300 OFFCURVE",
"65 324 OFFCURVE",
"65 351 CURVE SMOOTH",
"65 433 OFFCURVE",
"115 504 OFFCURVE",
"215 504 CURVE SMOOTH",
"322 504 OFFCURVE",
"369 419 OFFCURVE",
"369 335 CURVE SMOOTH",
"369 221 OFFCURVE",
"298 122 OFFCURVE",
"158 122 CURVE SMOOTH",
"130 122 OFFCURVE",
"103 124 OFFCURVE",
"75 127 CURVE",
"75 182 LINE",
"103 180 OFFCURVE",
"130 177 OFFCURVE",
"158 177 CURVE SMOOTH",
"258 177 OFFCURVE",
"308 241 OFFCURVE",
"308 335 CURVE SMOOTH",
"308 398 OFFCURVE",
"283 449 OFFCURVE",
"215 449 CURVE SMOOTH",
"155 449 OFFCURVE",
"126 407 OFFCURVE",
"126 351 CURVE SMOOTH",
"126 320 OFFCURVE",
"130 298 OFFCURVE",
"135 279 CURVE"
);
},
{
closed = 1;
nodes = (
"306 295 LINE",
"374 365 OFFCURVE",
"463 443 OFFCURVE",
"487 464 CURVE",
"523 420 LINE",
"498 398 OFFCURVE",
"396 305 OFFCURVE",
"341 246 CURVE"
);
},
{
closed = 1;
nodes = (
"90 805 LINE",
"124 795 OFFCURVE",
"166 790 OFFCURVE",
"200 790 CURVE SMOOTH",
"255 790 OFFCURVE",
"351 815 OFFCURVE",
"419 815 CURVE",
"512 815 OFFCURVE",
"554 763 OFFCURVE",
"554 695 CURVE SMOOTH",
"554 678 OFFCURVE",
"551 648 OFFCURVE",
"546 628 CURVE",
"489 628 LINE",
"493 643 OFFCURVE",
"496 672 OFFCURVE",
"496 690 CURVE SMOOTH",
"496 735 OFFCURVE",
"470 760 OFFCURVE",
"420 760 CURVE",
"363 760 OFFCURVE",
"274 735 OFFCURVE",
"203 735 CURVE SMOOTH",
"153 735 OFFCURVE",
"120 742 OFFCURVE",
"90 755 CURVE"
);
},
{
closed = 1;
nodes = (
"548 0 LINE",
"487 0 LINE",
"487 464 LINE",
"548 464 LINE"
);
}
);
width = 648;
}
);
unicode = 0988;
},
{
glyphname = bnU;
lastChange = "2015-07-03 10:49:30 +0000";
layers = (
{
components = (
{
name = bnDDA;
}
);
layerId = "731EBDE8-0F2D-4E32-814F-AAFC41A14D25";
name = Bold;
paths = (
{
closed = 1;
nodes = (
"599 667 LINE",
"602 687 OFFCURVE",
"604 706 OFFCURVE",
"604 723 CURVE SMOOTH",
"604 821 OFFCURVE",
"538 876 OFFCURVE",
"431 876 CURVE",
"363 876 OFFCURVE",
"244 852 OFFCURVE",
"189 852 CURVE",
"149 852 OFFCURVE",
"112 857 OFFCURVE",
"82 869 CURVE",
"82 762 LINE",
"103 750 OFFCURVE",
"141 740 OFFCURVE",
"201 740 CURVE",
"272 740 OFFCURVE",
"355 759 OFFCURVE",
"412 759 CURVE",
"460 759 OFFCURVE",
"477 739 OFFCURVE",
"477 703 CURVE SMOOTH",
"477 695 OFFCURVE",
"476 676 OFFCURVE",
"475 666 CURVE"
);
}
);
width = 678;
},
{
components = (
{
name = bnDDA;
}
);
layerId = "D864283E-EAB4-426F-8533-332F2D658CBA";
name = Light;
paths = (
{
closed = 1;
nodes = (
"559 628 LINE",
"564 648 OFFCURVE",
"567 678 OFFCURVE",
"567 695 CURVE SMOOTH",
"567 763 OFFCURVE",
"525 815 OFFCURVE",
"432 815 CURVE",
"364 815 OFFCURVE",
"278 790 OFFCURVE",
"203 790 CURVE SMOOTH",
"169 790 OFFCURVE",
"127 795 OFFCURVE",
"93 805 CURVE",
"93 755 LINE",
"123 742 OFFCURVE",
"156 735 OFFCURVE",
"206 735 CURVE SMOOTH",
"297 735 OFFCURVE",
"376 760 OFFCURVE",
"433 760 CURVE",
"483 760 OFFCURVE",
"509 735 OFFCURVE",
"509 690 CURVE SMOOTH",
"509 672 OFFCURVE",
"506 643 OFFCURVE",
"502 628 CURVE"
);
}
);
width = 645;
}
);
unicode = 0989;
},
{
glyphname = bnUU;
lastChange = "2015-07-03 10:49:30 +0000";
layers = (
{
layerId = "731EBDE8-0F2D-4E32-814F-AAFC41A14D25";
name = Bold;
paths = (
{
closed = 1;
nodes = (
"360 658 LINE",
"360 433 LINE",
"360 323 OFFCURVE",
"417 262 OFFCURVE",
"526 262 CURVE SMOOTH",
"593 262 OFFCURVE",
"644 289 OFFCURVE",
"694 321 CURVE",
"628 376 LINE",
"630 355 OFFCURVE",
"633 308 OFFCURVE",
"633 292 CURVE SMOOTH",
"633 189 OFFCURVE",
"577 120 OFFCURVE",
"468 120 CURVE SMOOTH",
"360 120 OFFCURVE",
"288 199 OFFCURVE",
"288 367 CURVE SMOOTH",
"288 390 OFFCURVE",
"289 419 OFFCURVE",
"292 446 CURVE",
"194 446 LINE",
"191 419 OFFCURVE",
"190 387 OFFCURVE",
"190 361 CURVE SMOOTH",
"190 231 OFFCURVE",
"239 137 OFFCURVE",
"316 95 CURVE",
"315 110 LINE",
"219 123 OFFCURVE",
"128 196 OFFCURVE",
"128 367 CURVE SMOOTH",
"128 390 OFFCURVE",
"129 419 OFFCURVE",
"132 446 CURVE",
"34 446 LINE",
"31 419 OFFCURVE",
"30 387 OFFCURVE",
"30 361 CURVE SMOOTH",
"30 135 OFFCURVE",
"197 0 OFFCURVE",
"444 0 CURVE SMOOTH",
"655 0 OFFCURVE",
"763 135 OFFCURVE",
"763 292 CURVE SMOOTH",
"763 340 OFFCURVE",
"754 395 OFFCURVE",
"734 444 CURVE",
"672 413 OFFCURVE",
"603 382 OFFCURVE",
"554 382 CURVE SMOOTH",
"514 382 OFFCURVE",
"500 402 OFFCURVE",
"500 435 CURVE",
"500 658 LINE"
);
},
{
closed = 1;
nodes = (
"-20 671 LINE",
"-20 559 LINE",
"813 559 LINE",
"813 671 LINE"
);
},
{
closed = 1;
nodes = (
"436 876 OFFCURVE",
"308 848 OFFCURVE",
"233 848 CURVE",
"193 848 OFFCURVE",
"145 857 OFFCURVE",
"115 869 CURVE",
"115 762 LINE",
"136 750 OFFCURVE",
"175 736 OFFCURVE",
"235 736 CURVE",
"326 736 OFFCURVE",
"428 759 OFFCURVE",
"525 759 CURVE",
"573 759 OFFCURVE",
"590 739 OFFCURVE",
"590 703 CURVE SMOOTH",
"590 695 OFFCURVE",
"589 676 OFFCURVE",
"588 666 CURVE",
"712 667 LINE",
"715 687 OFFCURVE",
"717 706 OFFCURVE",
"717 723 CURVE SMOOTH",
"717 821 OFFCURVE",
"651 876 OFFCURVE",
"544 876 CURVE"
);
}
);
width = 793;
},
{
background = {
paths = (
{
closed = 1;
nodes = (
"658 379 OFFCURVE",
"664 345 OFFCURVE",
"664 282 CURVE SMOOTH",
"664 134 OFFCURVE",
"576 20 OFFCURVE",
"416 20 CURVE SMOOTH",
"240 20 OFFCURVE",
"147 157 OFFCURVE",
"147 340 CURVE SMOOTH",
"147 366 OFFCURVE",
"149 394 OFFCURVE",
"153 423 CURVE",
"213 423 LINE",
"210 396 OFFCURVE",
"209 364 OFFCURVE",
"209 340 CURVE SMOOTH",
"209 191 OFFCURVE",
"273 75 OFFCURVE",
"416 75 CURVE SMOOTH",
"540 75 OFFCURVE",
"604 162 OFFCURVE",
"604 288 CURVE SMOOTH",
"604 330 OFFCURVE",
"598 353 OFFCURVE",
"593 377 CURVE",
"637 366 LINE",
"590 323 OFFCURVE",
"529 294 OFFCURVE",
"468 294 CURVE SMOOTH",
"399 294 OFFCURVE",
"347 341 OFFCURVE",
"347 419 CURVE",
"347 618 LINE",
"408 618 LINE",
"408 419 LINE",
"408 372 OFFCURVE",
"431 349 OFFCURVE",
"470 349 CURVE SMOOTH",
"531 349 OFFCURVE",
"582 383 OFFCURVE",
"642 422 CURVE"
);
}
);
};
layerId = "D864283E-EAB4-426F-8533-332F2D658CBA";
name = Light;
paths = (
{
closed = 1;
nodes = (
"347 618 LINE",
"347 419 LINE",
"347 341 OFFCURVE",
"399 294 OFFCURVE",
"468 294 CURVE SMOOTH",
"529 294 OFFCURVE",
"590 323 OFFCURVE",
"637 366 CURVE",
"593 377 LINE",
"598 353 OFFCURVE",
"604 330 OFFCURVE",
"604 288 CURVE SMOOTH",
"604 162 OFFCURVE",
"532 75 OFFCURVE",
"424 75 CURVE SMOOTH",
"289 75 OFFCURVE",
"244 191 OFFCURVE",
"244 340 CURVE SMOOTH",
"244 364 OFFCURVE",
"245 396 OFFCURVE",
"248 423 CURVE",
"189 423 LINE",
"185 394 OFFCURVE",
"183 366 OFFCURVE",
"183 340 CURVE SMOOTH",
"183 216 OFFCURVE",
"228 105 OFFCURVE",
"308 68 CURVE",
"308 77 LINE",
"196 89 OFFCURVE",
"116 191 OFFCURVE",
"116 340 CURVE SMOOTH",
"116 364 OFFCURVE",
"117 396 OFFCURVE",
"120 423 CURVE",
"61 423 LINE",
"57 394 OFFCURVE",
"55 366 OFFCURVE",
"55 340 CURVE SMOOTH",
"55 111 OFFCURVE",
"214 20 OFFCURVE",
"396 20 CURVE SMOOTH",
"580 20 OFFCURVE",
"664 134 OFFCURVE",
"664 282 CURVE SMOOTH",
"664 345 OFFCURVE",
"658 379 OFFCURVE",
"642 422 CURVE",
"582 383 OFFCURVE",
"531 349 OFFCURVE",
"470 349 CURVE SMOOTH",
"431 349 OFFCURVE",
"408 372 OFFCURVE",
"408 419 CURVE",
"408 618 LINE"
);
},
{
closed = 1;
nodes = (
"-20 634 LINE",
"-20 579 LINE",
"744 579 LINE",
"744 634 LINE"
);
},
{
closed = 1;
nodes = (
"423 815 OFFCURVE",
"337 787 OFFCURVE",
"242 787 CURVE SMOOTH",
"178 787 OFFCURVE",
"126 795 OFFCURVE",
"92 805 CURVE",
"92 755 LINE",
"122 742 OFFCURVE",
"165 732 OFFCURVE",
"245 732 CURVE SMOOTH",
"356 732 OFFCURVE",
"435 760 OFFCURVE",
"512 760 CURVE",
"562 760 OFFCURVE",
"588 735 OFFCURVE",
"588 690 CURVE SMOOTH",
"588 672 OFFCURVE",
"585 643 OFFCURVE",
"581 628 CURVE",
"638 628 LINE",
"643 648 OFFCURVE",
"646 678 OFFCURVE",
"646 695 CURVE SMOOTH",
"646 763 OFFCURVE",
"604 815 OFFCURVE",
"511 815 CURVE"
);
}
);
width = 724;
}
);
unicode = 098A;
},
{
glyphname = bnvR;
lastChange = "2015-07-03 10:49:30 +0000";
layers = (
{
background = {
paths = (
{
closed = 1;
nodes = (
"139 198 LINE",
"461 361 LINE",
"420 480 LINE",
"56 295 LINE",
"56 162 LINE"
);
},
{
closed = 1;
nodes = (
"489 97 LINE",
"142 267 LINE",
"55 162 LINE",
"403 0 LINE"
);
},
{
closed = 1;
nodes = (
"260 432 OFFCURVE",
"299 525 OFFCURVE",
"299 596 CURVE SMOOTH",
"299 618 OFFCURVE",
"296 647 OFFCURVE",
"291 671 CURVE",
"221 671 LINE",
"222 658 OFFCURVE",
"222 646 OFFCURVE",
"222 634 CURVE SMOOTH",
"222 579 OFFCURVE",
"220 542 OFFCURVE",
"172 542 CURVE SMOOTH",
"145 542 OFFCURVE",
"126 568 OFFCURVE",
"126 606 CURVE SMOOTH",
"126 639 OFFCURVE",
"132 659 OFFCURVE",
"136 671 CURVE",
"21 671 LINE",
"12 652 OFFCURVE",
"5 618 OFFCURVE",
"5 587 CURVE SMOOTH",
"5 495 OFFCURVE",
"57 432 OFFCURVE",
"155 432 CURVE SMOOTH"
);
},
{
closed = 1;
nodes = (
"700 168 LINE",
"700 272 OFFCURVE",
"660 329 OFFCURVE",
"566 329 CURVE SMOOTH",
"526 329 LINE",
"493 217 LINE",
"551 217 LINE SMOOTH",
"639 217 OFFCURVE",
"673 167 OFFCURVE",
"673 90 CURVE"
);
},
{
closed = 1;
nodes = (
"543 0 LINE",
"543 671 LINE",
"403 671 LINE",
"403 0 LINE"
);
},
{
closed = 1;
nodes = (
"418 422 LINE",
"321 671 LINE",
"234 671 LINE",
"228 563 LINE",
"302 390 LINE"
);
},
{
closed = 1;
nodes = (
"813 90 LINE",
"813 751 LINE",
"673 751 LINE",
"673 90 LINE"
);
},
{
closed = 1;
nodes = (
"898 559 LINE",
"898 671 LINE",
"693 671 LINE",
"693 559 LINE"
);
}
);
};
layerId = "731EBDE8-0F2D-4E32-814F-AAFC41A14D25";
name = Bold;
paths = (
{
closed = 1;
nodes = (
"139 198 LINE",
"461 363 LINE",
"420 480 LINE",
"56 295 LINE",
"56 162 LINE"
);
},
{
closed = 1;
nodes = (
"489 94 LINE",
"142 264 LINE",
"55 162 LINE",
"403 0 LINE"
);
},
{
closed = 1;
nodes = (
"260 432 OFFCURVE",
"299 525 OFFCURVE",
"299 596 CURVE SMOOTH",
"299 618 OFFCURVE",
"296 647 OFFCURVE",
"291 671 CURVE",
"221 671 LINE",
"222 658 OFFCURVE",
"222 646 OFFCURVE",
"222 634 CURVE SMOOTH",
"222 579 OFFCURVE",
"220 542 OFFCURVE",
"172 542 CURVE SMOOTH",
"145 542 OFFCURVE",
"126 568 OFFCURVE",
"126 606 CURVE SMOOTH",
"126 639 OFFCURVE",
"132 659 OFFCURVE",
"136 671 CURVE",
"21 671 LINE",
"12 652 OFFCURVE",
"5 618 OFFCURVE",
"5 587 CURVE SMOOTH",
"5 495 OFFCURVE",
"57 432 OFFCURVE",
"155 432 CURVE SMOOTH"
);
},
{
closed = 1;
nodes = (
"695 168 LINE",
"695 272 OFFCURVE",
"655 329 OFFCURVE",
"561 329 CURVE SMOOTH",
"521 329 LINE",
"488 217 LINE",
"546 217 LINE SMOOTH",
"634 217 OFFCURVE",
"668 167 OFFCURVE",
"668 90 CURVE"
);
},
{
closed = 1;
nodes = (
"543 0 LINE",
"543 671 LINE",
"408 671 LINE",
"408 411 LINE",
"403 377 LINE",
"403 0 LINE"
);
},
{
closed = 1;
nodes = (
"418 422 LINE",
"321 671 LINE",
"234 671 LINE",
"228 563 LINE",
"313 390 LINE"
);
},
{
closed = 1;
nodes = (
"808 90 LINE",
"808 751 LINE",
"668 751 LINE",
"668 90 LINE"
);
},
{
closed = 1;
nodes = (
"893 559 LINE",
"893 671 LINE",
"688 671 LINE",
"688 559 LINE"
);
}
);
width = 873;
},
{
background = {
paths = (
{
closed = 1;
nodes = (
"94 196 LINE",
"426 408 LINE",
"406 464 LINE",
"65 252 LINE",
"65 178 LINE"
);
},
{
closed = 1;
nodes = (
"430 50 LINE",
"90 237 LINE",
"65 178 LINE",
"400 0 LINE"
);
},
{
closed = 1;
nodes = (
"253 409 OFFCURVE",
"307 471 OFFCURVE",
"307 566 CURVE",
"307 595 OFFCURVE",
"305 618 OFFCURVE",
"301 634 CURVE",
"255 634 LINE",
"258 614 OFFCURVE",
"259 590 OFFCURVE",
"259 573 CURVE SMOOTH",
"259 510 OFFCURVE",
"230 464 OFFCURVE",
"173 464 CURVE SMOOTH",
"115 464 OFFCURVE",
"91 507 OFFCURVE",
"91 561 CURVE SMOOTH",
"91 592 OFFCURVE",
"97 615 OFFCURVE",
"102 634 CURVE",
"43 634 LINE",
"35 612 OFFCURVE",
"30 588 OFFCURVE",
"30 561 CURVE SMOOTH",
"30 473 OFFCURVE",
"85 409 OFFCURVE",
"169 409 CURVE SMOOTH"
);
},
{
closed = 1;
nodes = (
"675 148 LINE",
"675 234 OFFCURVE",
"637 292 OFFCURVE",
"543 292 CURVE SMOOTH",
"436 292 LINE",
"436 237 LINE",
"544 237 LINE SMOOTH",
"632 237 OFFCURVE",
"650 167 OFFCURVE",
"650 90 CURVE"
);
},
{
closed = 1;
nodes = (
"461 0 LINE",
"461 634 LINE",
"400 634 LINE",
"400 421 LINE",
"400 409 LINE",
"400 0 LINE"
);
},
{
closed = 1;
nodes = (
"405 439 LINE",
"312 634 LINE",
"275 634 LINE",
"275 578 LINE",
"375 389 LINE"
);
},
{
closed = 1;
nodes = (
"711 70 LINE",
"711 719 LINE",
"650 719 LINE",
"650 70 LINE"
);
},
{
closed = 1;
nodes = (
"831 579 LINE",
"831 634 LINE",
"660 634 LINE",
"660 579 LINE"
);
}
);
};
layerId = "D864283E-EAB4-426F-8533-332F2D658CBA";
name = Light;
paths = (
{
closed = 1;
nodes = (
"74 196 LINE",
"406 408 LINE",
"386 464 LINE",
"45 252 LINE",
"45 178 LINE"
);
},
{
closed = 1;
nodes = (
"410 50 LINE",
"70 237 LINE",
"45 178 LINE",
"380 0 LINE"
);
},
{
closed = 1;
nodes = (
"231 409 OFFCURVE",
"287 471 OFFCURVE",
"287 566 CURVE",
"287 595 OFFCURVE",
"285 618 OFFCURVE",
"281 634 CURVE",
"235 634 LINE",
"238 614 OFFCURVE",
"239 590 OFFCURVE",
"239 573 CURVE SMOOTH",
"239 510 OFFCURVE",
"208 464 OFFCURVE",
"151 464 CURVE SMOOTH",
"90 464 OFFCURVE",
"63 507 OFFCURVE",
"63 561 CURVE SMOOTH",
"63 592 OFFCURVE",
"69 615 OFFCURVE",
"74 634 CURVE",
"15 634 LINE",
"7 612 OFFCURVE",
"2 588 OFFCURVE",
"2 561 CURVE SMOOTH",
"2 473 OFFCURVE",
"60 409 OFFCURVE",
"147 409 CURVE SMOOTH"
);
},
{
closed = 1;
nodes = (
"655 148 LINE",
"655 234 OFFCURVE",
"617 292 OFFCURVE",
"523 292 CURVE SMOOTH",
"416 292 LINE",
"416 237 LINE",
"524 237 LINE SMOOTH",
"612 237 OFFCURVE",
"630 167 OFFCURVE",
"630 90 CURVE"
);
},
{
closed = 1;
nodes = (
"441 0 LINE",
"441 634 LINE",
"380 634 LINE",
"380 421 LINE",
"380 409 LINE",
"380 0 LINE"
);
},
{
closed = 1;
nodes = (
"385 439 LINE",
"292 634 LINE",
"255 634 LINE",
"255 578 LINE",
"355 389 LINE"
);
},
{
closed = 1;
nodes = (
"691 70 LINE",
"691 719 LINE",
"630 719 LINE",
"630 70 LINE"
);
},
{
closed = 1;
nodes = (
"811 579 LINE",
"811 634 LINE",
"640 634 LINE",
"640 579 LINE"
);
}
);
width = 791;
}
);
unicode = 098B;
},
{
glyphname = bnvRR;
lastChange = "2015-07-03 10:49:30 +0000";
layers = (
{
components = (
{
name = bnvR;
}
);
layerId = "731EBDE8-0F2D-4E32-814F-AAFC41A14D25";
name = Bold;
paths = (
{
closed = 1;
nodes = (
"418 -73 LINE SMOOTH",
"239 -7 LINE",
"356 115 LINE",
"225 136 LINE",
"100 11 LINE",
"100 -82 LINE",
"418 -196 LINE SMOOTH"
);
}
);
width = 878;
},
{
components = (
{
name = bnvR;
}
);
layerId = "D864283E-EAB4-426F-8533-332F2D658CBA";
name = Light;
paths = (
{
closed = 1;
nodes = (
"377 -101 LINE",
"160 2 LINE",
"260 100 LINE",
"207 122 LINE",
"102 20 LINE",
"102 -31 LINE",
"377 -155 LINE"
);
}
);
width = 791;
}
);
unicode = 09E0;
},
{
glyphname = bnvL;
lastChange = "2015-07-03 10:49:30 +0000";
layers = (
{
background = {
paths = (
{
closed = 1;
nodes = (
"120 751 LINE",
"116 735 OFFCURVE",
"115 720 OFFCURVE",
"115 705 CURVE SMOOTH",
"115 462 OFFCURVE",
"474 534 OFFCURVE",
"474 288 CURVE SMOOTH",
"474 176 OFFCURVE",
"404 113 OFFCURVE",
"298 108 CURVE",
"200 -8 LINE",
"220 -10 OFFCURVE",
"239 -11 OFFCURVE",
"258 -11 CURVE SMOOTH",
"464 -11 OFFCURVE",
"605 101 OFFCURVE",
"605 288 CURVE SMOOTH",
"605 627 OFFCURVE",
"247 568 OFFCURVE",
"247 736 CURVE SMOOTH",
"247 740 OFFCURVE",
"247 747 OFFCURVE",
"248 751 CURVE"
);
},
{
closed = 1;
nodes = (
"183 157 LINE",
"173 184 OFFCURVE",
"165 219 OFFCURVE",
"165 249 CURVE SMOOTH",
"165 293 OFFCURVE",
"182 329 OFFCURVE",
"223 329 CURVE SMOOTH",
"265 329 OFFCURVE",
"285 299 OFFCURVE",
"285 247 CURVE SMOOTH",
"285 178 OFFCURVE",
"248 125 OFFCURVE",
"201 108 CURVE",
"200 -8 LINE",
"274 18 OFFCURVE",
"408 113 OFFCURVE",
"408 253 CURVE SMOOTH",
"408 365 OFFCURVE",
"334 444 OFFCURVE",
"209 444 CURVE SMOOTH",
"93 444 OFFCURVE",
"35 370 OFFCURVE",
"35 273 CURVE SMOOTH",
"35 236 OFFCURVE",
"42 197 OFFCURVE",
"56 157 CURVE"
);
}
);
};
layerId = "731EBDE8-0F2D-4E32-814F-AAFC41A14D25";
name = Bold;
paths = (
{
closed = 1;
nodes = (
"464 -11 OFFCURVE",
"605 101 OFFCURVE",
"605 288 CURVE SMOOTH",
"605 627 OFFCURVE",
"247 568 OFFCURVE",
"247 736 CURVE SMOOTH",
"247 740 OFFCURVE",
"247 747 OFFCURVE",
"248 751 CURVE",
"120 751 LINE",
"116 735 OFFCURVE",
"115 720 OFFCURVE",
"115 705 CURVE SMOOTH",
"115 462 OFFCURVE",
"474 534 OFFCURVE",
"474 288 CURVE SMOOTH",
"474 176 OFFCURVE",
"404 113 OFFCURVE",
"298 108 CURVE",
"200 -8 LINE",
"220 -10 OFFCURVE",
"239 -11 OFFCURVE",
"258 -11 CURVE SMOOTH"
);
},
{
closed = 1;
nodes = (
"274 18 OFFCURVE",
"408 110 OFFCURVE",
"408 250 CURVE SMOOTH",
"408 362 OFFCURVE",
"335 434 OFFCURVE",
"216 434 CURVE SMOOTH",
"110 434 OFFCURVE",
"35 366 OFFCURVE",
"35 269 CURVE SMOOTH",
"35 232 OFFCURVE",
"41 197 OFFCURVE",
"55 157 CURVE",
"180 157 LINE",
"173 182 OFFCURVE",
"165 216 OFFCURVE",
"165 248 CURVE SMOOTH",
"165 292 OFFCURVE",
"185 319 OFFCURVE",
"223 319 CURVE SMOOTH",
"263 319 OFFCURVE",
"285 289 OFFCURVE",
"285 247 CURVE SMOOTH",
"285 178 OFFCURVE",
"248 125 OFFCURVE",
"201 108 CURVE",
"200 -8 LINE"
);
}
);
width = 635;
},
{
background = {
paths = (
{
closed = 1;
nodes = (
"138 439 OFFCURVE",
"484 532 OFFCURVE",
"484 257 CURVE SMOOTH",
"484 141 OFFCURVE",
"402 55 OFFCURVE",
"278 52 CURVE",
"236 -2 LINE",
"250 -4 OFFCURVE",
"263 -5 OFFCURVE",
"276 -5 CURVE SMOOTH",
"431 -5 OFFCURVE",
"545 111 OFFCURVE",
"545 255 CURVE SMOOTH",
"545 576 OFFCURVE",
"199 491 OFFCURVE",
"199 695 CURVE SMOOTH",
"199 706 OFFCURVE",
"200 716 OFFCURVE",
"202 724 CURVE",
"143 724 LINE",
"143 724 OFFCURVE",
"138 709 OFFCURVE",
"138 687 CURVE SMOOTH"
);
},
{
closed = 1;
nodes = (
"127 123 LINE",
"116 157 OFFCURVE",
"107 201 OFFCURVE",
"107 239 CURVE SMOOTH",
"107 300 OFFCURVE",
"137 352 OFFCURVE",
"208 352 CURVE SMOOTH",
"273 352 OFFCURVE",
"311 310 OFFCURVE",
"311 240 CURVE SMOOTH",
"311 170 OFFCURVE",
"292 99 OFFCURVE",
"236 51 CURVE",
"236 -2 LINE",
"338 43 OFFCURVE",
"371 143 OFFCURVE",
"371 240 CURVE SMOOTH",
"371 339 OFFCURVE",
"305 407 OFFCURVE",
"208 407 CURVE SMOOTH",
"108 407 OFFCURVE",
"46 332 OFFCURVE",
"46 240 CURVE SMOOTH",
"46 202 OFFCURVE",
"55 161 OFFCURVE",
"67 123 CURVE"
);
}
);
};
layerId = "D864283E-EAB4-426F-8533-332F2D658CBA";
name = Light;
paths = (
{
closed = 1;
nodes = (
"431 -5 OFFCURVE",
"545 111 OFFCURVE",
"545 255 CURVE SMOOTH",
"545 576 OFFCURVE",
"199 491 OFFCURVE",
"199 695 CURVE SMOOTH",
"199 704 OFFCURVE",
"200 712 OFFCURVE",
"201 719 CURVE",
"142 719 LINE",
"140 713 OFFCURVE",
"138 702 OFFCURVE",
"138 687 CURVE SMOOTH",
"138 439 OFFCURVE",
"484 532 OFFCURVE",
"484 257 CURVE SMOOTH",
"484 141 OFFCURVE",
"402 55 OFFCURVE",
"278 52 CURVE",
"236 -2 LINE",
"250 -4 OFFCURVE",
"263 -5 OFFCURVE",
"276 -5 CURVE SMOOTH"
);
},
{
closed = 1;
nodes = (
"338 43 OFFCURVE",
"371 146 OFFCURVE",
"371 220 CURVE SMOOTH",
"371 315 OFFCURVE",
"304 387 OFFCURVE",
"207 387 CURVE SMOOTH",
"110 387 OFFCURVE",
"46 322 OFFCURVE",
"46 230 CURVE SMOOTH",
"46 192 OFFCURVE",
"54 156 OFFCURVE",
"64 123 CURVE",
"125 123 LINE",
"114 157 OFFCURVE",
"107 191 OFFCURVE",
"107 229 CURVE SMOOTH",
"107 291 OFFCURVE",
"141 332 OFFCURVE",
"207 332 CURVE SMOOTH",
"275 332 OFFCURVE",
"311 286 OFFCURVE",
"311 220 CURVE SMOOTH",
"311 156 OFFCURVE",
"280 87 OFFCURVE",
"236 51 CURVE",
"236 -2 LINE"
);
}
);
width = 600;
}
);
unicode = 098C;
},
{
glyphname = bnvLL;
lastChange = "2015-07-03 10:49:30 +0000";
layers = (
{
components = (
{
name = bnvL;
}
);
layerId = "731EBDE8-0F2D-4E32-814F-AAFC41A14D25";
name = Bold;
paths = (
{
closed = 1;
nodes = (
"609 -299 OFFCURVE",
"705 -237 OFFCURVE",
"705 -127 CURVE SMOOTH",
"705 41 OFFCURVE",
"505 49 OFFCURVE",
"505 132 CURVE SMOOTH",
"505 134 OFFCURVE",
"505 138 OFFCURVE",
"506 140 CURVE",
"415 135 LINE",
"412 126 OFFCURVE",
"412 118 OFFCURVE",
"412 110 CURVE SMOOTH",
"412 -16 OFFCURVE",
"612 -1 OFFCURVE",
"612 -127 CURVE SMOOTH",
"612 -189 OFFCURVE",
"573 -220 OFFCURVE",
"514 -223 CURVE",
"459 -297 LINE",
"470 -298 OFFCURVE",
"481 -299 OFFCURVE",
"491 -299 CURVE SMOOTH"
);
},
{
closed = 1;
nodes = (
"500 -283 OFFCURVE",
"575 -220 OFFCURVE",
"575 -142 CURVE SMOOTH",
"575 -79 OFFCURVE",
"535 -34 OFFCURVE",
"468 -34 CURVE SMOOTH",
"402 -34 OFFCURVE",
"365 -79 OFFCURVE",
"365 -133 CURVE SMOOTH",
"365 -154 OFFCURVE",
"369 -173 OFFCURVE",
"376 -195 CURVE",
"448 -195 LINE",
"444 -182 OFFCURVE",
"440 -163 OFFCURVE",
"440 -145 CURVE SMOOTH",
"440 -120 OFFCURVE",
"451 -105 OFFCURVE",
"472 -105 CURVE SMOOTH",
"494 -105 OFFCURVE",
"507 -122 OFFCURVE",
"507 -145 CURVE SMOOTH",
"507 -184 OFFCURVE",
"486 -213 OFFCURVE",
"460 -223 CURVE",
"459 -297 LINE"
);
}
);
width = 705;
},
{
components = (
{
name = bnvL;
}
);
layerId = "D864283E-EAB4-426F-8533-332F2D658CBA";
name = Light;
paths = (
{
closed = 1;
nodes = (
"603 -310 OFFCURVE",
"669 -237 OFFCURVE",
"669 -155 CURVE SMOOTH",
"669 11 OFFCURVE",
"475 -5 OFFCURVE",
"475 84 CURVE SMOOTH",
"475 89 OFFCURVE",
"475 94 OFFCURVE",
"475 97 CURVE",
"423 97 LINE",
"421 94 OFFCURVE",
"420 87 OFFCURVE",
"420 79 CURVE SMOOTH",
"420 -51 OFFCURVE",
"614 -23 OFFCURVE",
"614 -155 CURVE SMOOTH",
"614 -219 OFFCURVE",
"569 -259 OFFCURVE",
"499 -260 CURVE",
"475 -308 LINE",
"483 -309 OFFCURVE",
"491 -310 OFFCURVE",
"498 -310 CURVE SMOOTH"
);
},
{
closed = 1;
nodes = (
"533 -283 OFFCURVE",
"571 -240 OFFCURVE",
"571 -184 CURVE SMOOTH",
"571 -130 OFFCURVE",
"533 -70 OFFCURVE",
"459 -70 CURVE SMOOTH",
"386 -70 OFFCURVE",
"348 -126 OFFCURVE",
"348 -178 CURVE SMOOTH",
"348 -199 OFFCURVE",
"353 -219 OFFCURVE",
"358 -238 CURVE",
"413 -238 LINE",
"406 -218 OFFCURVE",
"403 -199 OFFCURVE",
"403 -178 CURVE SMOOTH",
"403 -143 OFFCURVE",
"422 -120 OFFCURVE",
"459 -120 CURVE SMOOTH",
"503 -120 OFFCURVE",
"517 -147 OFFCURVE",
"517 -184 CURVE SMOOTH",
"517 -219 OFFCURVE",
"500 -248 OFFCURVE",
"475 -268 CURVE",
"475 -308 LINE"
);
}
);
width = 689;
}
);
unicode = 09E1;
},
{
glyphname = bnE;
lastChange = "2015-07-03 10:49:30 +0000";
layers = (
{
background = {
paths = (
{
closed = 1;
nodes = (
"375 249 LINE",
"353 244 OFFCURVE",
"332 242 OFFCURVE",
"312 242 CURVE SMOOTH",
"180 242 OFFCURVE",
"116 309 OFFCURVE",
"116 431 CURVE SMOOTH",
"116 563 OFFCURVE",
"208 680 OFFCURVE",
"378 680 CURVE SMOOTH",
"481 680 OFFCURVE",
"575 616 OFFCURVE",
"575 507 CURVE",
"575 0 LINE",
"435 0 LINE",
"435 507 LINE",
"435 541 OFFCURVE",
"410 560 OFFCURVE",
"378 560 CURVE SMOOTH",
"314 560 OFFCURVE",
"256 499 OFFCURVE",
"256 431 CURVE",
"256 387 OFFCURVE",
"287 367 OFFCURVE",
"333 367 CURVE SMOOTH",
"345 367 OFFCURVE",
"360 368 OFFCURVE",
"375 371 CURVE"
);
},
{
closed = 1;
nodes = (
"165 231 LINE",
"163 222 OFFCURVE",
"160 208 OFFCURVE",
"160 184 CURVE SMOOTH",
"160 149 OFFCURVE",
"178 131 OFFCURVE",
"212 131 CURVE SMOOTH",
"255 131 OFFCURVE",
"297 165 OFFCURVE",
"360 165 CURVE SMOOTH",
"447 165 OFFCURVE",
"462 82 OFFCURVE",
"462 28 CURVE",
"435 6 LINE",
"435 26 OFFCURVE",
"427 47 OFFCURVE",
"392 47 CURVE SMOOTH",
"336 47 OFFCURVE",
"292 0 OFFCURVE",
"191 0 CURVE SMOOTH",
"91 0 OFFCURVE",
"18 48 OFFCURVE",
"18 157 CURVE SMOOTH",
"18 183 OFFCURVE",
"23 212 OFFCURVE",
"28 230 CURVE"
);
}
);
};
layerId = "731EBDE8-0F2D-4E32-814F-AAFC41A14D25";
name = Bold;
paths = (
{
closed = 1;
nodes = (
"226 680 OFFCURVE",
"122 560 OFFCURVE",
"122 428 CURVE SMOOTH",
"122 306 OFFCURVE",
"188 242 OFFCURVE",
"312 242 CURVE SMOOTH",
"332 242 OFFCURVE",
"353 244 OFFCURVE",
"375 249 CURVE",
"375 371 LINE",
"360 368 OFFCURVE",
"345 367 OFFCURVE",
"333 367 CURVE SMOOTH",
"287 367 OFFCURVE",
"262 384 OFFCURVE",
"262 428 CURVE",
"262 496 OFFCURVE",
"324 560 OFFCURVE",
"388 560 CURVE SMOOTH",
"420 560 OFFCURVE",
"435 546 OFFCURVE",
"435 503 CURVE",
"435 0 LINE",
"575 0 LINE",
"575 503 LINE",
"575 612 OFFCURVE",
"509 680 OFFCURVE",
"388 680 CURVE SMOOTH"
);
},
{
closed = 1;
nodes = (
"31 242 LINE",
"26 222 OFFCURVE",
"23 194 OFFCURVE",
"23 174 CURVE SMOOTH",
"23 49 OFFCURVE",
"121 0 OFFCURVE",
"210 0 CURVE",
"283 0 OFFCURVE",
"350 36 OFFCURVE",
"399 36 CURVE SMOOTH",
"426 36 OFFCURVE",
"435 19 OFFCURVE",
"435 0 CURVE",
"435 138 LINE",
"421 151 OFFCURVE",
"404 155 OFFCURVE",
"386 155 CURVE SMOOTH",
"342 155 OFFCURVE",
"282 126 OFFCURVE",
"232 126 CURVE",
"184 126 OFFCURVE",
"163 149 OFFCURVE",
"163 194 CURVE SMOOTH",
"163 212 OFFCURVE",
"165 232 OFFCURVE",
"167 243 CURVE"
);
}
);
width = 640;
},
{
background = {
paths = (
{
closed = 1;
nodes = (
"368 267 LINE",
"353 265 OFFCURVE",
"338 264 OFFCURVE",
"322 264 CURVE SMOOTH",
"223 264 OFFCURVE",
"160 311 OFFCURVE",
"160 412 CURVE SMOOTH",
"160 534 OFFCURVE",
"257 644 OFFCURVE",
"377 644 CURVE SMOOTH",
"470 644 OFFCURVE",
"513 593 OFFCURVE",
"513 484 CURVE",
"513 0 LINE",
"452 0 LINE",
"452 484 LINE",
"452 556 OFFCURVE",
"433 589 OFFCURVE",
"377 589 CURVE SMOOTH",
"303 589 OFFCURVE",
"221 510 OFFCURVE",
"221 412 CURVE",
"221 336 OFFCURVE",
"264 319 OFFCURVE",
"328 319 CURVE SMOOTH",
"342 319 OFFCURVE",
"355 320 OFFCURVE",
"368 322 CURVE"
);
},
{
closed = 1;
nodes = (
"127 236 LINE",
"126 222 OFFCURVE",
"125 204 OFFCURVE",
"125 189 CURVE SMOOTH",
"125 118 OFFCURVE",
"161 74 OFFCURVE",
"223 74 CURVE",
"289 74 OFFCURVE",
"353 113 OFFCURVE",
"411 113 CURVE SMOOTH",
"434 113 OFFCURVE",
"446 103 OFFCURVE",
"452 94 CURVE",
"452 31 LINE",
"452 47 OFFCURVE",
"445 59 OFFCURVE",
"424 59 CURVE SMOOTH",
"361 59 OFFCURVE",
"311 19 OFFCURVE",
"223 19 CURVE",
"126 19 OFFCURVE",
"65 83 OFFCURVE",
"65 189 CURVE SMOOTH",
"65 206 OFFCURVE",
"66 223 OFFCURVE",
"68 236 CURVE"
);
}
);
};
layerId = "D864283E-EAB4-426F-8533-332F2D658CBA";
name = Light;
paths = (
{
closed = 1;
nodes = (
"247 644 OFFCURVE",
"150 534 OFFCURVE",
"150 412 CURVE SMOOTH",
"150 311 OFFCURVE",
"213 264 OFFCURVE",
"312 264 CURVE SMOOTH",
"328 264 OFFCURVE",
"345 265 OFFCURVE",
"368 268 CURVE",
"368 321 LINE",
"345 319 OFFCURVE",
"332 319 OFFCURVE",
"318 319 CURVE SMOOTH",
"254 319 OFFCURVE",
"211 336 OFFCURVE",
"211 412 CURVE",
"211 510 OFFCURVE",
"293 589 OFFCURVE",
"372 589 CURVE SMOOTH",
"428 589 OFFCURVE",
"452 556 OFFCURVE",
"452 484 CURVE",
"452 0 LINE",
"513 0 LINE",
"513 484 LINE",
"513 593 OFFCURVE",
"465 644 OFFCURVE",
"372 644 CURVE SMOOTH"
);
},
{
closed = 1;
nodes = (
"58 236 LINE",
"56 223 OFFCURVE",
"55 206 OFFCURVE",
"55 189 CURVE SMOOTH",
"55 83 OFFCURVE",
"114 19 OFFCURVE",
"213 19 CURVE",
"296 19 OFFCURVE",
"371 59 OFFCURVE",
"412 59 CURVE SMOOTH",
"444 59 OFFCURVE",
"452 37 OFFCURVE",
"452 11 CURVE",
"452 94 LINE",
"445 102 OFFCURVE",
"430 113 OFFCURVE",
"407 113 CURVE SMOOTH",
"349 113 OFFCURVE",
"279 74 OFFCURVE",
"213 74 CURVE",
"149 74 OFFCURVE",
"115 118 OFFCURVE",
"115 189 CURVE SMOOTH",
"115 204 OFFCURVE",
"116 222 OFFCURVE",
"117 236 CURVE"
);
}
);
width = 603;
}
);
unicode = 098F;
},
{
glyphname = bnAI;
lastChange = "2015-07-03 10:49:30 +0000";
layers = (
{
background = {
paths = (
{
closed = 1;
nodes = (
"830 379 OFFCURVE",
"761 253 OFFCURVE",
"593 253 CURVE SMOOTH",
"582 253 OFFCURVE",
"571 253 OFFCURVE",
"560 255 CURVE",
"560 372 LINE",
"568 371 OFFCURVE",
"575 370 OFFCURVE",
"582 370 CURVE SMOOTH",
"672 370 OFFCURVE",
"703 427 OFFCURVE",
"703 531 CURVE",
"703 668 OFFCURVE",
"603 721 OFFCURVE",
"454 733 CURVE SMOOTH",
"332 743 LINE SMOOTH",
"234 751 OFFCURVE",
"196 762 OFFCURVE",
"141 779 CURVE",
"141 900 LINE",
"198 886 OFFCURVE",
"247 874 OFFCURVE",
"346 866 CURVE SMOOTH",
"469 856 LINE SMOOTH",
"694 838 OFFCURVE",
"830 730 OFFCURVE",
"830 531 CURVE"
);
},
{
closed = 1;
nodes = (
"375 249 LINE",
"353 244 OFFCURVE",
"332 242 OFFCURVE",
"312 242 CURVE SMOOTH",
"188 242 OFFCURVE",
"122 306 OFFCURVE",
"122 428 CURVE SMOOTH",
"122 560 OFFCURVE",
"226 680 OFFCURVE",
"388 680 CURVE SMOOTH",
"509 680 OFFCURVE",
"575 612 OFFCURVE",
"575 503 CURVE",
"575 0 LINE",
"435 0 LINE",
"435 503 LINE",
"435 546 OFFCURVE",
"420 560 OFFCURVE",
"388 560 CURVE SMOOTH",
"324 560 OFFCURVE",
"262 496 OFFCURVE",
"262 428 CURVE",
"262 384 OFFCURVE",
"287 367 OFFCURVE",
"333 367 CURVE SMOOTH",
"345 367 OFFCURVE",
"360 368 OFFCURVE",
"375 371 CURVE"
);
},
{
closed = 1;
nodes = (
"167 243 LINE",
"165 232 OFFCURVE",
"163 212 OFFCURVE",
"163 194 CURVE SMOOTH",
"163 149 OFFCURVE",
"184 126 OFFCURVE",
"232 126 CURVE",
"282 126 OFFCURVE",
"342 155 OFFCURVE",
"386 155 CURVE SMOOTH",
"404 155 OFFCURVE",
"421 151 OFFCURVE",
"435 138 CURVE",
"435 0 LINE",
"435 19 OFFCURVE",
"426 36 OFFCURVE",
"399 36 CURVE SMOOTH",
"350 36 OFFCURVE",
"283 0 OFFCURVE",
"210 0 CURVE",
"121 0 OFFCURVE",
"23 49 OFFCURVE",
"23 174 CURVE SMOOTH",
"23 194 OFFCURVE",
"26 222 OFFCURVE",
"31 242 CURVE"
);
}
);
};
layerId = "731EBDE8-0F2D-4E32-814F-AAFC41A14D25";
name = Bold;
paths = (
{
closed = 1;
nodes = (
"141 799 LINE",
"193 774 OFFCURVE",
"243 759 OFFCURVE",
"342 747 CURVE SMOOTH",
"454 733 LINE SMOOTH",
"603 714 OFFCURVE",
"703 668 OFFCURVE",
"703 531 CURVE",
"703 427 OFFCURVE",
"672 370 OFFCURVE",
"582 370 CURVE SMOOTH",
"575 370 OFFCURVE",
"568 371 OFFCURVE",
"560 372 CURVE",
"560 255 LINE",
"571 253 OFFCURVE",
"582 253 OFFCURVE",
"593 253 CURVE SMOOTH",
"761 253 OFFCURVE",
"830 379 OFFCURVE",
"830 531 CURVE",
"830 730 OFFCURVE",
"694 828 OFFCURVE",
"469 856 CURVE SMOOTH",
"356 870 LINE SMOOTH",
"266 881 OFFCURVE",
"195 900 OFFCURVE",
"141 920 CURVE"
);
},
{
closed = 1;
nodes = (
"31 242 LINE",
"26 222 OFFCURVE",
"23 194 OFFCURVE",
"23 174 CURVE SMOOTH",
"23 49 OFFCURVE",
"121 0 OFFCURVE",
"210 0 CURVE",
"283 0 OFFCURVE",
"350 36 OFFCURVE",
"399 36 CURVE SMOOTH",
"426 36 OFFCURVE",
"435 19 OFFCURVE",
"435 0 CURVE",
"435 138 LINE",
"421 151 OFFCURVE",
"404 155 OFFCURVE",
"386 155 CURVE SMOOTH",
"342 155 OFFCURVE",
"282 126 OFFCURVE",
"232 126 CURVE",
"184 126 OFFCURVE",
"163 149 OFFCURVE",
"163 194 CURVE SMOOTH",
"163 212 OFFCURVE",
"165 232 OFFCURVE",
"167 243 CURVE"
);
},
{
closed = 1;
nodes = (
"226 680 OFFCURVE",
"122 560 OFFCURVE",
"122 428 CURVE SMOOTH",
"122 306 OFFCURVE",
"188 242 OFFCURVE",
"312 242 CURVE SMOOTH",
"332 242 OFFCURVE",
"353 244 OFFCURVE",
"375 249 CURVE",
"375 371 LINE",
"360 368 OFFCURVE",
"345 367 OFFCURVE",
"333 367 CURVE SMOOTH",
"287 367 OFFCURVE",
"262 384 OFFCURVE",
"262 428 CURVE",
"262 496 OFFCURVE",
"324 560 OFFCURVE",
"388 560 CURVE SMOOTH",
"420 560 OFFCURVE",
"435 546 OFFCURVE",
"435 503 CURVE",
"435 0 LINE",
"575 0 LINE",
"575 503 LINE",
"575 612 OFFCURVE",
"509 680 OFFCURVE",
"388 680 CURVE SMOOTH"
);
}
);
width = 864;
},
{
background = {
paths = (
{
closed = 1;
nodes = (
"348 267 LINE",
"333 265 OFFCURVE",
"318 264 OFFCURVE",
"302 264 CURVE SMOOTH",
"203 264 OFFCURVE",
"140 311 OFFCURVE",
"140 412 CURVE SMOOTH",
"140 534 OFFCURVE",
"237 644 OFFCURVE",
"357 644 CURVE SMOOTH",
"450 644 OFFCURVE",
"493 593 OFFCURVE",
"493 484 CURVE",
"493 0 LINE",
"432 0 LINE",
"432 484 LINE",
"432 556 OFFCURVE",
"413 589 OFFCURVE",
"357 589 CURVE SMOOTH",
"283 589 OFFCURVE",
"201 510 OFFCURVE",
"201 412 CURVE",
"201 336 OFFCURVE",
"244 319 OFFCURVE",
"308 319 CURVE SMOOTH",
"322 319 OFFCURVE",
"335 320 OFFCURVE",
"348 322 CURVE"
);
},
{
closed = 1;
nodes = (
"149 830 LINE",
"194 813 OFFCURVE",
"247 801 OFFCURVE",
"299 796 CURVE SMOOTH",
"401 787 LINE SMOOTH",
"599 770 OFFCURVE",
"722 688 OFFCURVE",
"722 516 CURVE SMOOTH",
"722 370 OFFCURVE",
"641 276 OFFCURVE",
"523 276 CURVE SMOOTH",
"512 276 OFFCURVE",
"501 276 OFFCURVE",
"490 278 CURVE",
"490 333 LINE",
"498 332 OFFCURVE",
"505 331 OFFCURVE",
"512 331 CURVE SMOOTH",
"614 331 OFFCURVE",
"661 401 OFFCURVE",
"661 516 CURVE SMOOTH",
"661 655 OFFCURVE",
"561 719 OFFCURVE",
"393 733 CURVE SMOOTH",
"295 741 LINE SMOOTH",
"236 746 OFFCURVE",
"189 759 OFFCURVE",
"149 774 CURVE"
);
},
{
closed = 1;
nodes = (
"107 236 LINE",
"106 222 OFFCURVE",
"105 204 OFFCURVE",
"105 189 CURVE SMOOTH",
"105 118 OFFCURVE",
"141 74 OFFCURVE",
"203 74 CURVE",
"269 74 OFFCURVE",
"329 113 OFFCURVE",
"387 113 CURVE SMOOTH",
"410 113 OFFCURVE",
"425 102 OFFCURVE",
"432 94 CURVE",
"432 11 LINE",
"432 37 OFFCURVE",
"423 59 OFFCURVE",
"392 59 CURVE SMOOTH",
"351 59 OFFCURVE",
"286 19 OFFCURVE",
"203 19 CURVE",
"106 19 OFFCURVE",
"45 83 OFFCURVE",
"45 189 CURVE SMOOTH",
"45 206 OFFCURVE",
"46 223 OFFCURVE",
"48 236 CURVE"
);
}
);
};
layerId = "D864283E-EAB4-426F-8533-332F2D658CBA";
name = Light;
paths = (
{
closed = 1;
nodes = (
"149 774 LINE",
"189 759 OFFCURVE",
"236 746 OFFCURVE",
"295 741 CURVE SMOOTH",
"393 733 LINE SMOOTH",
"561 719 OFFCURVE",
"661 655 OFFCURVE",
"661 516 CURVE SMOOTH",
"661 401 OFFCURVE",
"614 331 OFFCURVE",
"512 331 CURVE SMOOTH",
"505 331 OFFCURVE",
"498 332 OFFCURVE",
"490 333 CURVE",
"490 278 LINE",
"501 276 OFFCURVE",
"512 276 OFFCURVE",
"523 276 CURVE SMOOTH",
"641 276 OFFCURVE",
"722 370 OFFCURVE",
"722 516 CURVE SMOOTH",
"722 688 OFFCURVE",
"599 770 OFFCURVE",
"401 787 CURVE SMOOTH",
"299 796 LINE SMOOTH",
"247 801 OFFCURVE",
"194 813 OFFCURVE",
"149 830 CURVE"
);
},
{
closed = 1;
nodes = (
"38 236 LINE",
"36 223 OFFCURVE",
"35 206 OFFCURVE",
"35 189 CURVE SMOOTH",
"35 83 OFFCURVE",
"94 19 OFFCURVE",
"193 19 CURVE",
"276 19 OFFCURVE",
"351 59 OFFCURVE",
"392 59 CURVE SMOOTH",
"424 59 OFFCURVE",
"432 37 OFFCURVE",
"432 11 CURVE",
"432 94 LINE",
"425 102 OFFCURVE",
"410 113 OFFCURVE",
"387 113 CURVE SMOOTH",
"329 113 OFFCURVE",
"259 74 OFFCURVE",
"193 74 CURVE",
"129 74 OFFCURVE",
"95 118 OFFCURVE",
"95 189 CURVE SMOOTH",
"95 204 OFFCURVE",
"96 222 OFFCURVE",
"97 236 CURVE"
);
},
{
closed = 1;
nodes = (
"227 644 OFFCURVE",
"130 534 OFFCURVE",
"130 412 CURVE SMOOTH",
"130 311 OFFCURVE",
"193 264 OFFCURVE",
"292 264 CURVE SMOOTH",
"308 264 OFFCURVE",
"325 265 OFFCURVE",
"348 268 CURVE",
"348 321 LINE",
"325 319 OFFCURVE",
"312 319 OFFCURVE",
"298 319 CURVE SMOOTH",
"234 319 OFFCURVE",
"191 336 OFFCURVE",
"191 412 CURVE",
"191 510 OFFCURVE",
"273 589 OFFCURVE",
"352 589 CURVE SMOOTH",
"408 589 OFFCURVE",
"432 556 OFFCURVE",
"432 484 CURVE",
"432 0 LINE",
"493 0 LINE",
"493 484 LINE",
"493 593 OFFCURVE",
"445 644 OFFCURVE",
"352 644 CURVE SMOOTH"
);
}
);
width = 762;
},
{
associatedMasterId = "731EBDE8-0F2D-4E32-814F-AAFC41A14D25";
background = {
paths = (
{
closed = 1;
nodes = (
"375 249 LINE",
"353 244 OFFCURVE",
"332 242 OFFCURVE",
"312 242 CURVE SMOOTH",
"180 242 OFFCURVE",
"116 309 OFFCURVE",
"116 431 CURVE SMOOTH",
"116 563 OFFCURVE",
"208 680 OFFCURVE",
"378 680 CURVE SMOOTH",
"481 680 OFFCURVE",
"575 616 OFFCURVE",
"575 507 CURVE",
"575 0 LINE",
"435 0 LINE",
"435 507 LINE",
"435 541 OFFCURVE",
"410 560 OFFCURVE",
"378 560 CURVE SMOOTH",
"314 560 OFFCURVE",
"256 499 OFFCURVE",
"256 431 CURVE",
"256 387 OFFCURVE",
"287 367 OFFCURVE",
"333 367 CURVE SMOOTH",
"345 367 OFFCURVE",
"360 368 OFFCURVE",
"375 371 CURVE"
);
},
{
closed = 1;
nodes = (
"165 244 LINE",
"164 234 OFFCURVE",
"164 225 OFFCURVE",
"164 216 CURVE SMOOTH",
"164 163 OFFCURVE",
"179 132 OFFCURVE",
"237 132 CURVE",
"312 132 OFFCURVE",
"388 176 OFFCURVE",
"435 133 CURVE",
"435 10 LINE",
"435 73 OFFCURVE",
"319 6 OFFCURVE",
"220 6 CURVE",
"96 6 OFFCURVE",
"26 81 OFFCURVE",
"26 199 CURVE SMOOTH",
"26 213 OFFCURVE",
"27 228 OFFCURVE",
"29 243 CURVE"
);
},
{
closed = 1;
nodes = (
"124 890 LINE",
"187 873 OFFCURVE",
"235 864 OFFCURVE",
"342 864 CURVE SMOOTH",
"465 864 LINE SMOOTH",
"712 864 OFFCURVE",
"834 730 OFFCURVE",
"834 531 CURVE SMOOTH",
"834 379 OFFCURVE",
"761 253 OFFCURVE",
"593 253 CURVE SMOOTH",
"582 253 OFFCURVE",
"571 253 OFFCURVE",
"560 255 CURVE",
"560 372 LINE",
"568 371 OFFCURVE",
"575 370 OFFCURVE",
"582 370 CURVE SMOOTH",
"674 370 OFFCURVE",
"707 427 OFFCURVE",
"707 531 CURVE SMOOTH",
"707 668 OFFCURVE",
"636 741 OFFCURVE",
"450 741 CURVE SMOOTH",
"328 741 LINE SMOOTH",
"222 741 OFFCURVE",
"186 749 OFFCURVE",
"124 771 CURVE"
);
}
);
};
layerId = "EFF5BE43-2699-46EE-84E9-57B3BCC1223F";
name = "Bold Mar 16 15, 16:02";
paths = (
{
closed = 1;
nodes = (
"375 249 LINE",
"353 244 OFFCURVE",
"332 242 OFFCURVE",
"312 242 CURVE SMOOTH",
"180 242 OFFCURVE",
"116 309 OFFCURVE",
"116 431 CURVE SMOOTH",
"116 563 OFFCURVE",
"208 680 OFFCURVE",
"378 680 CURVE SMOOTH",
"481 680 OFFCURVE",
"575 616 OFFCURVE",
"575 507 CURVE",
"575 0 LINE",
"435 0 LINE",
"435 507 LINE",
"435 541 OFFCURVE",
"410 560 OFFCURVE",
"378 560 CURVE SMOOTH",
"314 560 OFFCURVE",
"256 499 OFFCURVE",
"256 431 CURVE",
"256 387 OFFCURVE",
"287 367 OFFCURVE",
"333 367 CURVE SMOOTH",
"345 367 OFFCURVE",
"360 368 OFFCURVE",
"375 371 CURVE"
);
},
{
closed = 1;
nodes = (
"165 238 LINE",
"164 228 OFFCURVE",
"163 212 OFFCURVE",
"163 204 CURVE SMOOTH",
"163 159 OFFCURVE",
"179 126 OFFCURVE",
"237 126 CURVE",
"312 126 OFFCURVE",
"388 176 OFFCURVE",
"435 133 CURVE",
"435 10 LINE",
"435 73 OFFCURVE",
"329 0 OFFCURVE",
"210 0 CURVE",
"121 0 OFFCURVE",
"23 49 OFFCURVE",
"23 174 CURVE SMOOTH",
"23 191 OFFCURVE",
"26 217 OFFCURVE",
"29 237 CURVE"
);
},
{
closed = 1;
nodes = (
"243 931 LINE",
"242 926 OFFCURVE",
"242 921 OFFCURVE",
"242 917 CURVE SMOOTH",
"242 876 OFFCURVE",
"260 861 OFFCURVE",
"310 861 CURVE",
"445 861 LINE",
"685 861 OFFCURVE",
"820 717 OFFCURVE",
"820 528 CURVE SMOOTH",
"820 368 OFFCURVE",
"752 253 OFFCURVE",
"593 253 CURVE SMOOTH",
"582 253 OFFCURVE",
"571 253 OFFCURVE",
"560 255 CURVE",
"560 372 LINE",
"568 371 OFFCURVE",
"575 370 OFFCURVE",
"582 370 CURVE SMOOTH",
"657 370 OFFCURVE",
"693 415 OFFCURVE",
"693 528 CURVE SMOOTH",
"693 659 OFFCURVE",
"620 744 OFFCURVE",
"430 744 CURVE",
"295 744 LINE",
"180 744 OFFCURVE",
"104 785 OFFCURVE",
"104 891 CURVE SMOOTH",
"104 903 OFFCURVE",
"105 917 OFFCURVE",
"107 931 CURVE"
);
}
);
width = 864;
},
{
associatedMasterId = "731EBDE8-0F2D-4E32-814F-AAFC41A14D25";
background = {
paths = (
{
closed = 1;
nodes = (
"830 379 OFFCURVE",
"761 253 OFFCURVE",
"593 253 CURVE SMOOTH",
"582 253 OFFCURVE",
"571 253 OFFCURVE",
"560 255 CURVE",
"560 372 LINE",
"568 371 OFFCURVE",
"575 370 OFFCURVE",
"582 370 CURVE SMOOTH",
"672 370 OFFCURVE",
"703 427 OFFCURVE",
"703 531 CURVE",
"703 668 OFFCURVE",
"603 721 OFFCURVE",
"454 733 CURVE SMOOTH",
"332 743 LINE SMOOTH",
"234 751 OFFCURVE",
"196 762 OFFCURVE",
"141 779 CURVE",
"141 900 LINE",
"198 886 OFFCURVE",
"247 874 OFFCURVE",
"346 866 CURVE SMOOTH",
"469 856 LINE SMOOTH",
"694 838 OFFCURVE",
"830 730 OFFCURVE",
"830 531 CURVE"
);
},
{
closed = 1;
nodes = (
"375 249 LINE",
"353 244 OFFCURVE",
"332 242 OFFCURVE",
"312 242 CURVE SMOOTH",
"188 242 OFFCURVE",
"122 306 OFFCURVE",
"122 428 CURVE SMOOTH",
"122 560 OFFCURVE",
"226 680 OFFCURVE",
"388 680 CURVE SMOOTH",
"509 680 OFFCURVE",
"575 612 OFFCURVE",
"575 503 CURVE",
"575 0 LINE",
"435 0 LINE",
"435 503 LINE",
"435 546 OFFCURVE",
"420 560 OFFCURVE",
"388 560 CURVE SMOOTH",
"324 560 OFFCURVE",
"262 496 OFFCURVE",
"262 428 CURVE",
"262 384 OFFCURVE",
"287 367 OFFCURVE",
"333 367 CURVE SMOOTH",
"345 367 OFFCURVE",
"360 368 OFFCURVE",
"375 371 CURVE"
);
},
{
closed = 1;
nodes = (
"165 238 LINE",
"164 228 OFFCURVE",
"163 202 OFFCURVE",
"163 194 CURVE SMOOTH",
"163 149 OFFCURVE",
"184 126 OFFCURVE",
"232 126 CURVE",
"282 126 OFFCURVE",
"332 155 OFFCURVE",
"376 155 CURVE SMOOTH",
"402 155 OFFCURVE",
"421 143 OFFCURVE",
"435 130 CURVE",
"435 3 LINE",
"435 22 OFFCURVE",
"423 36 OFFCURVE",
"399 36 CURVE SMOOTH",
"360 36 OFFCURVE",
"284 0 OFFCURVE",
"201 0 CURVE",
"112 0 OFFCURVE",
"24 49 OFFCURVE",
"24 174 CURVE SMOOTH",
"24 191 OFFCURVE",
"26 217 OFFCURVE",
"29 237 CURVE"
);
}
);
};
layerId = "0F5F9881-A5E7-4C49-BFD4-59A8F719F6C7";
name = "Bold Mar 17 15, 13:20";
paths = (
{
closed = 1;
nodes = (
"375 249 LINE",
"353 244 OFFCURVE",
"332 242 OFFCURVE",
"312 242 CURVE SMOOTH",
"180 242 OFFCURVE",
"116 309 OFFCURVE",
"116 431 CURVE SMOOTH",
"116 563 OFFCURVE",
"208 680 OFFCURVE",
"378 680 CURVE SMOOTH",
"481 680 OFFCURVE",
"575 616 OFFCURVE",
"575 507 CURVE",
"575 0 LINE",
"435 0 LINE",
"435 507 LINE",
"435 541 OFFCURVE",
"410 560 OFFCURVE",
"378 560 CURVE SMOOTH",
"314 560 OFFCURVE",
"256 499 OFFCURVE",
"256 431 CURVE",
"256 387 OFFCURVE",
"287 367 OFFCURVE",
"333 367 CURVE SMOOTH",
"345 367 OFFCURVE",
"360 368 OFFCURVE",
"375 371 CURVE"
);
},
{
closed = 1;
nodes = (
"165 244 LINE",
"164 234 OFFCURVE",
"164 225 OFFCURVE",
"164 216 CURVE SMOOTH",
"164 163 OFFCURVE",
"179 132 OFFCURVE",
"237 132 CURVE",
"312 132 OFFCURVE",
"388 176 OFFCURVE",
"435 133 CURVE",
"435 10 LINE",
"435 73 OFFCURVE",
"319 6 OFFCURVE",
"220 6 CURVE",
"96 6 OFFCURVE",
"26 81 OFFCURVE",
"26 199 CURVE SMOOTH",
"26 213 OFFCURVE",
"27 228 OFFCURVE",
"29 243 CURVE"
);
},
{
closed = 1;
nodes = (
"830 379 OFFCURVE",
"761 253 OFFCURVE",
"593 253 CURVE SMOOTH",
"582 253 OFFCURVE",
"571 253 OFFCURVE",
"560 255 CURVE",
"560 372 LINE",
"568 371 OFFCURVE",
"575 370 OFFCURVE",
"582 370 CURVE SMOOTH",
"672 370 OFFCURVE",
"703 427 OFFCURVE",
"703 531 CURVE",
"703 668 OFFCURVE",
"603 721 OFFCURVE",
"454 733 CURVE SMOOTH",
"332 743 LINE SMOOTH",
"234 751 OFFCURVE",
"196 762 OFFCURVE",
"141 779 CURVE",
"141 900 LINE",
"198 886 OFFCURVE",
"247 874 OFFCURVE",
"346 866 CURVE SMOOTH",
"469 856 LINE SMOOTH",
"694 838 OFFCURVE",
"830 730 OFFCURVE",
"830 531 CURVE"
);
}
);
width = 864;
}
);
unicode = 0990;
},
{
glyphname = bnO;
lastChange = "2015-07-03 10:49:30 +0000";
layers = (
{
background = {
paths = (
{
closed = 1;
nodes = (
"181 418 LINE",
"178 393 OFFCURVE",
"177 366 OFFCURVE",
"177 346 CURVE SMOOTH",
"177 204 OFFCURVE",
"247 128 OFFCURVE",
"369 128 CURVE",
"435 128 OFFCURVE",
"467 156 OFFCURVE",
"467 202 CURVE SMOOTH",
"467 244 OFFCURVE",
"440 276 OFFCURVE",
"335 276 CURVE SMOOTH",
"302 276 LINE",
"302 394 LINE",
"325 394 LINE SMOOTH",
"388 394 OFFCURVE",
"435 426 OFFCURVE",
"435 495 CURVE",
"435 539 OFFCURVE",
"414 569 OFFCURVE",
"375 569 CURVE SMOOTH",
"338 569 OFFCURVE",
"319 543 OFFCURVE",
"319 507 CURVE SMOOTH",
"319 484 OFFCURVE",
"323 466 OFFCURVE",
"327 454 CURVE",
"200 454 LINE",
"194 472 OFFCURVE",
"188 493 OFFCURVE",
"188 524 CURVE SMOOTH",
"188 616 OFFCURVE",
"256 681 OFFCURVE",
"370 681 CURVE SMOOTH",
"503 681 OFFCURVE",
"579 597 OFFCURVE",
"579 497 CURVE",
"579 410 OFFCURVE",
"527 354 OFFCURVE",
"448 340 CURVE",
"548 331 OFFCURVE",
"607 275 OFFCURVE",
"607 189 CURVE SMOOTH",
"607 67 OFFCURVE",
"498 10 OFFCURVE",
"369 10 CURVE",
"189 10 OFFCURVE",
"45 121 OFFCURVE",
"45 348 CURVE SMOOTH",
"45 368 OFFCURVE",
"46 395 OFFCURVE",
"49 418 CURVE"
);
}
);
};
layerId = "731EBDE8-0F2D-4E32-814F-AAFC41A14D25";
name = Bold;
paths = (
{
closed = 1;
nodes = (
"498 10 OFFCURVE",
"607 67 OFFCURVE",
"607 189 CURVE SMOOTH",
"607 275 OFFCURVE",
"548 331 OFFCURVE",
"448 340 CURVE",
"527 354 OFFCURVE",
"579 410 OFFCURVE",
"579 497 CURVE",
"579 607 OFFCURVE",
"493 681 OFFCURVE",
"370 681 CURVE SMOOTH",
"256 681 OFFCURVE",
"188 616 OFFCURVE",
"188 524 CURVE SMOOTH",
"188 493 OFFCURVE",
"194 472 OFFCURVE",
"200 454 CURVE",
"327 454 LINE",
"323 466 OFFCURVE",
"319 484 OFFCURVE",
"319 507 CURVE SMOOTH",
"319 543 OFFCURVE",
"338 569 OFFCURVE",
"375 569 CURVE SMOOTH",
"414 569 OFFCURVE",
"435 539 OFFCURVE",
"435 495 CURVE",
"435 426 OFFCURVE",
"388 394 OFFCURVE",
"325 394 CURVE SMOOTH",
"302 394 LINE",
"302 276 LINE",
"335 276 LINE SMOOTH",
"440 276 OFFCURVE",
"467 244 OFFCURVE",
"467 202 CURVE SMOOTH",
"467 156 OFFCURVE",
"435 128 OFFCURVE",
"369 128 CURVE",
"256 128 OFFCURVE",
"180 197 OFFCURVE",
"180 375 CURVE SMOOTH",
"180 388 OFFCURVE",
"180 403 OFFCURVE",
"181 418 CURVE",
"49 418 LINE",
"48 400 OFFCURVE",
"47 383 OFFCURVE",
"47 366 CURVE SMOOTH",
"47 114 OFFCURVE",
"200 10 OFFCURVE",
"369 10 CURVE"
);
}
);
width = 645;
},
{
background = {
paths = (
{
closed = 1;
nodes = (
"168 21 OFFCURVE",
"70 157 OFFCURVE",
"70 341 CURVE SMOOTH",
"70 364 OFFCURVE",
"72 382 OFFCURVE",
"75 403 CURVE",
"134 403 LINE",
"132 382 OFFCURVE",
"131 361 OFFCURVE",
"131 342 CURVE SMOOTH",
"131 164 OFFCURVE",
"218 75 OFFCURVE",
"340 75 CURVE",
"427 75 OFFCURVE",
"483 122 OFFCURVE",
"483 198 CURVE SMOOTH",
"483 276 OFFCURVE",
"419 307 OFFCURVE",
"332 307 CURVE SMOOTH",
"305 307 LINE",
"305 362 LINE",
"335 362 LINE SMOOTH",
"427 362 OFFCURVE",
"458 418 OFFCURVE",
"458 481 CURVE",
"458 544 OFFCURVE",
"421 589 OFFCURVE",
"363 589 CURVE SMOOTH",
"306 589 OFFCURVE",
"271 549 OFFCURVE",
"271 490 CURVE SMOOTH",
"271 464 OFFCURVE",
"274 446 OFFCURVE",
"277 429 CURVE",
"218 429 LINE",
"213 448 OFFCURVE",
"210 468 OFFCURVE",
"210 491 CURVE SMOOTH",
"210 573 OFFCURVE",
"263 644 OFFCURVE",
"363 644 CURVE SMOOTH",
"460 644 OFFCURVE",
"519 565 OFFCURVE",
"519 481 CURVE",
"519 407 OFFCURVE",
"479 354 OFFCURVE",
"423 335 CURVE",
"478 330 OFFCURVE",
"544 290 OFFCURVE",
"544 195 CURVE SMOOTH",
"544 99 OFFCURVE",
"473 21 OFFCURVE",
"340 21 CURVE"
);
}
);
};
layerId = "D864283E-EAB4-426F-8533-332F2D658CBA";
name = Light;
paths = (
{
closed = 1;
nodes = (
"473 21 OFFCURVE",
"545 99 OFFCURVE",
"545 195 CURVE SMOOTH",
"545 290 OFFCURVE",
"478 330 OFFCURVE",
"423 335 CURVE",
"479 354 OFFCURVE",
"519 414 OFFCURVE",
"519 488 CURVE",
"519 570 OFFCURVE",
"464 644 OFFCURVE",
"360 644 CURVE SMOOTH",
"255 644 OFFCURVE",
"203 573 OFFCURVE",
"203 491 CURVE SMOOTH",
"203 468 OFFCURVE",
"206 448 OFFCURVE",
"211 429 CURVE",
"270 429 LINE",
"267 446 OFFCURVE",
"264 464 OFFCURVE",
"264 490 CURVE SMOOTH",
"264 549 OFFCURVE",
"298 589 OFFCURVE",
"360 589 CURVE SMOOTH",
"425 589 OFFCURVE",
"458 547 OFFCURVE",
"458 488 CURVE",
"458 425 OFFCURVE",
"427 362 OFFCURVE",
"335 362 CURVE SMOOTH",
"305 362 LINE",
"305 307 LINE",
"332 307 LINE SMOOTH",
"419 307 OFFCURVE",
"484 278 OFFCURVE",
"483 198 CURVE SMOOTH",
"482 122 OFFCURVE",
"427 75 OFFCURVE",
"340 75 CURVE",
"218 75 OFFCURVE",
"131 164 OFFCURVE",
"131 342 CURVE SMOOTH",
"131 361 OFFCURVE",
"132 382 OFFCURVE",
"134 403 CURVE",
"75 403 LINE",
"72 382 OFFCURVE",
"70 364 OFFCURVE",
"70 341 CURVE SMOOTH",
"70 157 OFFCURVE",
"168 21 OFFCURVE",
"340 21 CURVE"
);
}
);
width = 600;
},
{
associatedMasterId = "D864283E-EAB4-426F-8533-332F2D658CBA";
background = {
paths = (
{
closed = 1;
nodes = (
"168 21 OFFCURVE",
"70 157 OFFCURVE",
"70 341 CURVE SMOOTH",
"70 364 OFFCURVE",
"72 382 OFFCURVE",
"75 403 CURVE",
"134 403 LINE",
"132 382 OFFCURVE",
"131 361 OFFCURVE",
"131 342 CURVE SMOOTH",
"131 164 OFFCURVE",
"218 75 OFFCURVE",
"340 75 CURVE",
"427 75 OFFCURVE",
"483 122 OFFCURVE",
"483 198 CURVE SMOOTH",
"483 276 OFFCURVE",
"419 307 OFFCURVE",
"332 307 CURVE SMOOTH",
"305 307 LINE",
"305 362 LINE",
"335 362 LINE SMOOTH",
"427 362 OFFCURVE",
"458 418 OFFCURVE",
"458 481 CURVE",
"458 544 OFFCURVE",
"421 589 OFFCURVE",
"363 589 CURVE SMOOTH",
"306 589 OFFCURVE",
"271 549 OFFCURVE",
"271 490 CURVE SMOOTH",
"271 464 OFFCURVE",
"274 446 OFFCURVE",
"277 429 CURVE",
"218 429 LINE",
"213 448 OFFCURVE",
"210 468 OFFCURVE",
"210 491 CURVE SMOOTH",
"210 573 OFFCURVE",
"263 644 OFFCURVE",
"363 644 CURVE SMOOTH",
"460 644 OFFCURVE",
"519 565 OFFCURVE",
"519 481 CURVE",
"519 407 OFFCURVE",
"479 354 OFFCURVE",
"423 335 CURVE",
"478 330 OFFCURVE",
"544 290 OFFCURVE",
"544 195 CURVE SMOOTH",
"544 99 OFFCURVE",
"473 21 OFFCURVE",
"340 21 CURVE"
);
}
);
};
layerId = "D14FFCC2-8405-4C46-8BEC-7CD67EDCC220";
name = "Light Mar 17 15, 13:21";
paths = (
{
closed = 1;
nodes = (
"499 21 OFFCURVE",
"573 97 OFFCURVE",
"573 195 CURVE SMOOTH",
"573 290 OFFCURVE",
"498 340 OFFCURVE",
"443 345 CURVE",
"499 364 OFFCURVE",
"539 412 OFFCURVE",
"539 486 CURVE",
"539 570 OFFCURVE",
"479 644 OFFCURVE",
"382 644 CURVE SMOOTH",
"282 644 OFFCURVE",
"235 570 OFFCURVE",
"235 491 CURVE SMOOTH",
"235 468 OFFCURVE",
"238 448 OFFCURVE",
"243 429 CURVE",
"302 429 LINE",
"299 446 OFFCURVE",
"296 464 OFFCURVE",
"296 490 CURVE SMOOTH",
"296 546 OFFCURVE",
"325 589 OFFCURVE",
"382 589 CURVE SMOOTH",
"440 589 OFFCURVE",
"478 549 OFFCURVE",
"478 486 CURVE",
"478 423 OFFCURVE",
"447 372 OFFCURVE",
"355 372 CURVE SMOOTH",
"325 372 LINE",
"325 317 LINE",
"352 317 LINE SMOOTH",
"439 317 OFFCURVE",
"511 276 OFFCURVE",
"511 198 CURVE SMOOTH",
"511 112 OFFCURVE",
"443 75 OFFCURVE",
"356 75 CURVE",
"226 75 OFFCURVE",
"147 162 OFFCURVE",
"147 310 CURVE SMOOTH",
"147 337 OFFCURVE",
"149 370 OFFCURVE",
"154 403 CURVE",
"94 403 LINE",
"89 372 OFFCURVE",
"86 339 OFFCURVE",
"86 312 CURVE SMOOTH",
"86 147 OFFCURVE",
"176 21 OFFCURVE",
"356 21 CURVE"
);
}
);
width = 600;
}
);
unicode = 0993;
},
{
glyphname = bnAU;
lastChange = "2015-07-03 10:49:30 +0000";
layers = (
{
background = {
paths = (
{
closed = 1;
nodes = (
"181 418 LINE",
"180 403 OFFCURVE",
"180 388 OFFCURVE",
"180 375 CURVE SMOOTH",
"180 197 OFFCURVE",
"256 128 OFFCURVE",
"369 128 CURVE",
"435 128 OFFCURVE",
"467 156 OFFCURVE",
"467 202 CURVE SMOOTH",
"467 244 OFFCURVE",
"440 276 OFFCURVE",
"335 276 CURVE SMOOTH",
"302 276 LINE",
"302 394 LINE",
"325 394 LINE SMOOTH",
"388 394 OFFCURVE",
"435 426 OFFCURVE",
"435 495 CURVE",
"435 539 OFFCURVE",
"414 569 OFFCURVE",
"375 569 CURVE SMOOTH",
"338 569 OFFCURVE",
"319 543 OFFCURVE",
"319 507 CURVE SMOOTH",
"319 484 OFFCURVE",
"323 466 OFFCURVE",
"327 454 CURVE",
"200 454 LINE",
"194 472 OFFCURVE",
"188 493 OFFCURVE",
"188 524 CURVE SMOOTH",
"188 616 OFFCURVE",
"256 681 OFFCURVE",
"370 681 CURVE SMOOTH",
"503 681 OFFCURVE",
"579 597 OFFCURVE",
"579 497 CURVE",
"579 410 OFFCURVE",
"527 354 OFFCURVE",
"448 340 CURVE",
"548 331 OFFCURVE",
"607 275 OFFCURVE",
"607 189 CURVE SMOOTH",
"607 67 OFFCURVE",
"498 10 OFFCURVE",
"369 10 CURVE",
"200 10 OFFCURVE",
"47 114 OFFCURVE",
"47 366 CURVE SMOOTH",
"47 383 OFFCURVE",
"48 400 OFFCURVE",
"49 418 CURVE"
);
},
{
closed = 1;
nodes = (
"117 903 LINE",
"174 889 OFFCURVE",
"223 877 OFFCURVE",
"322 869 CURVE SMOOTH",
"445 859 LINE SMOOTH",
"670 841 OFFCURVE",
"806 740 OFFCURVE",
"806 541 CURVE SMOOTH",
"806 351 OFFCURVE",
"670 238 OFFCURVE",
"502 238 CURVE SMOOTH",
"491 238 OFFCURVE",
"480 238 OFFCURVE",
"469 240 CURVE",
"438 341 LINE",
"446 340 OFFCURVE",
"471 338 OFFCURVE",
"478 338 CURVE SMOOTH",
"607 338 OFFCURVE",
"679 411 OFFCURVE",
"679 541 CURVE SMOOTH",
"679 678 OFFCURVE",
"579 724 OFFCURVE",
"430 736 CURVE SMOOTH",
"308 746 LINE SMOOTH",
"210 754 OFFCURVE",
"172 765 OFFCURVE",
"117 782 CURVE"
);
}
);
};
layerId = "731EBDE8-0F2D-4E32-814F-AAFC41A14D25";
name = Bold;
paths = (
{
closed = 1;
nodes = (
"670 238 OFFCURVE",
"806 351 OFFCURVE",
"806 541 CURVE SMOOTH",
"806 740 OFFCURVE",
"670 841 OFFCURVE",
"445 859 CURVE",
"332 873 LINE SMOOTH",
"242 884 OFFCURVE",
"171 903 OFFCURVE",
"117 923 CURVE",
"117 802 LINE",
"169 777 OFFCURVE",
"219 762 OFFCURVE",
"318 750 CURVE SMOOTH",
"430 736 LINE",
"579 724 OFFCURVE",
"679 678 OFFCURVE",
"679 541 CURVE SMOOTH",
"679 411 OFFCURVE",
"607 338 OFFCURVE",
"478 338 CURVE SMOOTH",
"471 338 OFFCURVE",
"446 340 OFFCURVE",
"438 341 CURVE",
"469 240 LINE",
"480 238 OFFCURVE",
"491 238 OFFCURVE",
"502 238 CURVE SMOOTH"
);
},
{
closed = 1;
nodes = (
"498 10 OFFCURVE",
"607 67 OFFCURVE",
"607 189 CURVE SMOOTH",
"607 275 OFFCURVE",
"548 331 OFFCURVE",
"448 340 CURVE",
"527 354 OFFCURVE",
"579 410 OFFCURVE",
"579 497 CURVE",
"579 597 OFFCURVE",
"503 681 OFFCURVE",
"370 681 CURVE SMOOTH",
"256 681 OFFCURVE",
"188 616 OFFCURVE",
"188 524 CURVE SMOOTH",
"188 493 OFFCURVE",
"194 472 OFFCURVE",
"200 454 CURVE",
"327 454 LINE",
"323 466 OFFCURVE",
"319 484 OFFCURVE",
"319 507 CURVE SMOOTH",
"319 543 OFFCURVE",
"338 569 OFFCURVE",
"375 569 CURVE SMOOTH",
"414 569 OFFCURVE",
"435 539 OFFCURVE",
"435 495 CURVE",
"435 426 OFFCURVE",
"388 394 OFFCURVE",
"325 394 CURVE SMOOTH",
"302 394 LINE",
"302 276 LINE",
"335 276 LINE SMOOTH",
"440 276 OFFCURVE",
"467 244 OFFCURVE",
"467 202 CURVE SMOOTH",
"467 156 OFFCURVE",
"435 128 OFFCURVE",
"369 128 CURVE",
"256 128 OFFCURVE",
"180 197 OFFCURVE",
"180 375 CURVE SMOOTH",
"180 388 OFFCURVE",
"180 403 OFFCURVE",
"181 418 CURVE",
"49 418 LINE",
"48 400 OFFCURVE",
"47 383 OFFCURVE",
"47 366 CURVE SMOOTH",
"47 114 OFFCURVE",
"200 10 OFFCURVE",
"369 10 CURVE"
);
}
);
width = 857;
},
{
background = {
paths = (
{
closed = 1;
nodes = (
"158 21 OFFCURVE",
"60 157 OFFCURVE",
"60 341 CURVE SMOOTH",
"60 364 OFFCURVE",
"62 382 OFFCURVE",
"65 403 CURVE",
"124 403 LINE",
"122 382 OFFCURVE",
"121 361 OFFCURVE",
"121 342 CURVE SMOOTH",
"121 164 OFFCURVE",
"208 75 OFFCURVE",
"330 75 CURVE",
"417 75 OFFCURVE",
"472 122 OFFCURVE",
"473 198 CURVE SMOOTH",
"474 278 OFFCURVE",
"409 307 OFFCURVE",
"322 307 CURVE SMOOTH",
"295 307 LINE",
"295 362 LINE",
"325 362 LINE SMOOTH",
"417 362 OFFCURVE",
"448 423 OFFCURVE",
"448 486 CURVE",
"448 545 OFFCURVE",
"412 589 OFFCURVE",
"350 589 CURVE SMOOTH",
"288 589 OFFCURVE",
"254 549 OFFCURVE",
"254 490 CURVE SMOOTH",
"254 464 OFFCURVE",
"257 446 OFFCURVE",
"260 429 CURVE",
"201 429 LINE",
"196 448 OFFCURVE",
"193 468 OFFCURVE",
"193 491 CURVE SMOOTH",
"193 573 OFFCURVE",
"245 644 OFFCURVE",
"350 644 CURVE SMOOTH",
"453 644 OFFCURVE",
"509 566 OFFCURVE",
"509 486 CURVE",
"509 412 OFFCURVE",
"469 354 OFFCURVE",
"413 335 CURVE",
"468 330 OFFCURVE",
"535 290 OFFCURVE",
"535 195 CURVE SMOOTH",
"535 99 OFFCURVE",
"463 21 OFFCURVE",
"330 21 CURVE"
);
},
{
closed = 1;
nodes = (
"115 830 LINE",
"160 813 OFFCURVE",
"213 801 OFFCURVE",
"265 796 CURVE SMOOTH",
"367 787 LINE SMOOTH",
"565 770 OFFCURVE",
"709 689 OFFCURVE",
"709 517 CURVE SMOOTH",
"709 371 OFFCURVE",
"606 278 OFFCURVE",
"484 278 CURVE SMOOTH",
"473 278 OFFCURVE",
"462 278 OFFCURVE",
"451 280 CURVE",
"404 336 LINE",
"412 335 OFFCURVE",
"447 331 OFFCURVE",
"472 331 CURVE SMOOTH",
"578 331 OFFCURVE",
"648 402 OFFCURVE",
"648 517 CURVE SMOOTH",
"648 656 OFFCURVE",
"527 719 OFFCURVE",
"359 733 CURVE SMOOTH",
"261 741 LINE SMOOTH",
"202 746 OFFCURVE",
"155 759 OFFCURVE",
"115 774 CURVE"
);
}
);
};
layerId = "D864283E-EAB4-426F-8533-332F2D658CBA";
name = Light;
paths = (
{
closed = 1;
nodes = (
"606 278 OFFCURVE",
"709 371 OFFCURVE",
"709 517 CURVE SMOOTH",
"709 689 OFFCURVE",
"565 770 OFFCURVE",
"367 787 CURVE SMOOTH",
"265 796 LINE SMOOTH",
"213 801 OFFCURVE",
"160 813 OFFCURVE",
"115 830 CURVE",
"115 774 LINE",
"155 759 OFFCURVE",
"202 746 OFFCURVE",
"261 741 CURVE SMOOTH",
"359 733 LINE SMOOTH",
"527 719 OFFCURVE",
"648 656 OFFCURVE",
"648 517 CURVE SMOOTH",
"648 402 OFFCURVE",
"578 331 OFFCURVE",
"472 331 CURVE SMOOTH",
"447 331 OFFCURVE",
"412 335 OFFCURVE",
"404 336 CURVE",
"451 280 LINE",
"462 278 OFFCURVE",
"473 278 OFFCURVE",
"484 278 CURVE SMOOTH"
);
},
{
closed = 1;
nodes = (
"463 21 OFFCURVE",
"535 99 OFFCURVE",
"535 195 CURVE SMOOTH",
"535 290 OFFCURVE",
"468 330 OFFCURVE",
"413 335 CURVE",
"469 354 OFFCURVE",
"509 414 OFFCURVE",
"509 488 CURVE",
"509 570 OFFCURVE",
"454 644 OFFCURVE",
"350 644 CURVE SMOOTH",
"245 644 OFFCURVE",
"193 573 OFFCURVE",
"193 491 CURVE SMOOTH",
"193 468 OFFCURVE",
"196 448 OFFCURVE",
"201 429 CURVE",
"260 429 LINE",
"257 446 OFFCURVE",
"254 464 OFFCURVE",
"254 490 CURVE SMOOTH",
"254 549 OFFCURVE",
"288 589 OFFCURVE",
"350 589 CURVE SMOOTH",
"415 589 OFFCURVE",
"448 547 OFFCURVE",
"448 488 CURVE",
"448 425 OFFCURVE",
"417 362 OFFCURVE",
"325 362 CURVE SMOOTH",
"295 362 LINE",
"295 307 LINE",
"322 307 LINE SMOOTH",
"409 307 OFFCURVE",
"474 278 OFFCURVE",
"473 198 CURVE SMOOTH",
"472 122 OFFCURVE",
"417 75 OFFCURVE",
"330 75 CURVE",
"208 75 OFFCURVE",
"121 164 OFFCURVE",
"121 342 CURVE SMOOTH",
"121 361 OFFCURVE",
"122 382 OFFCURVE",
"124 403 CURVE",
"65 403 LINE",
"62 382 OFFCURVE",
"60 364 OFFCURVE",
"60 341 CURVE SMOOTH",
"60 157 OFFCURVE",
"158 21 OFFCURVE",
"330 21 CURVE"
);
}
);
width = 749;
},
{
associatedMasterId = "731EBDE8-0F2D-4E32-814F-AAFC41A14D25";
background = {
paths = (
{
closed = 1;
nodes = (
"181 418 LINE",
"178 393 OFFCURVE",
"177 366 OFFCURVE",
"177 346 CURVE SMOOTH",
"177 204 OFFCURVE",
"247 128 OFFCURVE",
"369 128 CURVE",
"435 128 OFFCURVE",
"467 156 OFFCURVE",
"467 202 CURVE SMOOTH",
"467 244 OFFCURVE",
"440 276 OFFCURVE",
"335 276 CURVE SMOOTH",
"302 276 LINE",
"302 394 LINE",
"325 394 LINE SMOOTH",
"388 394 OFFCURVE",
"435 426 OFFCURVE",
"435 495 CURVE",
"435 539 OFFCURVE",
"414 569 OFFCURVE",
"375 569 CURVE SMOOTH",
"338 569 OFFCURVE",
"319 543 OFFCURVE",
"319 507 CURVE SMOOTH",
"319 484 OFFCURVE",
"323 466 OFFCURVE",
"327 454 CURVE",
"200 454 LINE",
"194 472 OFFCURVE",
"188 493 OFFCURVE",
"188 524 CURVE SMOOTH",
"188 616 OFFCURVE",
"256 681 OFFCURVE",
"370 681 CURVE SMOOTH",
"503 681 OFFCURVE",
"579 597 OFFCURVE",
"579 497 CURVE",
"579 410 OFFCURVE",
"527 354 OFFCURVE",
"448 340 CURVE",
"548 331 OFFCURVE",
"607 275 OFFCURVE",
"607 189 CURVE SMOOTH",
"607 67 OFFCURVE",
"498 10 OFFCURVE",
"369 10 CURVE",
"189 10 OFFCURVE",
"45 121 OFFCURVE",
"45 348 CURVE SMOOTH",
"45 368 OFFCURVE",
"46 395 OFFCURVE",
"49 418 CURVE"
);
},
{
closed = 1;
nodes = (
"104 890 LINE",
"167 873 OFFCURVE",
"215 864 OFFCURVE",
"322 864 CURVE SMOOTH",
"445 864 LINE SMOOTH",
"672 864 OFFCURVE",
"806 740 OFFCURVE",
"806 541 CURVE SMOOTH",
"806 341 OFFCURVE",
"670 238 OFFCURVE",
"502 238 CURVE SMOOTH",
"491 238 OFFCURVE",
"480 238 OFFCURVE",
"469 240 CURVE",
"456 339 LINE",
"464 338 OFFCURVE",
"471 337 OFFCURVE",
"478 337 CURVE SMOOTH",
"607 337 OFFCURVE",
"679 411 OFFCURVE",
"679 541 CURVE SMOOTH",
"679 678 OFFCURVE",
"596 741 OFFCURVE",
"430 741 CURVE SMOOTH",
"308 741 LINE SMOOTH",
"202 741 OFFCURVE",
"166 749 OFFCURVE",
"104 771 CURVE"
);
}
);
};
layerId = "4C9751CD-E74B-471F-85A1-7691ED2F4FD5";
name = "Bold Mar 16 15, 11:55";
paths = (
{
closed = 1;
nodes = (
"181 418 LINE",
"178 393 OFFCURVE",
"177 366 OFFCURVE",
"177 346 CURVE SMOOTH",
"177 204 OFFCURVE",
"247 128 OFFCURVE",
"369 128 CURVE",
"435 128 OFFCURVE",
"467 156 OFFCURVE",
"467 202 CURVE SMOOTH",
"467 244 OFFCURVE",
"440 276 OFFCURVE",
"335 276 CURVE SMOOTH",
"302 276 LINE",
"302 394 LINE",
"325 394 LINE SMOOTH",
"388 394 OFFCURVE",
"435 426 OFFCURVE",
"435 495 CURVE",
"435 539 OFFCURVE",
"414 569 OFFCURVE",
"375 569 CURVE SMOOTH",
"338 569 OFFCURVE",
"319 543 OFFCURVE",
"319 507 CURVE SMOOTH",
"319 484 OFFCURVE",
"323 466 OFFCURVE",
"327 454 CURVE",
"200 454 LINE",
"194 472 OFFCURVE",
"188 493 OFFCURVE",
"188 524 CURVE SMOOTH",
"188 616 OFFCURVE",
"256 681 OFFCURVE",
"370 681 CURVE SMOOTH",
"503 681 OFFCURVE",
"579 597 OFFCURVE",
"579 497 CURVE",
"579 410 OFFCURVE",
"527 354 OFFCURVE",
"448 340 CURVE",
"548 331 OFFCURVE",
"607 275 OFFCURVE",
"607 189 CURVE SMOOTH",
"607 67 OFFCURVE",
"498 10 OFFCURVE",
"369 10 CURVE",
"189 10 OFFCURVE",
"45 121 OFFCURVE",
"45 348 CURVE SMOOTH",
"45 368 OFFCURVE",
"46 395 OFFCURVE",
"49 418 CURVE"
);
},
{
closed = 1;
nodes = (
"104 890 LINE",
"167 873 OFFCURVE",
"215 864 OFFCURVE",
"322 864 CURVE SMOOTH",
"445 864 LINE SMOOTH",
"672 864 OFFCURVE",
"806 740 OFFCURVE",
"806 541 CURVE SMOOTH",
"806 341 OFFCURVE",
"670 238 OFFCURVE",
"502 238 CURVE SMOOTH",
"491 238 OFFCURVE",
"480 238 OFFCURVE",
"469 240 CURVE",
"456 339 LINE",
"464 338 OFFCURVE",
"471 337 OFFCURVE",
"478 337 CURVE SMOOTH",
"607 337 OFFCURVE",
"679 411 OFFCURVE",
"679 541 CURVE SMOOTH",
"679 678 OFFCURVE",
"596 741 OFFCURVE",
"430 741 CURVE SMOOTH",
"308 741 LINE SMOOTH",
"202 741 OFFCURVE",
"166 749 OFFCURVE",
"104 771 CURVE"
);
}
);
width = 857;
}
);
unicode = 0994;
},
{
glyphname = bnmAA;
lastChange = "2015-07-03 10:49:30 +0000";
layers = (
{
guideLines = (
{
position = "{282, 944}";
}
);
layerId = "731EBDE8-0F2D-4E32-814F-AAFC41A14D25";
name = Bold;
paths = (
{
closed = 1;
nodes = (
"205 0 LINE",
"205 751 LINE",
"70 751 LINE",
"70 733 LINE",
"70 674 OFFCURVE",
"83 628 OFFCURVE",
"88 594 CURVE",
"65 572 LINE",
"65 0 LINE"
);
},
{
closed = 1;
nodes = (
"98 534 LINE",
"98 592 OFFCURVE",
"88 671 OFFCURVE",
"30 671 CURVE",
"-20 671 LINE",
"-20 559 LINE",
"12 559 LINE",
"54 559 OFFCURVE",
"65 551 OFFCURVE",
"65 497 CURVE"
);
},
{
closed = 1;
nodes = (
"290 559 LINE",
"290 671 LINE",
"175 671 LINE",
"175 559 LINE"
);
}
);
width = 270;
},
{
layerId = "D864283E-EAB4-426F-8533-332F2D658CBA";
name = Light;
paths = (
{
closed = 1;
nodes = (
"161 0 LINE",
"161 719 LINE",
"100 719 LINE",
"100 686 LINE SMOOTH",
"100 640 OFFCURVE",
"105 602 OFFCURVE",
"112 562 CURVE",
"100 550 LINE",
"100 0 LINE"
);
},
{
closed = 1;
nodes = (
"125 506 LINE",
"125 574 OFFCURVE",
"101 634 OFFCURVE",
"33 634 CURVE",
"-20 634 LINE",
"-20 579 LINE",
"33 579 LINE",
"88 579 OFFCURVE",
"100 538 OFFCURVE",
"100 493 CURVE"
);
},
{
closed = 1;
nodes = (
"281 579 LINE",
"281 634 LINE",
"142 634 LINE",
"142 579 LINE"
);
}
);
width = 261;
}
);
unicode = 09BE;
},
{
glyphname = bnmI;
lastChange = "2015-07-03 10:49:30 +0000";
layers = (
{
layerId = "731EBDE8-0F2D-4E32-814F-AAFC41A14D25";
name = Bold;
paths = (
{
closed = 1;
nodes = (
"206 668 LINE",
"206 714 LINE SMOOTH",
"206 782 OFFCURVE",
"248 811 OFFCURVE",
"332 811 CURVE SMOOTH",
"424 811 OFFCURVE",
"537 784 OFFCURVE",
"586 766 CURVE",
"586 872 LINE",
"542 891 OFFCURVE",
"426 923 OFFCURVE",
"321 923 CURVE SMOOTH",
"169 923 OFFCURVE",
"65 860 OFFCURVE",
"65 713 CURVE SMOOTH",
"65 668 LINE"
);
},
{
closed = 1;
nodes = (
"205 0 LINE",
"205 586 LINE",
"65 586 LINE",
"65 0 LINE"
);
},
{
closed = 1;
nodes = (
"290 559 LINE",
"290 671 LINE",
"-20 671 LINE",
"-20 559 LINE"
);
}
);
width = 270;
},
{
layerId = "D864283E-EAB4-426F-8533-332F2D658CBA";
name = Light;
paths = (
{
closed = 1;
nodes = (
"161 631 LINE",
"161 664 LINE SMOOTH",
"161 752 OFFCURVE",
"188 813 OFFCURVE",
"320 813 CURVE SMOOTH",
"400 813 OFFCURVE",
"498 798 OFFCURVE",
"583 771 CURVE",
"583 826 LINE",
"490 853 OFFCURVE",
"404 868 OFFCURVE",
"320 868 CURVE SMOOTH",
"148 868 OFFCURVE",
"100 783 OFFCURVE",
"100 665 CURVE SMOOTH",
"100 631 LINE"
);
},
{
closed = 1;
nodes = (
"161 0 LINE",
"161 595 LINE",
"100 595 LINE",
"100 0 LINE"
);
},
{
closed = 1;
nodes = (
"281 579 LINE",
"281 634 LINE",
"-20 634 LINE",
"-20 579 LINE"
);
}
);
width = 261;
}
);
unicode = 09BF;
},
{
glyphname = bnmII;
lastChange = "2015-07-03 10:49:30 +0000";
layers = (
{
layerId = "731EBDE8-0F2D-4E32-814F-AAFC41A14D25";
name = Bold;
paths = (
{
closed = 1;
nodes = (
"205 616 LINE",
"205 697 LINE",
"205 850 OFFCURVE",
"53 991 OFFCURVE",
"-179 991 CURVE SMOOTH",
"-314 991 OFFCURVE",
"-409 934 OFFCURVE",
"-409 844 CURVE SMOOTH",
"-409 750 OFFCURVE",
"-326 708 OFFCURVE",
"-192 708 CURVE SMOOTH",
"-164 708 OFFCURVE",
"-91 713 OFFCURVE",
"-65 721 CURVE",
"-65 808 LINE",
"-92 804 OFFCURVE",
"-135 801 OFFCURVE",
"-160 801 CURVE SMOOTH",
"-232 801 OFFCURVE",
"-279 809 OFFCURVE",
"-279 844 CURVE SMOOTH",
"-279 876 OFFCURVE",
"-236 887 OFFCURVE",
"-179 887 CURVE SMOOTH",
"-21 887 OFFCURVE",
"65 810 OFFCURVE",
"65 698 CURVE",
"65 616 LINE"
);
},
{
closed = 1;
nodes = (
"205 0 LINE",
"205 591 LINE",
"65 591 LINE",
"65 0 LINE"
);
},
{
closed = 1;
nodes = (
"290 559 LINE",
"290 671 LINE",
"-19 671 LINE",
"-19 559 LINE"
);
}
);
width = 270;
},
{
layerId = "D864283E-EAB4-426F-8533-332F2D658CBA";
name = Light;
paths = (
{
closed = 1;
nodes = (
"161 631 LINE",
"161 658 LINE",
"161 819 OFFCURVE",
"-8 924 OFFCURVE",
"-195 924 CURVE SMOOTH",
"-308 924 OFFCURVE",
"-384 885 OFFCURVE",
"-384 811 CURVE SMOOTH",
"-384 731 OFFCURVE",
"-303 700 OFFCURVE",
"-198 700 CURVE SMOOTH",
"-170 700 OFFCURVE",
"-126 703 OFFCURVE",
"-100 707 CURVE",
"-100 758 LINE",
"-127 756 OFFCURVE",
"-170 754 OFFCURVE",
"-195 754 CURVE SMOOTH",
"-267 754 OFFCURVE",
"-323 766 OFFCURVE",
"-323 811 CURVE SMOOTH",
"-323 855 OFFCURVE",
"-262 869 OFFCURVE",
"-195 869 CURVE SMOOTH",
"-37 869 OFFCURVE",
"100 801 OFFCURVE",
"100 659 CURVE",
"100 631 LINE"
);
},
{
closed = 1;
nodes = (
"161 0 LINE",
"161 600 LINE",
"100 600 LINE",
"100 0 LINE"
);
},
{
closed = 1;
nodes = (
"281 579 LINE",
"281 634 LINE",
"-20 634 LINE",
"-20 579 LINE"
);
}
);
width = 261;
}
);
unicode = 09C0;
},
{
glyphname = bnmU;
lastChange = "2015-07-03 10:49:30 +0000";
layers = (
{
anchors = (
{
name = _blwm.u;
position = "{-136, 0}";
},
{
name = abvm.chandrabindu;
position = "{-137, 751}";
},
{
name = abvm.reph;
position = "{-140, 711}";
}
);
background = {
paths = (
{
closed = 1;
nodes = (
"-334 270 OFFCURVE",
"-321 272 OFFCURVE",
"-296 277 CURVE",
"-296 399 LINE",
"-314 396 OFFCURVE",
"-323 395 OFFCURVE",
"-345 395 CURVE SMOOTH",
"-392 395 OFFCURVE",
"-430 417 OFFCURVE",
"-430 474 CURVE SMOOTH",
"-430 525 OFFCURVE",
"-396 561 OFFCURVE",
"-338 561 CURVE",
"-249 561 OFFCURVE",
"-207 495 OFFCURVE",
"-207 409 CURVE",
"-207 373 LINE",
"-163 373 LINE",
"-163 401 LINE",
"-163 564 OFFCURVE",
"-211 681 OFFCURVE",
"-369 681 CURVE",
"-485 681 OFFCURVE",
"-570 598 OFFCURVE",
"-570 474 CURVE SMOOTH",
"-570 341 OFFCURVE",
"-487 270 OFFCURVE",
"-362 270 CURVE SMOOTH"
);
},
{
closed = 1;
nodes = (
"-67 0 LINE",
"-67 751 LINE",
"-207 751 LINE",
"-207 0 LINE"
);
},
{
closed = 1;
nodes = (
"18 559 LINE",
"18 671 LINE",
"-207 671 LINE",
"-207 559 LINE"
);
}
);
};
layerId = "731EBDE8-0F2D-4E32-814F-AAFC41A14D25";
name = Bold;
paths = (
{
closed = 1;
nodes = (
"-34 -265 OFFCURVE",
"0 -163 OFFCURVE",
"0 -61 CURVE",
"-97 -61 LINE",
"-94 -128 OFFCURVE",
"-108 -172 OFFCURVE",
"-153 -172 CURVE SMOOTH",
"-180 -172 OFFCURVE",
"-200 -157 OFFCURVE",
"-200 -129 CURVE SMOOTH",
"-200 -104 OFFCURVE",
"-183 -87 OFFCURVE",
"-151 -87 CURVE SMOOTH",
"-61 -87 OFFCURVE",
"53 -185 OFFCURVE",
"112 -248 CURVE",
"112 -118 LINE",
"57 -59 OFFCURVE",
"-41 13 OFFCURVE",
"-153 13 CURVE SMOOTH",
"-252 13 OFFCURVE",
"-314 -45 OFFCURVE",
"-314 -130 CURVE SMOOTH",
"-314 -213 OFFCURVE",
"-246 -265 OFFCURVE",
"-155 -265 CURVE SMOOTH"
);
}
);
width = 0;
},
{
anchors = (
{
name = _blwm.u;
position = "{-131, 0}";
},
{
name = abvm.chandrabindu;
position = "{-131, 719}";
},
{
name = abvm.reph;
position = "{-132, 667}";
}
);
background = {
paths = (
{
closed = 1;
nodes = (
"-105 -230 OFFCURVE",
"-41 -141 OFFCURVE",
"-41 -51 CURVE",
"-91 -49 LINE",
"-91 -111 OFFCURVE",
"-135 -182 OFFCURVE",
"-207 -182 CURVE SMOOTH",
"-257 -182 OFFCURVE",
"-294 -154 OFFCURVE",
"-294 -108 CURVE SMOOTH",
"-294 -56 OFFCURVE",
"-255 -30 OFFCURVE",
"-201 -30 CURVE SMOOTH",
"-96 -30 OFFCURVE",
"-10 -98 OFFCURVE",
"85 -185 CURVE",
"85 -124 LINE",
"9 -44 OFFCURVE",
"-89 18 OFFCURVE",
"-201 18 CURVE SMOOTH",
"-279 18 OFFCURVE",
"-348 -24 OFFCURVE",
"-348 -108 CURVE SMOOTH",
"-348 -182 OFFCURVE",
"-290 -230 OFFCURVE",
"-207 -230 CURVE SMOOTH"
);
},
{
closed = 1;
nodes = (
"-294 295 OFFCURVE",
"-270 297 OFFCURVE",
"-248 303 CURVE",
"-248 356 LINE",
"-271 352 OFFCURVE",
"-290 350 OFFCURVE",
"-313 350 CURVE SMOOTH",
"-386 350 OFFCURVE",
"-433 390 OFFCURVE",
"-433 471 CURVE SMOOTH",
"-433 546 OFFCURVE",
"-383 592 OFFCURVE",
"-311 592 CURVE SMOOTH",
"-199 592 OFFCURVE",
"-162 500 OFFCURVE",
"-162 433 CURVE",
"-162 375 LINE",
"-121 375 LINE",
"-121 432 LINE",
"-121 524 OFFCURVE",
"-162 644 OFFCURVE",
"-311 644 CURVE SMOOTH",
"-424 644 OFFCURVE",
"-495 566 OFFCURVE",
"-495 471 CURVE SMOOTH",
"-495 363 OFFCURVE",
"-422 295 OFFCURVE",
"-317 295 CURVE SMOOTH"
);
},
{
closed = 1;
nodes = (
"-101 0 LINE",
"-101 719 LINE",
"-162 719 LINE",
"-162 0 LINE"
);
},
{
closed = 1;
nodes = (
"19 579 LINE",
"19 634 LINE",
"-120 634 LINE",
"-120 579 LINE"
);
}
);
};
layerId = "D864283E-EAB4-426F-8533-332F2D658CBA";
name = Light;
paths = (
{
closed = 1;
nodes = (
"-67 -225 OFFCURVE",
"-12 -143 OFFCURVE",
"-10 -50 CURVE",
"-60 -50 LINE",
"-63 -106 OFFCURVE",
"-90 -176 OFFCURVE",
"-154 -176 CURVE SMOOTH",
"-199 -176 OFFCURVE",
"-226 -149 OFFCURVE",
"-226 -109 CURVE SMOOTH",
"-226 -62 OFFCURVE",
"-191 -41 OFFCURVE",
"-143 -41 CURVE SMOOTH",
"-35 -41 OFFCURVE",
"71 -162 OFFCURVE",
"111 -213 CURVE",
"111 -140 LINE",
"58 -74 OFFCURVE",
"-33 8 OFFCURVE",
"-142 8 CURVE SMOOTH",
"-223 8 OFFCURVE",
"-282 -34 OFFCURVE",
"-282 -109 CURVE SMOOTH",
"-282 -177 OFFCURVE",
"-227 -225 OFFCURVE",
"-154 -225 CURVE SMOOTH"
);
}
);
width = 0;
}
);
unicode = 09C1;
},
{
glyphname = bnmUU;
lastChange = "2015-07-03 10:49:30 +0000";
layers = (
{
anchors = (
{
name = _blwm.u;
position = "{-136, 0}";
}
);
background = {
paths = (
{
closed = 1;
nodes = (
"-249 13 OFFCURVE",
"-320 -45 OFFCURVE",
"-320 -137 CURVE SMOOTH",
"-320 -227 OFFCURVE",
"-238 -278 OFFCURVE",
"-143 -278 CURVE SMOOTH",
"-69 -278 OFFCURVE",
"-13 -238 OFFCURVE",
"9 -206 CURVE",
"-19 -209 LINE",
"107 -283 LINE",
"107 -175 LINE",
"-18 -100 LINE",
"-43 -140 OFFCURVE",
"-78 -187 OFFCURVE",
"-138 -187 CURVE SMOOTH",
"-180 -187 OFFCURVE",
"-206 -169 OFFCURVE",
"-206 -137 CURVE SMOOTH",
"-206 -95 OFFCURVE",
"-171 -83 OFFCURVE",
"-133 -83 CURVE SMOOTH",
"-114 -83 OFFCURVE",
"-88 -88 OFFCURVE",
"-68 -95 CURVE",
"-68 2 LINE",
"-95 9 OFFCURVE",
"-126 13 OFFCURVE",
"-153 13 CURVE SMOOTH"
);
}
);
};
layerId = "731EBDE8-0F2D-4E32-814F-AAFC41A14D25";
name = Bold;
paths = (
{
closed = 1;
nodes = (
"-240 12 OFFCURVE",
"-303 -44 OFFCURVE",
"-303 -133 CURVE SMOOTH",
"-303 -219 OFFCURVE",
"-230 -268 OFFCURVE",
"-139 -268 CURVE SMOOTH",
"-67 -268 OFFCURVE",
"-14 -230 OFFCURVE",
"8 -199 CURVE",
"-19 -202 LINE",
"102 -273 LINE",
"102 -169 LINE",
"-18 -97 LINE",
"-42 -136 OFFCURVE",
"-76 -181 OFFCURVE",
"-134 -181 CURVE SMOOTH",
"-174 -181 OFFCURVE",
"-199 -163 OFFCURVE",
"-199 -133 CURVE SMOOTH",
"-199 -92 OFFCURVE",
"-165 -81 OFFCURVE",
"-129 -81 CURVE SMOOTH",
"-111 -81 OFFCURVE",
"-86 -86 OFFCURVE",
"-66 -92 CURVE",
"-66 1 LINE",
"-92 8 OFFCURVE",
"-122 12 OFFCURVE",
"-148 12 CURVE SMOOTH"
);
}
);
width = 0;
},
{
anchors = (
{
name = _blwm.u;
position = "{-131, 0}";
}
);
background = {
paths = (
{
closed = 1;
nodes = (
"44 -219 LINE",
"-75 -141 LINE",
"-47 -129 LINE",
"-77 -178 OFFCURVE",
"-121 -228 OFFCURVE",
"-209 -228 CURVE SMOOTH",
"-291 -228 OFFCURVE",
"-347 -173 OFFCURVE",
"-347 -106 CURVE SMOOTH",
"-347 -28 OFFCURVE",
"-285 20 OFFCURVE",
"-198 20 CURVE SMOOTH",
"-163 20 OFFCURVE",
"-123 12 OFFCURVE",
"-100 3 CURVE",
"-100 -47 LINE",
"-126 -37 OFFCURVE",
"-161 -28 OFFCURVE",
"-198 -28 CURVE SMOOTH",
"-253 -28 OFFCURVE",
"-293 -54 OFFCURVE",
"-293 -106 CURVE SMOOTH",
"-293 -151 OFFCURVE",
"-260 -180 OFFCURVE",
"-209 -180 CURVE SMOOTH",
"-143 -180 OFFCURVE",
"-106 -134 OFFCURVE",
"-75 -80 CURVE",
"44 -162 LINE"
);
}
);
};
layerId = "D864283E-EAB4-426F-8533-332F2D658CBA";
name = Light;
paths = (
{
closed = 1;
nodes = (
"-285 20 OFFCURVE",
"-347 -28 OFFCURVE",
"-347 -106 CURVE SMOOTH",
"-347 -173 OFFCURVE",
"-291 -228 OFFCURVE",
"-209 -228 CURVE SMOOTH",
"-121 -228 OFFCURVE",
"-77 -178 OFFCURVE",
"-47 -129 CURVE",
"-75 -141 LINE",
"44 -219 LINE",
"44 -162 LINE",
"-75 -80 LINE",
"-106 -134 OFFCURVE",
"-143 -180 OFFCURVE",
"-209 -180 CURVE SMOOTH",
"-260 -180 OFFCURVE",
"-293 -151 OFFCURVE",
"-293 -106 CURVE SMOOTH",
"-293 -54 OFFCURVE",
"-253 -28 OFFCURVE",
"-198 -28 CURVE SMOOTH",
"-161 -28 OFFCURVE",
"-126 -35 OFFCURVE",
"-100 -43 CURVE",
"-100 3 LINE",
"-123 12 OFFCURVE",
"-163 20 OFFCURVE",
"-198 20 CURVE SMOOTH"
);
}
);
width = 0;
}
);
unicode = 09C2;
},
{
glyphname = bnmvR;
lastChange = "2015-07-03 10:49:30 +0000";
layers = (
{
anchors = (
{
name = _blwm.u;
position = "{-136, 0}";
}
);
background = {
paths = (
{
closed = 1;
nodes = (
"-301 -197 LINE",
"-5 -303 LINE SMOOTH",
"-5 -180 LINE SMOOTH",
"-162 -122 LINE",
"-65 0 LINE",
"-196 21 LINE",
"-301 -104 LINE"
);
}
);
};
layerId = "731EBDE8-0F2D-4E32-814F-AAFC41A14D25";
name = Bold;
paths = (
{
closed = 1;
nodes = (
"3 -167 LINE SMOOTH",
"-154 -109 LINE",
"-65 0 LINE",
"-196 21 LINE",
"-293 -91 LINE",
"-293 -174 LINE",
"3 -280 LINE SMOOTH"
);
}
);
width = 0;
},
{
anchors = (
{
name = _blwm.u;
position = "{-131, 0}";
}
);
layerId = "D864283E-EAB4-426F-8533-332F2D658CBA";
name = Light;
paths = (
{
closed = 1;
nodes = (
"-2 -178 LINE",
"-200 -98 LINE",
"-100 0 LINE",
"-153 22 LINE",
"-258 -80 LINE",
"-258 -131 LINE",
"-2 -232 LINE"
);
}
);
width = 0;
}
);
unicode = 09C3;
},
{
glyphname = bnmvRR;
lastChange = "2015-07-03 10:49:30 +0000";
layers = (
{
anchors = (
{
name = _blwm.u;
position = "{-136, 0}";
}
);
components = (
{
disableAlignment = 1;
name = bnmvR;
}
);
layerId = "731EBDE8-0F2D-4E32-814F-AAFC41A14D25";
name = Bold;
paths = (
{
closed = 1;
nodes = (
"-25 -359 LINE SMOOTH",
"-152 -312 LINE",
"-55 -190 LINE",
"-176 -169 LINE",
"-281 -294 LINE",
"-281 -377 LINE",
"-25 -471 LINE SMOOTH"
);
}
);
width = 0;
},
{
anchors = (
{
name = _blwm.u;
position = "{-131, 0}";
}
);
components = (
{
name = bnmvR;
}
);
layerId = "D864283E-EAB4-426F-8533-332F2D658CBA";
name = Light;
paths = (
{
closed = 1;
nodes = (
"-41 -298 LINE",
"-190 -238 LINE",
"-117 -166 LINE",
"-170 -144 LINE",
"-248 -220 LINE",
"-248 -271 LINE",
"-41 -352 LINE"
);
}
);
width = 0;
}
);
unicode = 09C4;
},
{
glyphname = bnmE;
lastChange = "2015-07-03 10:49:30 +0000";
layers = (
{
background = {
paths = (
{
closed = 1;
nodes = (
"273 -10 OFFCURVE",
"283 -9 OFFCURVE",
"294 -7 CURVE",
"294 114 LINE",
"287 113 OFFCURVE",
"278 113 OFFCURVE",
"271 113 CURVE SMOOTH",
"212 113 OFFCURVE",
"180 162 OFFCURVE",
"180 277 CURVE",
"180 395 OFFCURVE",
"202 559 OFFCURVE",
"326 559 CURVE",
"326 636 LINE",
"132 636 OFFCURVE",
"45 498 OFFCURVE",
"45 277 CURVE",
"47 128 OFFCURVE",
"105 -10 OFFCURVE",
"256 -10 CURVE SMOOTH"
);
},
{
closed = 1;
nodes = (
"329 559 LINE",
"329 671 LINE",
"-20 671 LINE",
"-20 559 LINE"
);
}
);
};
layerId = "731EBDE8-0F2D-4E32-814F-AAFC41A14D25";
name = Bold;
paths = (
{
closed = 1;
nodes = (
"273 -10 OFFCURVE",
"283 -9 OFFCURVE",
"294 -7 CURVE",
"294 114 LINE",
"287 113 OFFCURVE",
"278 113 OFFCURVE",
"271 113 CURVE SMOOTH",
"212 113 OFFCURVE",
"180 162 OFFCURVE",
"180 277 CURVE",
"180 425 OFFCURVE",
"192 559 OFFCURVE",
"296 559 CURVE",
"286 626 LINE",
"92 626 OFFCURVE",
"45 518 OFFCURVE",
"45 277 CURVE",
"47 128 OFFCURVE",
"105 -10 OFFCURVE",
"256 -10 CURVE SMOOTH"
);
},
{
closed = 1;
nodes = (
"329 559 LINE",
"329 671 LINE",
"-20 671 LINE",
"-20 559 LINE"
);
}
);
width = 309;
},
{
layerId = "D864283E-EAB4-426F-8533-332F2D658CBA";
name = Light;
paths = (
{
closed = 1;
nodes = (
"257 -8 OFFCURVE",
"268 -8 OFFCURVE",
"275 -7 CURVE",
"275 47 LINE",
"270 47 OFFCURVE",
"261 47 OFFCURVE",
"257 47 CURVE SMOOTH",
"167 47 OFFCURVE",
"131 123 OFFCURVE",
"131 261 CURVE",
"131 408 OFFCURVE",
"168 579 OFFCURVE",
"291 579 CURVE",
"291 621 LINE",
"110 621 OFFCURVE",
"70 418 OFFCURVE",
"70 261 CURVE",
"72 113 OFFCURVE",
"118 -8 OFFCURVE",
"250 -8 CURVE SMOOTH"
);
},
{
closed = 1;
nodes = (
"301 579 LINE",
"301 634 LINE",
"-20 634 LINE",
"-20 579 LINE"
);
}
);
width = 281;
}
);
unicode = 09C7;
},
{
glyphname = bnmAI;
lastChange = "2015-07-03 10:49:30 +0000";
layers = (
{
components = (
{
name = bnmE;
}
);
layerId = "731EBDE8-0F2D-4E32-814F-AAFC41A14D25";
name = Bold;
paths = (
{
closed = 1;
nodes = (
"304 662 LINE",
"307 682 OFFCURVE",
"309 701 OFFCURVE",
"309 718 CURVE SMOOTH",
"309 816 OFFCURVE",
"253 876 OFFCURVE",
"146 876 CURVE",
"88 876 OFFCURVE",
"48 852 OFFCURVE",
"3 852 CURVE SMOOTH",
"-21 852 OFFCURVE",
"-38 855 OFFCURVE",
"-55 862 CURVE",
"-55 754 LINE",
"-37 746 OFFCURVE",
"-14 740 OFFCURVE",
"16 740 CURVE SMOOTH",
"57 740 OFFCURVE",
"103 759 OFFCURVE",
"130 759 CURVE",
"165 759 OFFCURVE",
"182 744 OFFCURVE",
"182 708 CURVE SMOOTH",
"182 700 OFFCURVE",
"181 671 OFFCURVE",
"180 661 CURVE"
);
}
);
width = 309;
},
{
components = (
{
name = bnmE;
}
);
layerId = "D864283E-EAB4-426F-8533-332F2D658CBA";
name = Light;
paths = (
{
closed = 1;
nodes = (
"276 628 LINE",
"281 648 OFFCURVE",
"284 678 OFFCURVE",
"284 695 CURVE SMOOTH",
"284 755 OFFCURVE",
"252 815 OFFCURVE",
"159 815 CURVE",
"100 815 OFFCURVE",
"63 790 OFFCURVE",
"18 790 CURVE SMOOTH",
"-4 790 OFFCURVE",
"-24 795 OFFCURVE",
"-46 804 CURVE",
"-46 752 LINE",
"-27 743 OFFCURVE",
"-6 735 OFFCURVE",
"21 735 CURVE SMOOTH",
"72 735 OFFCURVE",
"109 760 OFFCURVE",
"160 760 CURVE SMOOTH",
"206 760 OFFCURVE",
"226 735 OFFCURVE",
"226 690 CURVE SMOOTH",
"226 672 OFFCURVE",
"223 643 OFFCURVE",
"219 628 CURVE"
);
}
);
width = 281;
}
);
unicode = 09C8;
},
{
glyphname = bnmO;
lastChange = "2015-07-03 10:49:30 +0000";
layers = (
{
components = (
{
name = bnmE;
},
{
name = bnmAA;
transform = "{1, 0, 0, 1, 930, 0}";
}
);
layerId = "731EBDE8-0F2D-4E32-814F-AAFC41A14D25";
name = Bold;
paths = (
{
closed = 1;
nodes = (
"548 44 OFFCURVE",
"567 64 OFFCURVE",
"567 90 CURVE SMOOTH",
"567 114 OFFCURVE",
"548 134 OFFCURVE",
"523 134 CURVE SMOOTH",
"497 134 OFFCURVE",
"478 114 OFFCURVE",
"478 90 CURVE SMOOTH",
"478 64 OFFCURVE",
"497 44 OFFCURVE",
"523 44 CURVE SMOOTH"
);
},
{
closed = 1;
nodes = (
"446 121 OFFCURVE",
"465 139 OFFCURVE",
"465 165 CURVE SMOOTH",
"465 190 OFFCURVE",
"446 209 OFFCURVE",
"421 209 CURVE SMOOTH",
"395 209 OFFCURVE",
"377 190 OFFCURVE",
"377 165 CURVE SMOOTH",
"377 139 OFFCURVE",
"395 121 OFFCURVE",
"421 121 CURVE SMOOTH"
);
},
{
closed = 1;
nodes = (
"395 238 OFFCURVE",
"413 256 OFFCURVE",
"413 281 CURVE SMOOTH",
"413 307 OFFCURVE",
"395 326 OFFCURVE",
"369 326 CURVE SMOOTH",
"344 326 OFFCURVE",
"325 307 OFFCURVE",
"325 281 CURVE SMOOTH",
"325 256 OFFCURVE",
"344 238 OFFCURVE",
"369 238 CURVE SMOOTH"
);
},
{
closed = 1;
nodes = (
"675 30 OFFCURVE",
"694 48 OFFCURVE",
"694 74 CURVE SMOOTH",
"694 100 OFFCURVE",
"675 118 OFFCURVE",
"649 118 CURVE SMOOTH",
"623 118 OFFCURVE",
"605 100 OFFCURVE",
"605 74 CURVE SMOOTH",
"605 48 OFFCURVE",
"623 30 OFFCURVE",
"649 30 CURVE SMOOTH"
);
},
{
closed = 1;
nodes = (
"408 363 OFFCURVE",
"428 382 OFFCURVE",
"428 407 CURVE SMOOTH",
"428 432 OFFCURVE",
"408 451 OFFCURVE",
"384 451 CURVE SMOOTH",
"358 451 OFFCURVE",
"338 432 OFFCURVE",
"338 407 CURVE SMOOTH",
"338 382 OFFCURVE",
"358 363 OFFCURVE",
"384 363 CURVE SMOOTH"
);
},
{
closed = 1;
nodes = (
"795 83 OFFCURVE",
"815 101 OFFCURVE",
"815 127 CURVE SMOOTH",
"815 152 OFFCURVE",
"795 171 OFFCURVE",
"770 171 CURVE SMOOTH",
"745 171 OFFCURVE",
"726 152 OFFCURVE",
"726 127 CURVE SMOOTH",
"726 101 OFFCURVE",
"745 83 OFFCURVE",
"770 83 CURVE SMOOTH"
);
},
{
closed = 1;
nodes = (
"490 472 OFFCURVE",
"508 491 OFFCURVE",
"508 517 CURVE SMOOTH",
"508 542 OFFCURVE",
"490 561 OFFCURVE",
"464 561 CURVE SMOOTH",
"438 561 OFFCURVE",
"420 542 OFFCURVE",
"420 517 CURVE SMOOTH",
"420 491 OFFCURVE",
"438 472 OFFCURVE",
"464 472 CURVE SMOOTH"
);
},
{
closed = 1;
nodes = (
"868 181 OFFCURVE",
"887 200 OFFCURVE",
"887 225 CURVE SMOOTH",
"887 251 OFFCURVE",
"868 270 OFFCURVE",
"844 270 CURVE SMOOTH",
"818 270 OFFCURVE",
"799 251 OFFCURVE",
"799 225 CURVE SMOOTH",
"799 200 OFFCURVE",
"818 181 OFFCURVE",
"844 181 CURVE SMOOTH"
);
},
{
closed = 1;
nodes = (
"608 516 OFFCURVE",
"626 534 OFFCURVE",
"626 560 CURVE SMOOTH",
"626 586 OFFCURVE",
"608 604 OFFCURVE",
"582 604 CURVE SMOOTH",
"556 604 OFFCURVE",
"538 586 OFFCURVE",
"538 560 CURVE SMOOTH",
"538 534 OFFCURVE",
"556 516 OFFCURVE",
"582 516 CURVE SMOOTH"
);
},
{
closed = 1;
nodes = (
"878 315 OFFCURVE",
"897 333 OFFCURVE",
"897 359 CURVE SMOOTH",
"897 385 OFFCURVE",
"878 403 OFFCURVE",
"853 403 CURVE SMOOTH",
"827 403 OFFCURVE",
"809 385 OFFCURVE",
"809 359 CURVE SMOOTH",
"809 333 OFFCURVE",
"827 315 OFFCURVE",
"853 315 CURVE SMOOTH"
);
},
{
closed = 1;
nodes = (
"734 501 OFFCURVE",
"752 521 OFFCURVE",
"752 545 CURVE SMOOTH",
"752 571 OFFCURVE",
"734 590 OFFCURVE",
"709 590 CURVE SMOOTH",
"683 590 OFFCURVE",
"664 571 OFFCURVE",
"664 545 CURVE SMOOTH",
"664 521 OFFCURVE",
"683 501 OFFCURVE",
"709 501 CURVE SMOOTH"
);
},
{
closed = 1;
nodes = (
"829 433 OFFCURVE",
"847 452 OFFCURVE",
"847 477 CURVE SMOOTH",
"847 503 OFFCURVE",
"829 522 OFFCURVE",
"803 522 CURVE SMOOTH",
"778 522 OFFCURVE",
"759 503 OFFCURVE",
"759 477 CURVE SMOOTH",
"759 452 OFFCURVE",
"778 433 OFFCURVE",
"803 433 CURVE SMOOTH"
);
}
);
width = 1200;
},
{
components = (
{
disableAlignment = 1;
name = bnmE;
},
{
name = bnmAA;
transform = "{1, 0, 0, 1, 950, 0}";
}
);
layerId = "D864283E-EAB4-426F-8533-332F2D658CBA";
name = Light;
paths = (
{
closed = 1;
nodes = (
"548 44 OFFCURVE",
"567 64 OFFCURVE",
"567 90 CURVE SMOOTH",
"567 114 OFFCURVE",
"548 134 OFFCURVE",
"523 134 CURVE SMOOTH",
"497 134 OFFCURVE",
"478 114 OFFCURVE",
"478 90 CURVE SMOOTH",
"478 64 OFFCURVE",
"497 44 OFFCURVE",
"523 44 CURVE SMOOTH"
);
},
{
closed = 1;
nodes = (
"446 121 OFFCURVE",
"465 139 OFFCURVE",
"465 165 CURVE SMOOTH",
"465 190 OFFCURVE",
"446 209 OFFCURVE",
"421 209 CURVE SMOOTH",
"395 209 OFFCURVE",
"377 190 OFFCURVE",
"377 165 CURVE SMOOTH",
"377 139 OFFCURVE",
"395 121 OFFCURVE",
"421 121 CURVE SMOOTH"
);
},
{
closed = 1;
nodes = (
"395 238 OFFCURVE",
"413 256 OFFCURVE",
"413 281 CURVE SMOOTH",
"413 307 OFFCURVE",
"395 326 OFFCURVE",
"369 326 CURVE SMOOTH",
"344 326 OFFCURVE",
"325 307 OFFCURVE",
"325 281 CURVE SMOOTH",
"325 256 OFFCURVE",
"344 238 OFFCURVE",
"369 238 CURVE SMOOTH"
);
},
{
closed = 1;
nodes = (
"675 30 OFFCURVE",
"694 48 OFFCURVE",
"694 74 CURVE SMOOTH",
"694 100 OFFCURVE",
"675 118 OFFCURVE",
"649 118 CURVE SMOOTH",
"623 118 OFFCURVE",
"605 100 OFFCURVE",
"605 74 CURVE SMOOTH",
"605 48 OFFCURVE",
"623 30 OFFCURVE",
"649 30 CURVE SMOOTH"
);
},
{
closed = 1;
nodes = (
"408 363 OFFCURVE",
"428 382 OFFCURVE",
"428 407 CURVE SMOOTH",
"428 432 OFFCURVE",
"408 451 OFFCURVE",
"384 451 CURVE SMOOTH",
"358 451 OFFCURVE",
"338 432 OFFCURVE",
"338 407 CURVE SMOOTH",
"338 382 OFFCURVE",
"358 363 OFFCURVE",
"384 363 CURVE SMOOTH"
);
},
{
closed = 1;
nodes = (
"795 83 OFFCURVE",
"815 101 OFFCURVE",
"815 127 CURVE SMOOTH",
"815 152 OFFCURVE",
"795 171 OFFCURVE",
"770 171 CURVE SMOOTH",
"745 171 OFFCURVE",
"726 152 OFFCURVE",
"726 127 CURVE SMOOTH",
"726 101 OFFCURVE",
"745 83 OFFCURVE",
"770 83 CURVE SMOOTH"
);
},
{
closed = 1;
nodes = (
"490 472 OFFCURVE",
"508 491 OFFCURVE",
"508 517 CURVE SMOOTH",
"508 542 OFFCURVE",
"490 561 OFFCURVE",
"464 561 CURVE SMOOTH",
"438 561 OFFCURVE",
"420 542 OFFCURVE",
"420 517 CURVE SMOOTH",
"420 491 OFFCURVE",
"438 472 OFFCURVE",
"464 472 CURVE SMOOTH"
);
},
{
closed = 1;
nodes = (
"868 181 OFFCURVE",
"887 200 OFFCURVE",
"887 225 CURVE SMOOTH",
"887 251 OFFCURVE",
"868 270 OFFCURVE",
"844 270 CURVE SMOOTH",
"818 270 OFFCURVE",
"799 251 OFFCURVE",
"799 225 CURVE SMOOTH",
"799 200 OFFCURVE",
"818 181 OFFCURVE",
"844 181 CURVE SMOOTH"
);
},
{
closed = 1;
nodes = (
"608 516 OFFCURVE",
"626 534 OFFCURVE",
"626 560 CURVE SMOOTH",
"626 586 OFFCURVE",
"608 604 OFFCURVE",
"582 604 CURVE SMOOTH",
"556 604 OFFCURVE",
"538 586 OFFCURVE",
"538 560 CURVE SMOOTH",
"538 534 OFFCURVE",
"556 516 OFFCURVE",
"582 516 CURVE SMOOTH"
);
},
{
closed = 1;
nodes = (
"878 315 OFFCURVE",
"897 333 OFFCURVE",
"897 359 CURVE SMOOTH",
"897 385 OFFCURVE",
"878 403 OFFCURVE",
"853 403 CURVE SMOOTH",
"827 403 OFFCURVE",
"809 385 OFFCURVE",
"809 359 CURVE SMOOTH",
"809 333 OFFCURVE",
"827 315 OFFCURVE",
"853 315 CURVE SMOOTH"
);
},
{
closed = 1;
nodes = (
"734 501 OFFCURVE",
"752 521 OFFCURVE",
"752 545 CURVE SMOOTH",
"752 571 OFFCURVE",
"734 590 OFFCURVE",
"709 590 CURVE SMOOTH",
"683 590 OFFCURVE",
"664 571 OFFCURVE",
"664 545 CURVE SMOOTH",
"664 521 OFFCURVE",
"683 501 OFFCURVE",
"709 501 CURVE SMOOTH"
);
},
{
closed = 1;
nodes = (
"829 433 OFFCURVE",
"847 452 OFFCURVE",
"847 477 CURVE SMOOTH",
"847 503 OFFCURVE",
"829 522 OFFCURVE",
"803 522 CURVE SMOOTH",
"778 522 OFFCURVE",
"759 503 OFFCURVE",
"759 477 CURVE SMOOTH",
"759 452 OFFCURVE",
"778 433 OFFCURVE",
"803 433 CURVE SMOOTH"
);
}
);
width = 1211;
}
);
unicode = 09CB;
},
{
glyphname = bnmAU;
lastChange = "2015-07-03 10:49:30 +0000";
layers = (
{
background = {
paths = (
{
closed = 1;
nodes = (
"1135 0 LINE",
"995 0 LINE",
"995 572 LINE",
"1018 594 LINE",
"1013 628 OFFCURVE",
"1000 674 OFFCURVE",
"1000 733 CURVE",
"1000 751 LINE",
"1135 751 LINE"
);
},
{
closed = 1;
nodes = (
"995 497 LINE",
"995 551 OFFCURVE",
"984 559 OFFCURVE",
"942 559 CURVE",
"910 559 LINE",
"910 671 LINE",
"960 671 LINE",
"1018 671 OFFCURVE",
"1028 592 OFFCURVE",
"1028 534 CURVE"
);
}
);
};
components = (
{
name = bnmE;
},
{
name = bnAUlengthmark;
transform = "{1, 0, 0, 1, 930, 0}";
}
);
layerId = "731EBDE8-0F2D-4E32-814F-AAFC41A14D25";
name = Bold;
paths = (
{
closed = 1;
nodes = (
"548 44 OFFCURVE",
"567 64 OFFCURVE",
"567 90 CURVE SMOOTH",
"567 114 OFFCURVE",
"548 134 OFFCURVE",
"523 134 CURVE SMOOTH",
"497 134 OFFCURVE",
"478 114 OFFCURVE",
"478 90 CURVE SMOOTH",
"478 64 OFFCURVE",
"497 44 OFFCURVE",
"523 44 CURVE SMOOTH"
);
},
{
closed = 1;
nodes = (
"446 121 OFFCURVE",
"465 139 OFFCURVE",
"465 165 CURVE SMOOTH",
"465 190 OFFCURVE",
"446 209 OFFCURVE",
"421 209 CURVE SMOOTH",
"395 209 OFFCURVE",
"377 190 OFFCURVE",
"377 165 CURVE SMOOTH",
"377 139 OFFCURVE",
"395 121 OFFCURVE",
"421 121 CURVE SMOOTH"
);
},
{
closed = 1;
nodes = (
"395 238 OFFCURVE",
"413 256 OFFCURVE",
"413 281 CURVE SMOOTH",
"413 307 OFFCURVE",
"395 326 OFFCURVE",
"369 326 CURVE SMOOTH",
"344 326 OFFCURVE",
"325 307 OFFCURVE",
"325 281 CURVE SMOOTH",
"325 256 OFFCURVE",
"344 238 OFFCURVE",
"369 238 CURVE SMOOTH"
);
},
{
closed = 1;
nodes = (
"675 30 OFFCURVE",
"694 48 OFFCURVE",
"694 74 CURVE SMOOTH",
"694 100 OFFCURVE",
"675 118 OFFCURVE",
"649 118 CURVE SMOOTH",
"623 118 OFFCURVE",
"605 100 OFFCURVE",
"605 74 CURVE SMOOTH",
"605 48 OFFCURVE",
"623 30 OFFCURVE",
"649 30 CURVE SMOOTH"
);
},
{
closed = 1;
nodes = (
"408 363 OFFCURVE",
"428 382 OFFCURVE",
"428 407 CURVE SMOOTH",
"428 432 OFFCURVE",
"408 451 OFFCURVE",
"384 451 CURVE SMOOTH",
"358 451 OFFCURVE",
"338 432 OFFCURVE",
"338 407 CURVE SMOOTH",
"338 382 OFFCURVE",
"358 363 OFFCURVE",
"384 363 CURVE SMOOTH"
);
},
{
closed = 1;
nodes = (
"795 83 OFFCURVE",
"815 101 OFFCURVE",
"815 127 CURVE SMOOTH",
"815 152 OFFCURVE",
"795 171 OFFCURVE",
"770 171 CURVE SMOOTH",
"745 171 OFFCURVE",
"726 152 OFFCURVE",
"726 127 CURVE SMOOTH",
"726 101 OFFCURVE",
"745 83 OFFCURVE",
"770 83 CURVE SMOOTH"
);
},
{
closed = 1;
nodes = (
"490 472 OFFCURVE",
"508 491 OFFCURVE",
"508 517 CURVE SMOOTH",
"508 542 OFFCURVE",
"490 561 OFFCURVE",
"464 561 CURVE SMOOTH",
"438 561 OFFCURVE",
"420 542 OFFCURVE",
"420 517 CURVE SMOOTH",
"420 491 OFFCURVE",
"438 472 OFFCURVE",
"464 472 CURVE SMOOTH"
);
},
{
closed = 1;
nodes = (
"868 181 OFFCURVE",
"887 200 OFFCURVE",
"887 225 CURVE SMOOTH",
"887 251 OFFCURVE",
"868 270 OFFCURVE",
"844 270 CURVE SMOOTH",
"818 270 OFFCURVE",
"799 251 OFFCURVE",
"799 225 CURVE SMOOTH",
"799 200 OFFCURVE",
"818 181 OFFCURVE",
"844 181 CURVE SMOOTH"
);
},
{
closed = 1;
nodes = (
"608 516 OFFCURVE",
"626 534 OFFCURVE",
"626 560 CURVE SMOOTH",
"626 586 OFFCURVE",
"608 604 OFFCURVE",
"582 604 CURVE SMOOTH",
"556 604 OFFCURVE",
"538 586 OFFCURVE",
"538 560 CURVE SMOOTH",
"538 534 OFFCURVE",
"556 516 OFFCURVE",
"582 516 CURVE SMOOTH"
);
},
{
closed = 1;
nodes = (
"878 315 OFFCURVE",
"897 333 OFFCURVE",
"897 359 CURVE SMOOTH",
"897 385 OFFCURVE",
"878 403 OFFCURVE",
"853 403 CURVE SMOOTH",
"827 403 OFFCURVE",
"809 385 OFFCURVE",
"809 359 CURVE SMOOTH",
"809 333 OFFCURVE",
"827 315 OFFCURVE",
"853 315 CURVE SMOOTH"
);
},
{
closed = 1;
nodes = (
"734 501 OFFCURVE",
"752 521 OFFCURVE",
"752 545 CURVE SMOOTH",
"752 571 OFFCURVE",
"734 590 OFFCURVE",
"709 590 CURVE SMOOTH",
"683 590 OFFCURVE",
"664 571 OFFCURVE",
"664 545 CURVE SMOOTH",
"664 521 OFFCURVE",
"683 501 OFFCURVE",
"709 501 CURVE SMOOTH"
);
},
{
closed = 1;
nodes = (
"829 433 OFFCURVE",
"847 452 OFFCURVE",
"847 477 CURVE SMOOTH",
"847 503 OFFCURVE",
"829 522 OFFCURVE",
"803 522 CURVE SMOOTH",
"778 522 OFFCURVE",
"759 503 OFFCURVE",
"759 477 CURVE SMOOTH",
"759 452 OFFCURVE",
"778 433 OFFCURVE",
"803 433 CURVE SMOOTH"
);
}
);
width = 1200;
},
{
background = {
paths = (
{
closed = 1;
nodes = (
"268 -8 OFFCURVE",
"257 -8 OFFCURVE",
"250 -8 CURVE SMOOTH",
"118 -8 OFFCURVE",
"72 113 OFFCURVE",
"70 261 CURVE",
"70 418 OFFCURVE",
"110 621 OFFCURVE",
"291 621 CURVE",
"291 579 LINE",
"168 579 OFFCURVE",
"131 408 OFFCURVE",
"131 261 CURVE",
"131 123 OFFCURVE",
"167 47 OFFCURVE",
"257 47 CURVE SMOOTH",
"261 47 OFFCURVE",
"270 47 OFFCURVE",
"275 47 CURVE",
"275 -7 LINE"
);
},
{
closed = 1;
nodes = (
"-20 579 LINE",
"-20 634 LINE",
"301 634 LINE",
"301 579 LINE"
);
},
{
closed = 1;
nodes = (
"1111 0 LINE",
"1050 0 LINE",
"1050 550 LINE",
"1062 562 LINE",
"1055 602 OFFCURVE",
"1050 640 OFFCURVE",
"1050 686 CURVE SMOOTH",
"1050 719 LINE",
"1111 719 LINE"
);
},
{
closed = 1;
nodes = (
"983 634 LINE",
"1051 634 OFFCURVE",
"1075 574 OFFCURVE",
"1075 506 CURVE",
"1050 493 LINE",
"1050 538 OFFCURVE",
"1038 579 OFFCURVE",
"983 579 CURVE",
"930 579 LINE",
"930 634 LINE"
);
},
{
closed = 1;
nodes = (
"1092 634 LINE",
"1231 634 LINE",
"1231 579 LINE",
"1092 579 LINE"
);
}
);
};
components = (
{
name = bnmE;
},
{
name = bnAUlengthmark;
transform = "{1, 0, 0, 1, 950, 0}";
}
);
layerId = "D864283E-EAB4-426F-8533-332F2D658CBA";
name = Light;
paths = (
{
closed = 1;
nodes = (
"548 44 OFFCURVE",
"567 64 OFFCURVE",
"567 90 CURVE SMOOTH",
"567 114 OFFCURVE",
"548 134 OFFCURVE",
"523 134 CURVE SMOOTH",
"497 134 OFFCURVE",
"478 114 OFFCURVE",
"478 90 CURVE SMOOTH",
"478 64 OFFCURVE",
"497 44 OFFCURVE",
"523 44 CURVE SMOOTH"
);
},
{
closed = 1;
nodes = (
"446 121 OFFCURVE",
"465 139 OFFCURVE",
"465 165 CURVE SMOOTH",
"465 190 OFFCURVE",
"446 209 OFFCURVE",
"421 209 CURVE SMOOTH",
"395 209 OFFCURVE",
"377 190 OFFCURVE",
"377 165 CURVE SMOOTH",
"377 139 OFFCURVE",
"395 121 OFFCURVE",
"421 121 CURVE SMOOTH"
);
},
{
closed = 1;
nodes = (
"395 238 OFFCURVE",
"413 256 OFFCURVE",
"413 281 CURVE SMOOTH",
"413 307 OFFCURVE",
"395 326 OFFCURVE",
"369 326 CURVE SMOOTH",
"344 326 OFFCURVE",
"325 307 OFFCURVE",
"325 281 CURVE SMOOTH",
"325 256 OFFCURVE",
"344 238 OFFCURVE",
"369 238 CURVE SMOOTH"
);
},
{
closed = 1;
nodes = (
"675 30 OFFCURVE",
"694 48 OFFCURVE",
"694 74 CURVE SMOOTH",
"694 100 OFFCURVE",
"675 118 OFFCURVE",
"649 118 CURVE SMOOTH",
"623 118 OFFCURVE",
"605 100 OFFCURVE",
"605 74 CURVE SMOOTH",
"605 48 OFFCURVE",
"623 30 OFFCURVE",
"649 30 CURVE SMOOTH"
);
},
{
closed = 1;
nodes = (
"408 363 OFFCURVE",
"428 382 OFFCURVE",
"428 407 CURVE SMOOTH",
"428 432 OFFCURVE",
"408 451 OFFCURVE",
"384 451 CURVE SMOOTH",
"358 451 OFFCURVE",
"338 432 OFFCURVE",
"338 407 CURVE SMOOTH",
"338 382 OFFCURVE",
"358 363 OFFCURVE",
"384 363 CURVE SMOOTH"
);
},
{
closed = 1;
nodes = (
"795 83 OFFCURVE",
"815 101 OFFCURVE",
"815 127 CURVE SMOOTH",
"815 152 OFFCURVE",
"795 171 OFFCURVE",
"770 171 CURVE SMOOTH",
"745 171 OFFCURVE",
"726 152 OFFCURVE",
"726 127 CURVE SMOOTH",
"726 101 OFFCURVE",
"745 83 OFFCURVE",
"770 83 CURVE SMOOTH"
);
},
{
closed = 1;
nodes = (
"490 472 OFFCURVE",
"508 491 OFFCURVE",
"508 517 CURVE SMOOTH",
"508 542 OFFCURVE",
"490 561 OFFCURVE",
"464 561 CURVE SMOOTH",
"438 561 OFFCURVE",
"420 542 OFFCURVE",
"420 517 CURVE SMOOTH",
"420 491 OFFCURVE",
"438 472 OFFCURVE",
"464 472 CURVE SMOOTH"
);
},
{
closed = 1;
nodes = (
"868 181 OFFCURVE",
"887 200 OFFCURVE",
"887 225 CURVE SMOOTH",
"887 251 OFFCURVE",
"868 270 OFFCURVE",
"844 270 CURVE SMOOTH",
"818 270 OFFCURVE",
"799 251 OFFCURVE",
"799 225 CURVE SMOOTH",
"799 200 OFFCURVE",
"818 181 OFFCURVE",
"844 181 CURVE SMOOTH"
);
},
{
closed = 1;
nodes = (
"608 516 OFFCURVE",
"626 534 OFFCURVE",
"626 560 CURVE SMOOTH",
"626 586 OFFCURVE",
"608 604 OFFCURVE",
"582 604 CURVE SMOOTH",
"556 604 OFFCURVE",
"538 586 OFFCURVE",
"538 560 CURVE SMOOTH",
"538 534 OFFCURVE",
"556 516 OFFCURVE",
"582 516 CURVE SMOOTH"
);
},
{
closed = 1;
nodes = (
"878 315 OFFCURVE",
"897 333 OFFCURVE",
"897 359 CURVE SMOOTH",
"897 385 OFFCURVE",
"878 403 OFFCURVE",
"853 403 CURVE SMOOTH",
"827 403 OFFCURVE",
"809 385 OFFCURVE",
"809 359 CURVE SMOOTH",
"809 333 OFFCURVE",
"827 315 OFFCURVE",
"853 315 CURVE SMOOTH"
);
},
{
closed = 1;
nodes = (
"734 501 OFFCURVE",
"752 521 OFFCURVE",
"752 545 CURVE SMOOTH",
"752 571 OFFCURVE",
"734 590 OFFCURVE",
"709 590 CURVE SMOOTH",
"683 590 OFFCURVE",
"664 571 OFFCURVE",
"664 545 CURVE SMOOTH",
"664 521 OFFCURVE",
"683 501 OFFCURVE",
"709 501 CURVE SMOOTH"
);
},
{
closed = 1;
nodes = (
"829 433 OFFCURVE",
"847 452 OFFCURVE",
"847 477 CURVE SMOOTH",
"847 503 OFFCURVE",
"829 522 OFFCURVE",
"803 522 CURVE SMOOTH",
"778 522 OFFCURVE",
"759 503 OFFCURVE",
"759 477 CURVE SMOOTH",
"759 452 OFFCURVE",
"778 433 OFFCURVE",
"803 433 CURVE SMOOTH"
);
}
);
width = 1211;
}
);
unicode = 09CC;
},
{
glyphname = bnAUlengthmark;
lastChange = "2015-07-03 10:49:30 +0000";
layers = (
{
layerId = "731EBDE8-0F2D-4E32-814F-AAFC41A14D25";
name = Bold;
paths = (
{
closed = 1;
nodes = (
"65 618 LINE",
"65 0 LINE",
"205 0 LINE",
"205 618 LINE"
);
},
{
closed = 1;
nodes = (
"-20 671 LINE",
"-20 559 LINE",
"290 559 LINE",
"290 671 LINE"
);
},
{
closed = 1;
nodes = (
"-22 876 OFFCURVE",
"-62 852 OFFCURVE",
"-117 852 CURVE SMOOTH",
"-148 852 OFFCURVE",
"-169 857 OFFCURVE",
"-191 869 CURVE",
"-191 762 LINE",
"-171 750 OFFCURVE",
"-143 740 OFFCURVE",
"-104 740 CURVE SMOOTH",
"-53 740 OFFCURVE",
"-7 759 OFFCURVE",
"30 759 CURVE",
"75 759 OFFCURVE",
"82 734 OFFCURVE",
"82 698 CURVE SMOOTH",
"82 690 OFFCURVE",
"81 671 OFFCURVE",
"80 661 CURVE",
"204 662 LINE",
"207 682 OFFCURVE",
"209 701 OFFCURVE",
"209 718 CURVE SMOOTH",
"209 816 OFFCURVE",
"153 876 OFFCURVE",
"46 876 CURVE"
);
}
);
width = 270;
},
{
background = {
paths = (
{
closed = 1;
nodes = (
"161 0 LINE",
"100 0 LINE",
"100 595 LINE",
"161 595 LINE"
);
},
{
closed = 1;
nodes = (
"-20 634 LINE",
"281 634 LINE",
"281 579 LINE",
"-20 579 LINE"
);
},
{
closed = 1;
nodes = (
"-182 805 LINE",
"-154 796 OFFCURVE",
"-131 790 OFFCURVE",
"-104 790 CURVE SMOOTH",
"-59 790 OFFCURVE",
"-14 815 OFFCURVE",
"45 815 CURVE",
"138 815 OFFCURVE",
"170 755 OFFCURVE",
"170 695 CURVE SMOOTH",
"170 678 OFFCURVE",
"167 648 OFFCURVE",
"162 628 CURVE",
"105 628 LINE",
"109 643 OFFCURVE",
"112 672 OFFCURVE",
"112 690 CURVE SMOOTH",
"112 735 OFFCURVE",
"92 760 OFFCURVE",
"46 760 CURVE SMOOTH",
"-5 760 OFFCURVE",
"-50 735 OFFCURVE",
"-101 735 CURVE SMOOTH",
"-135 735 OFFCURVE",
"-158 742 OFFCURVE",
"-182 755 CURVE"
);
}
);
};
layerId = "D864283E-EAB4-426F-8533-332F2D658CBA";
name = Light;
paths = (
{
closed = 1;
nodes = (
"100 595 LINE",
"100 0 LINE",
"161 0 LINE",
"161 595 LINE"
);
},
{
closed = 1;
nodes = (
"-20 634 LINE",
"-20 579 LINE",
"281 579 LINE",
"281 634 LINE"
);
},
{
closed = 1;
nodes = (
"-14 815 OFFCURVE",
"-59 795 OFFCURVE",
"-104 795 CURVE SMOOTH",
"-131 795 OFFCURVE",
"-154 801 OFFCURVE",
"-182 810 CURVE",
"-182 760 LINE",
"-158 747 OFFCURVE",
"-135 740 OFFCURVE",
"-101 740 CURVE SMOOTH",
"-50 740 OFFCURVE",
"-5 760 OFFCURVE",
"46 760 CURVE SMOOTH",
"92 760 OFFCURVE",
"112 739 OFFCURVE",
"112 694 CURVE SMOOTH",
"112 676 OFFCURVE",
"109 645 OFFCURVE",
"105 630 CURVE",
"162 630 LINE",
"167 650 OFFCURVE",
"170 682 OFFCURVE",
"170 699 CURVE SMOOTH",
"170 759 OFFCURVE",
"138 815 OFFCURVE",
"45 815 CURVE"
);
}
);
width = 261;
}
);
unicode = 09D7;
},
{
glyphname = bnKA;
lastChange = "2015-07-03 10:49:30 +0000";
layers = (
{
anchors = (
{
name = abvm.chandrabindu;
position = "{408, 671}";
},
{
name = abvm.reph;
position = "{408, 671}";
},
{
name = blwm.u;
position = "{408, 0}";
}
);
background = {
paths = (
{
closed = 1;
nodes = (
"475 0 LINE",
"340 0 LINE",
"340 586 LINE",
"475 586 LINE"
);
},
{
closed = 1;
nodes = (
"-20 559 LINE",
"-20 671 LINE",
"800 671 LINE",
"800 559 LINE"
);
},
{
closed = 1;
nodes = (
"123 303 LINE",
"425 84 LINE",
"339 0 LINE",
"37 209 LINE"
);
},
{
closed = 1;
nodes = (
"390 392 LINE",
"291 376 OFFCURVE",
"202 313 OFFCURVE",
"133 251 CURVE",
"37 209 LINE",
"37 343 LINE",
"127 416 OFFCURVE",
"218 482 OFFCURVE",
"343 507 CURVE"
);
},
{
closed = 1;
nodes = (
"535 214 LINE",
"542 213 OFFCURVE",
"551 213 OFFCURVE",
"558 213 CURVE SMOOTH",
"592 213 OFFCURVE",
"611 233 OFFCURVE",
"611 271 CURVE",
"611 339 OFFCURVE",
"556 385 OFFCURVE",
"453 385 CURVE",
"465 506 LINE",
"600 506 OFFCURVE",
"746 426 OFFCURVE",
"746 271 CURVE",
"744 159 OFFCURVE",
"681 90 OFFCURVE",
"578 90 CURVE SMOOTH",
"561 90 OFFCURVE",
"552 91 OFFCURVE",
"535 94 CURVE"
);
}
);
};
layerId = "731EBDE8-0F2D-4E32-814F-AAFC41A14D25";
name = Bold;
paths = (
{
closed = 1;
nodes = (
"674 67 OFFCURVE",
"746 141 OFFCURVE",
"746 267 CURVE",
"746 422 OFFCURVE",
"600 506 OFFCURVE",
"465 506 CURVE",
"453 385 LINE",
"556 385 OFFCURVE",
"611 335 OFFCURVE",
"611 267 CURVE",
"611 215 OFFCURVE",
"587 194 OFFCURVE",
"545 194 CURVE SMOOTH",
"542 194 OFFCURVE",
"538 194 OFFCURVE",
"535 194 CURVE",
"535 68 LINE",
"542 67 OFFCURVE",
"551 67 OFFCURVE",
"556 67 CURVE SMOOTH"
);
},
{
closed = 1;
nodes = (
"425 84 LINE",
"123 303 LINE",
"37 209 LINE",
"339 0 LINE"
);
},
{
closed = 1;
nodes = (
"133 251 LINE",
"202 313 OFFCURVE",
"291 376 OFFCURVE",
"390 392 CURVE",
"343 507 LINE",
"218 482 OFFCURVE",
"127 416 OFFCURVE",
"37 343 CURVE",
"37 209 LINE"
);
},
{
closed = 1;
nodes = (
"475 0 LINE",
"475 586 LINE",
"340 586 LINE",
"340 0 LINE"
);
},
{
closed = 1;
nodes = (
"800 559 LINE",
"800 671 LINE",
"-20 671 LINE",
"-20 559 LINE"
);
}
);
width = 780;
},
{
anchors = (
{
name = abvm.chandrabindu;
position = "{391, 634}";
},
{
name = abvm.reph;
position = "{392, 634}";
},
{
name = blwm.u;
position = "{391, 0}";
}
);
background = {
paths = (
{
closed = 1;
nodes = (
"70 304 LINE",
"390 50 LINE",
"360 0 LINE",
"45 247 LINE"
);
},
{
closed = 1;
nodes = (
"386 452 LINE",
"291 442 OFFCURVE",
"166 356 OFFCURVE",
"74 263 CURVE",
"45 247 LINE",
"45 321 LINE",
"127 400 OFFCURVE",
"250 486 OFFCURVE",
"362 504 CURVE"
);
},
{
closed = 1;
nodes = (
"507 184 LINE",
"517 183 OFFCURVE",
"527 183 OFFCURVE",
"534 183 CURVE SMOOTH",
"601 183 OFFCURVE",
"631 224 OFFCURVE",
"631 287 CURVE",
"631 391 OFFCURVE",
"532 451 OFFCURVE",
"419 451 CURVE",
"419 506 LINE",
"574 506 OFFCURVE",
"692 418 OFFCURVE",
"692 287 CURVE",
"690 190 OFFCURVE",
"635 125 OFFCURVE",
"543 125 CURVE SMOOTH",
"526 125 OFFCURVE",
"516 126 OFFCURVE",
"507 128 CURVE"
);
},
{
closed = 1;
nodes = (
"-20 579 LINE",
"-20 634 LINE",
"756 634 LINE",
"756 579 LINE"
);
},
{
closed = 1;
nodes = (
"421 0 LINE",
"360 0 LINE",
"360 596 LINE",
"421 596 LINE"
);
}
);
};
layerId = "D864283E-EAB4-426F-8533-332F2D658CBA";
name = Light;
paths = (
{
closed = 1;
nodes = (
"613 101 OFFCURVE",
"692 159 OFFCURVE",
"692 281 CURVE",
"692 412 OFFCURVE",
"582 506 OFFCURVE",
"419 506 CURVE",
"419 451 LINE",
"540 451 OFFCURVE",
"631 385 OFFCURVE",
"631 281 CURVE",
"631 191 OFFCURVE",
"585 160 OFFCURVE",
"521 160 CURVE SMOOTH",
"517 160 OFFCURVE",
"513 160 OFFCURVE",
"508 160 CURVE",
"508 102 LINE",
"514 101 OFFCURVE",
"521 101 OFFCURVE",
"527 101 CURVE SMOOTH"
);
},
{
closed = 1;
nodes = (
"390 50 LINE",
"70 304 LINE",
"45 247 LINE",
"360 0 LINE"
);
},
{
closed = 1;
nodes = (
"74 263 LINE",
"166 356 OFFCURVE",
"291 442 OFFCURVE",
"386 452 CURVE",
"362 504 LINE",
"250 486 OFFCURVE",
"127 400 OFFCURVE",
"45 321 CURVE",
"45 247 LINE"
);
},
{
closed = 1;
nodes = (
"421 0 LINE",
"421 596 LINE",
"360 596 LINE",
"360 0 LINE"
);
},
{
closed = 1;
nodes = (
"756 579 LINE",
"756 634 LINE",
"-20 634 LINE",
"-20 579 LINE"
);
}
);
width = 736;
},
{
associatedMasterId = "731EBDE8-0F2D-4E32-814F-AAFC41A14D25";
background = {
paths = (
{
closed = 1;
nodes = (
"475 0 LINE",
"340 0 LINE",
"340 586 LINE",
"475 586 LINE"
);
},
{
closed = 1;
nodes = (
"-20 559 LINE",
"-20 671 LINE",
"810 671 LINE",
"810 559 LINE"
);
},
{
closed = 1;
nodes = (
"123 303 LINE",
"425 84 LINE",
"339 0 LINE",
"36 209 LINE"
);
},
{
closed = 1;
nodes = (
"390 390 LINE",
"276 358 OFFCURVE",
"207 312 OFFCURVE",
"133 251 CURVE",
"37 209 LINE",
"37 343 LINE",
"127 416 OFFCURVE",
"216 479 OFFCURVE",
"341 504 CURVE"
);
},
{
closed = 1;
nodes = (
"535 201 LINE",
"542 200 OFFCURVE",
"551 200 OFFCURVE",
"558 200 CURVE SMOOTH",
"598 200 OFFCURVE",
"621 227 OFFCURVE",
"621 265 CURVE",
"621 333 OFFCURVE",
"566 385 OFFCURVE",
"453 385 CURVE",
"465 506 LINE",
"610 506 OFFCURVE",
"756 422 OFFCURVE",
"756 261 CURVE",
"754 149 OFFCURVE",
"681 77 OFFCURVE",
"578 77 CURVE SMOOTH",
"561 77 OFFCURVE",
"552 78 OFFCURVE",
"535 81 CURVE"
);
}
);
};
layerId = "BBC43E7F-3C71-4575-8BE3-5DB3CD76A714";
name = "Bold Mar 13 15, 16:29";
paths = (
{
closed = 1;
nodes = (
"475 0 LINE",
"335 0 LINE",
"335 586 LINE",
"475 586 LINE"
);
},
{
closed = 1;
nodes = (
"-30 559 LINE",
"-30 671 LINE",
"820 671 LINE",
"820 559 LINE"
);
},
{
closed = 1;
nodes = (
"113 303 LINE",
"420 84 LINE",
"334 0 LINE",
"26 209 LINE"
);
},
{
closed = 1;
nodes = (
"390 390 LINE",
"276 358 OFFCURVE",
"197 312 OFFCURVE",
"123 251 CURVE",
"27 209 LINE",
"27 343 LINE",
"117 416 OFFCURVE",
"216 479 OFFCURVE",
"341 504 CURVE"
);
},
{
closed = 1;
nodes = (
"465 506 LINE",
"610 506 OFFCURVE",
"756 422 OFFCURVE",
"756 261 CURVE",
"754 149 OFFCURVE",
"686 75 OFFCURVE",
"586 75 CURVE SMOOTH",
"566 75 OFFCURVE",
"545 77 OFFCURVE",
"524 80 CURVE",
"524 201 LINE",
"535 200 OFFCURVE",
"542 200 OFFCURVE",
"553 200 CURVE SMOOTH",
"593 200 OFFCURVE",
"621 224 OFFCURVE",
"621 265 CURVE",
"621 333 OFFCURVE",
"561 385 OFFCURVE",
"438 385 CURVE"
);
}
);
width = 790;
}
);
unicode = 0995;
},
{
glyphname = bnKHA;
lastChange = "2015-07-03 10:49:30 +0000";
layers = (
{
anchors = (
{
name = abvm.chandrabindu;
position = "{547, 751}";
},
{
name = abvm.reph;
position = "{545, 711}";
}
);
background = {
paths = (
{
closed = 1;
nodes = (
"614 0 LINE",
"479 0 LINE",
"479 761 LINE",
"614 761 LINE"
);
},
{
closed = 1;
nodes = (
"479 559 LINE",
"479 671 LINE",
"699 671 LINE",
"699 559 LINE"
);
},
{
closed = 1;
nodes = (
"47 322 LINE",
"133 322 LINE",
"564 84 LINE",
"478 0 LINE",
"47 232 LINE"
);
},
{
closed = 1;
nodes = (
"417 524 LINE",
"418 515 OFFCURVE",
"419 505 OFFCURVE",
"419 496 CURVE SMOOTH",
"419 325 OFFCURVE",
"302 250 OFFCURVE",
"164 250 CURVE",
"47 250 LINE",
"47 344 LINE",
"142 344 LINE",
"232 344 OFFCURVE",
"284 399 OFFCURVE",
"284 496 CURVE SMOOTH",
"284 506 OFFCURVE",
"283 516 OFFCURVE",
"281 524 CURVE"
);
}
);
};
layerId = "731EBDE8-0F2D-4E32-814F-AAFC41A14D25";
name = Bold;
paths = (
{
closed = 1;
nodes = (
"564 84 LINE",
"113 322 LINE",
"27 322 LINE",
"27 232 LINE",
"478 0 LINE"
);
},
{
closed = 1;
nodes = (
"144 250 LINE",
"297 250 OFFCURVE",
"419 325 OFFCURVE",
"419 496 CURVE SMOOTH",
"419 559 OFFCURVE",
"401 631 OFFCURVE",
"388 671 CURVE",
"256 671 LINE",
"268 624 OFFCURVE",
"284 550 OFFCURVE",
"284 496 CURVE SMOOTH",
"284 399 OFFCURVE",
"229 344 OFFCURVE",
"122 344 CURVE",
"27 344 LINE",
"27 250 LINE"
);
},
{
closed = 1;
nodes = (
"291 430 OFFCURVE",
"316 555 OFFCURVE",
"316 654 CURVE",
"256 671 LINE",
"257 658 OFFCURVE",
"257 646 OFFCURVE",
"257 634 CURVE SMOOTH",
"257 579 OFFCURVE",
"245 542 OFFCURVE",
"197 542 CURVE SMOOTH",
"160 542 OFFCURVE",
"141 568 OFFCURVE",
"141 606 CURVE SMOOTH",
"141 639 OFFCURVE",
"147 659 OFFCURVE",
"151 671 CURVE",
"16 671 LINE",
"7 652 OFFCURVE",
"0 618 OFFCURVE",
"0 587 CURVE SMOOTH",
"0 495 OFFCURVE",
"54 430 OFFCURVE",
"160 430 CURVE SMOOTH"
);
},
{
closed = 1;
nodes = (
"614 0 LINE",
"614 751 LINE",
"479 751 LINE",
"479 0 LINE"
);
},
{
closed = 1;
nodes = (
"699 559 LINE",
"699 671 LINE",
"479 671 LINE",
"479 559 LINE"
);
}
);
width = 679;
},
{
anchors = (
{
name = abvm.chandrabindu;
position = "{483, 719}";
},
{
name = abvm.reph;
position = "{482, 668}";
}
);
background = {
paths = (
{
closed = 1;
nodes = (
"33 315 LINE",
"55 315 LINE",
"479 50 LINE",
"452 0 LINE",
"33 256 LINE"
);
},
{
closed = 1;
nodes = (
"482 579 LINE",
"482 634 LINE",
"633 634 LINE",
"633 579 LINE"
);
},
{
closed = 1;
nodes = (
"513 0 LINE",
"452 0 LINE",
"452 724 LINE",
"513 724 LINE"
);
},
{
closed = 1;
nodes = (
"307 634 LINE",
"322 604 OFFCURVE",
"342 545 OFFCURVE",
"342 479 CURVE SMOOTH",
"342 362 OFFCURVE",
"265 267 OFFCURVE",
"125 267 CURVE",
"33 267 LINE",
"33 317 LINE",
"125 317 LINE",
"225 320 OFFCURVE",
"281 379 OFFCURVE",
"281 479 CURVE SMOOTH",
"281 539 OFFCURVE",
"270 594 OFFCURVE",
"250 634 CURVE"
);
},
{
closed = 1;
nodes = (
"294 557 LINE",
"294 465 OFFCURVE",
"232 409 OFFCURVE",
"151 409 CURVE SMOOTH",
"54 409 OFFCURVE",
"-3 476 OFFCURVE",
"-3 561 CURVE SMOOTH",
"-3 588 OFFCURVE",
"2 612 OFFCURVE",
"10 634 CURVE",
"69 634 LINE",
"64 615 OFFCURVE",
"58 592 OFFCURVE",
"58 561 CURVE SMOOTH",
"58 503 OFFCURVE",
"97 464 OFFCURVE",
"154 464 CURVE SMOOTH",
"221 464 OFFCURVE",
"255 510 OFFCURVE",
"255 579 CURVE SMOOTH",
"255 596 OFFCURVE",
"253 614 OFFCURVE",
"250 634 CURVE"
);
}
);
};
layerId = "D864283E-EAB4-426F-8533-332F2D658CBA";
name = Light;
paths = (
{
closed = 1;
nodes = (
"479 53 LINE",
"55 305 LINE",
"33 305 LINE",
"33 246 LINE",
"452 0 LINE"
);
},
{
closed = 1;
nodes = (
"105 254 LINE",
"252 254 OFFCURVE",
"332 362 OFFCURVE",
"332 479 CURVE SMOOTH",
"332 540 OFFCURVE",
"318 592 OFFCURVE",
"307 634 CURVE",
"250 634 LINE",
"270 594 OFFCURVE",
"276 539 OFFCURVE",
"276 479 CURVE SMOOTH",
"276 379 OFFCURVE",
"209 310 OFFCURVE",
"102 307 CURVE",
"33 307 LINE",
"33 254 LINE"
);
},
{
closed = 1;
nodes = (
"235 409 OFFCURVE",
"293 467 OFFCURVE",
"293 566 CURVE",
"250 634 LINE",
"253 614 OFFCURVE",
"254 590 OFFCURVE",
"254 573 CURVE SMOOTH",
"254 504 OFFCURVE",
"215 464 OFFCURVE",
"158 464 CURVE SMOOTH",
"102 464 OFFCURVE",
"66 499 OFFCURVE",
"66 561 CURVE SMOOTH",
"66 592 OFFCURVE",
"72 615 OFFCURVE",
"77 634 CURVE",
"18 634 LINE",
"10 612 OFFCURVE",
"5 588 OFFCURVE",
"5 561 CURVE SMOOTH",
"5 476 OFFCURVE",
"60 409 OFFCURVE",
"154 409 CURVE SMOOTH"
);
},
{
closed = 1;
nodes = (
"513 0 LINE",
"513 719 LINE",
"452 719 LINE",
"452 0 LINE"
);
},
{
closed = 1;
nodes = (
"633 579 LINE",
"633 634 LINE",
"482 634 LINE",
"482 579 LINE"
);
}
);
width = 612;
}
);
unicode = 0996;
},
{
glyphname = bnGA;
lastChange = "2015-07-03 10:49:30 +0000";
layers = (
{
anchors = (
{
name = abvm.chandrabindu;
position = "{486, 751}";
},
{
name = abvm.reph;
position = "{484, 712}";
}
);
background = {
paths = (
{
closed = 1;
nodes = (
"556 0 LINE",
"416 0 LINE",
"416 761 LINE",
"556 761 LINE"
);
},
{
closed = 1;
nodes = (
"416 559 LINE",
"416 671 LINE",
"641 671 LINE",
"641 559 LINE"
);
},
{
closed = 1;
nodes = (
"28 441 LINE",
"28 574 OFFCURVE",
"113 681 OFFCURVE",
"258 681 CURVE SMOOTH",
"426 681 OFFCURVE",
"456 564 OFFCURVE",
"456 401 CURVE",
"456 373 LINE",
"416 373 LINE",
"416 409 LINE",
"416 505 OFFCURVE",
"372 561 OFFCURVE",
"281 561 CURVE SMOOTH",
"190 561 OFFCURVE",
"163 503 OFFCURVE",
"163 440 CURVE",
"163 355 LINE",
"28 355 LINE"
);
},
{
closed = 1;
nodes = (
"206 332 OFFCURVE",
"171 355 OFFCURVE",
"107 355 CURVE",
"75 355 LINE",
"75 453 LINE",
"104 459 OFFCURVE",
"123 462 OFFCURVE",
"151 462 CURVE SMOOTH",
"259 462 OFFCURVE",
"344 403 OFFCURVE",
"346 287 CURVE",
"344 162 OFFCURVE",
"249 97 OFFCURVE",
"111 97 CURVE SMOOTH",
"83 97 OFFCURVE",
"54 100 OFFCURVE",
"25 106 CURVE",
"25 221 LINE",
"43 219 OFFCURVE",
"87 217 OFFCURVE",
"107 217 CURVE SMOOTH",
"169 217 OFFCURVE",
"206 238 OFFCURVE",
"206 286 CURVE"
);
}
);
};
layerId = "731EBDE8-0F2D-4E32-814F-AAFC41A14D25";
name = Bold;
paths = (
{
closed = 1;
nodes = (
"178 369 LINE",
"178 440 LINE",
"178 503 OFFCURVE",
"204 561 OFFCURVE",
"294 561 CURVE SMOOTH",
"383 561 OFFCURVE",
"416 505 OFFCURVE",
"416 409 CURVE",
"416 373 LINE",
"456 373 LINE",
"456 401 LINE",
"456 564 OFFCURVE",
"433 681 OFFCURVE",
"271 681 CURVE SMOOTH",
"126 681 OFFCURVE",
"43 570 OFFCURVE",
"43 437 CURVE",
"43 369 LINE"
);
},
{
closed = 1;
nodes = (
"264 123 OFFCURVE",
"359 182 OFFCURVE",
"361 307 CURVE",
"359 423 OFFCURVE",
"274 476 OFFCURVE",
"166 476 CURVE SMOOTH",
"138 476 OFFCURVE",
"119 473 OFFCURVE",
"90 467 CURVE",
"90 369 LINE",
"126 369 LINE",
"185 369 OFFCURVE",
"221 352 OFFCURVE",
"221 306 CURVE",
"221 258 OFFCURVE",
"183 243 OFFCURVE",
"126 243 CURVE SMOOTH",
"106 243 OFFCURVE",
"58 245 OFFCURVE",
"40 247 CURVE",
"40 132 LINE",
"69 126 OFFCURVE",
"98 123 OFFCURVE",
"126 123 CURVE SMOOTH"
);
},
{
closed = 1;
nodes = (
"556 0 LINE",
"556 751 LINE",
"416 751 LINE",
"416 0 LINE"
);
},
{
closed = 1;
nodes = (
"641 559 LINE",
"641 671 LINE",
"416 671 LINE",
"416 559 LINE"
);
}
);
width = 621;
},
{
anchors = (
{
name = abvm.chandrabindu;
position = "{430, 719}";
},
{
name = abvm.reph;
position = "{429, 668}";
}
);
background = {
paths = (
{
closed = 1;
nodes = (
"414 579 LINE",
"414 634 LINE",
"580 634 LINE",
"580 579 LINE"
);
},
{
closed = 1;
nodes = (
"460 0 LINE",
"399 0 LINE",
"399 724 LINE",
"460 724 LINE"
);
},
{
closed = 1;
nodes = (
"50 396 LINE",
"50 445 LINE",
"50 542 OFFCURVE",
"115 644 OFFCURVE",
"242 644 CURVE",
"408 644 OFFCURVE",
"432 533 OFFCURVE",
"432 421 CURVE",
"432 392 LINE",
"399 384 LINE",
"399 421 LINE",
"399 515 OFFCURVE",
"358 589 OFFCURVE",
"253 589 CURVE",
"159 589 OFFCURVE",
"111 528 OFFCURVE",
"111 445 CURVE",
"111 396 LINE"
);
},
{
closed = 1;
nodes = (
"48 220 LINE",
"71 217 OFFCURVE",
"102 216 OFFCURVE",
"128 216 CURVE SMOOTH",
"198 216 OFFCURVE",
"235 248 OFFCURVE",
"235 307 CURVE",
"235 364 OFFCURVE",
"197 396 OFFCURVE",
"128 396 CURVE",
"66 396 LINE",
"66 447 LINE",
"91 450 OFFCURVE",
"101 451 OFFCURVE",
"129 451 CURVE SMOOTH",
"226 451 OFFCURVE",
"296 394 OFFCURVE",
"296 307 CURVE SMOOTH",
"296 218 OFFCURVE",
"224 161 OFFCURVE",
"128 161 CURVE SMOOTH",
"101 161 OFFCURVE",
"74 164 OFFCURVE",
"48 169 CURVE"
);
}
);
};
layerId = "D864283E-EAB4-426F-8533-332F2D658CBA";
name = Light;
paths = (
{
closed = 1;
nodes = (
"111 396 LINE",
"111 445 LINE",
"111 528 OFFCURVE",
"159 589 OFFCURVE",
"253 589 CURVE",
"353 589 OFFCURVE",
"399 515 OFFCURVE",
"399 421 CURVE",
"399 384 LINE",
"432 392 LINE",
"432 421 LINE",
"432 533 OFFCURVE",
"398 644 OFFCURVE",
"242 644 CURVE",
"115 644 OFFCURVE",
"50 542 OFFCURVE",
"50 445 CURVE",
"50 396 LINE"
);
},
{
closed = 1;
nodes = (
"229 161 OFFCURVE",
"296 218 OFFCURVE",
"296 307 CURVE SMOOTH",
"296 394 OFFCURVE",
"231 451 OFFCURVE",
"129 451 CURVE SMOOTH",
"101 451 OFFCURVE",
"91 450 OFFCURVE",
"66 447 CURVE",
"66 396 LINE",
"128 396 LINE",
"197 396 OFFCURVE",
"235 364 OFFCURVE",
"235 307 CURVE",
"235 248 OFFCURVE",
"198 216 OFFCURVE",
"128 216 CURVE SMOOTH",
"102 216 OFFCURVE",
"71 217 OFFCURVE",
"48 220 CURVE",
"48 169 LINE",
"74 164 OFFCURVE",
"101 161 OFFCURVE",
"128 161 CURVE SMOOTH"
);
},
{
closed = 1;
nodes = (
"460 0 LINE",
"460 719 LINE",
"399 719 LINE",
"399 0 LINE"
);
},
{
closed = 1;
nodes = (
"580 579 LINE",
"580 634 LINE",
"414 634 LINE",
"414 579 LINE"
);
}
);
width = 560;
}
);
unicode = 0997;
},
{
glyphname = bnGHA;
lastChange = "2015-07-03 10:49:30 +0000";
layers = (
{
background = {
paths = (
{
closed = 1;
nodes = (
"535 0 LINE",
"395 0 LINE",
"395 618 LINE",
"535 618 LINE"
);
},
{
closed = 1;
nodes = (
"-30 559 LINE",
"-30 671 LINE",
"620 671 LINE",
"620 559 LINE"
);
},
{
closed = 1;
nodes = (
"173 432 OFFCURVE",
"215 410 OFFCURVE",
"268 410 CURVE SMOOTH",
"288 410 OFFCURVE",
"314 413 OFFCURVE",
"335 418 CURVE",
"335 337 LINE",
"263 337 LINE",
"156 337 OFFCURVE",
"28 362 OFFCURVE",
"28 466 CURVE SMOOTH",
"28 561 OFFCURVE",
"135 596 OFFCURVE",
"243 596 CURVE",
"299 596 LINE",
"299 559 LINE",
"267 559 LINE",
"210 559 OFFCURVE",
"173 531 OFFCURVE",
"173 483 CURVE"
);
},
{
closed = 1;
nodes = (
"144 236 LINE",
"481 86 LINE",
"395 0 LINE",
"57 142 LINE"
);
},
{
closed = 1;
nodes = (
"335 298 LINE",
"141 178 LINE",
"58 142 LINE",
"58 265 LINE",
"156 328 OFFCURVE",
"250 380 OFFCURVE",
"335 418 CURVE"
);
}
);
};
layerId = "731EBDE8-0F2D-4E32-814F-AAFC41A14D25";
name = Bold;
paths = (
{
closed = 1;
nodes = (
"493 97 LINE",
"144 243 LINE",
"57 142 LINE",
"405 0 LINE"
);
},
{
closed = 1;
nodes = (
"141 171 LINE",
"335 291 LINE",
"335 418 LINE",
"250 380 OFFCURVE",
"156 328 OFFCURVE",
"58 265 CURVE",
"58 142 LINE"
);
},
{
closed = 1;
nodes = (
"287 337 OFFCURVE",
"314 339 OFFCURVE",
"335 343 CURVE",
"335 418 LINE",
"314 413 OFFCURVE",
"288 410 OFFCURVE",
"268 410 CURVE SMOOTH",
"223 410 OFFCURVE",
"180 429 OFFCURVE",
"180 480 CURVE",
"180 529 OFFCURVE",
"214 559 OFFCURVE",
"274 559 CURVE",
"299 559 LINE",
"299 596 LINE",
"250 596 LINE",
"142 596 OFFCURVE",
"35 561 OFFCURVE",
"35 466 CURVE SMOOTH",
"35 362 OFFCURVE",
"156 337 OFFCURVE",
"263 337 CURVE SMOOTH"
);
},
{
closed = 1;
nodes = (
"545 0 LINE",
"545 618 LINE",
"405 618 LINE",
"405 0 LINE"
);
},
{
closed = 1;
nodes = (
"630 559 LINE",
"630 671 LINE",
"-20 671 LINE",
"-20 559 LINE"
);
}
);
width = 610;
},
{
layerId = "D864283E-EAB4-426F-8533-332F2D658CBA";
name = Light;
paths = (
{
closed = 1;
nodes = (
"430 50 LINE",
"90 226 LINE",
"65 167 LINE",
"400 0 LINE"
);
},
{
closed = 1;
nodes = (
"94 185 LINE",
"303 332 LINE",
"303 394 LINE",
"229 351 OFFCURVE",
"136 287 OFFCURVE",
"65 235 CURVE",
"65 167 LINE"
);
},
{
closed = 1;
nodes = (
"242 336 OFFCURVE",
"273 338 OFFCURVE",
"303 345 CURVE",
"303 394 LINE",
"282 389 OFFCURVE",
"248 386 OFFCURVE",
"221 386 CURVE SMOOTH",
"156 386 OFFCURVE",
"107 411 OFFCURVE",
"107 475 CURVE",
"107 542 OFFCURVE",
"154 579 OFFCURVE",
"229 579 CURVE",
"257 579 LINE",
"257 614 LINE",
"233 614 LINE",
"125 614 OFFCURVE",
"46 571 OFFCURVE",
"46 475 CURVE SMOOTH",
"46 381 OFFCURVE",
"129 336 OFFCURVE",
"212 336 CURVE"
);
},
{
closed = 1;
nodes = (
"461 0 LINE",
"461 596 LINE",
"400 596 LINE",
"400 0 LINE"
);
},
{
closed = 1;
nodes = (
"581 579 LINE",
"581 634 LINE",
"-20 634 LINE",
"-20 579 LINE"
);
}
);
width = 541;
}
);
unicode = 0998;
},
{
glyphname = bnNGA;
lastChange = "2015-07-03 10:49:30 +0000";
layers = (
{
anchors = (
{
name = abvm.chandrabindu;
position = "{411, 671}";
},
{
name = abvm.reph;
position = "{408, 671}";
},
{
name = blwm.u;
position = "{390, -40}";
}
);
background = {
paths = (
{
closed = 1;
nodes = (
"-20 559 LINE",
"-20 671 LINE",
"175 671 LINE",
"175 559 LINE"
);
},
{
closed = 1;
nodes = (
"376 336 OFFCURVE",
"389 316 OFFCURVE",
"429 316 CURVE SMOOTH",
"495 316 OFFCURVE",
"563 354 OFFCURVE",
"626 397 CURVE",
"651 347 OFFCURVE",
"663 305 OFFCURVE",
"663 246 CURVE SMOOTH",
"663 95 OFFCURVE",
"548 -9 OFFCURVE",
"377 -9 CURVE SMOOTH",
"189 -9 OFFCURVE",
"36 122 OFFCURVE",
"36 347 CURVE SMOOTH",
"36 358 OFFCURVE",
"37 382 OFFCURVE",
"39 394 CURVE",
"176 394 LINE",
"175 383 OFFCURVE",
"174 358 OFFCURVE",
"174 347 CURVE SMOOTH",
"174 176 OFFCURVE",
"276 111 OFFCURVE",
"378 111 CURVE SMOOTH",
"482 111 OFFCURVE",
"536 170 OFFCURVE",
"536 238 CURVE SMOOTH",
"536 265 OFFCURVE",
"535 286 OFFCURVE",
"531 310 CURVE",
"574 265 LINE",
"541 225 OFFCURVE",
"480 196 OFFCURVE",
"413 196 CURVE SMOOTH",
"312 196 OFFCURVE",
"245 257 OFFCURVE",
"245 367 CURVE",
"245 453 LINE",
"251 518 LINE",
"251 604 OFFCURVE",
"295 681 OFFCURVE",
"416 681 CURVE SMOOTH",
"526 681 OFFCURVE",
"599 606 OFFCURVE",
"599 519 CURVE",
"599 429 OFFCURVE",
"530 375 OFFCURVE",
"421 375 CURVE",
"263 375 OFFCURVE",
"135 457 OFFCURVE",
"89 570 CURVE",
"175 671 LINE",
"200 569 OFFCURVE",
"286 475 OFFCURVE",
"420 475 CURVE",
"463 475 OFFCURVE",
"480 491 OFFCURVE",
"480 524 CURVE",
"480 551 OFFCURVE",
"458 574 OFFCURVE",
"427 574 CURVE SMOOTH",
"395 574 OFFCURVE",
"376 551 OFFCURVE",
"376 519 CURVE",
"376 370 LINE"
);
}
);
};
layerId = "731EBDE8-0F2D-4E32-814F-AAFC41A14D25";
name = Bold;
paths = (
{
closed = 1;
nodes = (
"548 -9 OFFCURVE",
"663 95 OFFCURVE",
"663 246 CURVE SMOOTH",
"663 305 OFFCURVE",
"651 347 OFFCURVE",
"626 397 CURVE",
"563 354 OFFCURVE",
"495 316 OFFCURVE",
"429 316 CURVE SMOOTH",
"389 316 OFFCURVE",
"376 336 OFFCURVE",
"376 370 CURVE",
"376 519 LINE",
"376 551 OFFCURVE",
"390 574 OFFCURVE",
"422 574 CURVE SMOOTH",
"456 574 OFFCURVE",
"480 554 OFFCURVE",
"480 527 CURVE",
"480 490 OFFCURVE",
"453 475 OFFCURVE",
"410 475 CURVE",
"286 475 OFFCURVE",
"200 569 OFFCURVE",
"175 671 CURVE",
"89 570 LINE",
"135 457 OFFCURVE",
"263 375 OFFCURVE",
"411 375 CURVE",
"520 375 OFFCURVE",
"599 427 OFFCURVE",
"599 522 CURVE",
"599 609 OFFCURVE",
"530 681 OFFCURVE",
"420 681 CURVE SMOOTH",
"299 681 OFFCURVE",
"251 604 OFFCURVE",
"251 518 CURVE",
"245 453 LINE",
"245 367 LINE",
"245 257 OFFCURVE",
"312 196 OFFCURVE",
"413 196 CURVE SMOOTH",
"480 196 OFFCURVE",
"541 225 OFFCURVE",
"574 265 CURVE",
"531 310 LINE",
"535 286 OFFCURVE",
"536 265 OFFCURVE",
"536 238 CURVE SMOOTH",
"536 170 OFFCURVE",
"482 111 OFFCURVE",
"378 111 CURVE SMOOTH",
"276 111 OFFCURVE",
"174 176 OFFCURVE",
"174 347 CURVE SMOOTH",
"174 358 OFFCURVE",
"175 383 OFFCURVE",
"176 394 CURVE",
"39 394 LINE",
"37 382 OFFCURVE",
"36 358 OFFCURVE",
"36 347 CURVE SMOOTH",
"36 122 OFFCURVE",
"189 -9 OFFCURVE",
"377 -9 CURVE SMOOTH"
);
},
{
closed = 1;
nodes = (
"175 559 LINE",
"175 671 LINE",
"-20 671 LINE",
"-20 559 LINE"
);
}
);
width = 698;
},
{
anchors = (
{
name = abvm.chandrabindu;
position = "{368, 634}";
},
{
name = abvm.reph;
position = "{372, 634}";
},
{
name = blwm.u;
position = "{388, -32}";
}
);
background = {
paths = (
{
closed = 1;
nodes = (
"-20 579 LINE",
"-20 634 LINE",
"139 634 LINE",
"139 579 LINE"
);
},
{
closed = 1;
nodes = (
"121 380 LINE",
"120 366 OFFCURVE",
"120 347 OFFCURVE",
"120 333 CURVE SMOOTH",
"120 174 OFFCURVE",
"199 65 OFFCURVE",
"335 65 CURVE SMOOTH",
"459 65 OFFCURVE",
"527 142 OFFCURVE",
"527 259 CURVE SMOOTH",
"527 276 OFFCURVE",
"524 315 OFFCURVE",
"521 330 CURVE",
"550 307 LINE",
"504 267 OFFCURVE",
"430 243 OFFCURVE",
"372 243 CURVE SMOOTH",
"303 243 OFFCURVE",
"248 282 OFFCURVE",
"248 364 CURVE",
"248 462 LINE",
"249 519 LINE",
"249 593 OFFCURVE",
"298 644 OFFCURVE",
"373 644 CURVE SMOOTH",
"457 644 OFFCURVE",
"523 597 OFFCURVE",
"523 515 CURVE",
"523 432 OFFCURVE",
"458 377 OFFCURVE",
"366 377 CURVE",
"227 377 OFFCURVE",
"130 468 OFFCURVE",
"92 585 CURVE",
"139 634 LINE",
"168 505 OFFCURVE",
"264 432 OFFCURVE",
"365 432 CURVE",
"427 432 OFFCURVE",
"463 462 OFFCURVE",
"463 515 CURVE",
"463 561 OFFCURVE",
"423 589 OFFCURVE",
"373 589 CURVE SMOOTH",
"329 589 OFFCURVE",
"309 562 OFFCURVE",
"309 519 CURVE",
"309 364 LINE",
"309 317 OFFCURVE",
"334 298 OFFCURVE",
"373 298 CURVE SMOOTH",
"442 298 OFFCURVE",
"503 333 OFFCURVE",
"563 372 CURVE",
"576 345 OFFCURVE",
"585 301 OFFCURVE",
"585 258 CURVE SMOOTH",
"585 114 OFFCURVE",
"492 10 OFFCURVE",
"335 10 CURVE SMOOTH",
"164 10 OFFCURVE",
"59 146 OFFCURVE",
"59 332 CURVE SMOOTH",
"59 347 OFFCURVE",
"60 364 OFFCURVE",
"61 380 CURVE"
);
}
);
};
layerId = "D864283E-EAB4-426F-8533-332F2D658CBA";
name = Light;
paths = (
{
closed = 1;
nodes = (
"498 10 OFFCURVE",
"585 119 OFFCURVE",
"585 258 CURVE SMOOTH",
"585 301 OFFCURVE",
"576 343 OFFCURVE",
"563 370 CURVE",
"505 333 OFFCURVE",
"445 298 OFFCURVE",
"376 298 CURVE SMOOTH",
"337 298 OFFCURVE",
"309 315 OFFCURVE",
"309 362 CURVE",
"309 519 LINE",
"309 562 OFFCURVE",
"332 589 OFFCURVE",
"376 589 CURVE SMOOTH",
"426 589 OFFCURVE",
"463 559 OFFCURVE",
"463 513 CURVE",
"463 460 OFFCURVE",
"427 432 OFFCURVE",
"365 432 CURVE",
"264 432 OFFCURVE",
"173 505 OFFCURVE",
"139 634 CURVE",
"91 592 LINE",
"131 475 OFFCURVE",
"227 377 OFFCURVE",
"366 377 CURVE",
"458 377 OFFCURVE",
"523 430 OFFCURVE",
"523 513 CURVE",
"523 589 OFFCURVE",
"460 644 OFFCURVE",
"376 644 CURVE SMOOTH",
"301 644 OFFCURVE",
"249 593 OFFCURVE",
"249 519 CURVE",
"248 462 LINE",
"248 362 LINE",
"248 280 OFFCURVE",
"307 243 OFFCURVE",
"376 243 CURVE SMOOTH",
"439 243 OFFCURVE",
"508 269 OFFCURVE",
"550 307 CURVE",
"521 330 LINE",
"524 315 OFFCURVE",
"527 276 OFFCURVE",
"527 259 CURVE SMOOTH",
"527 147 OFFCURVE",
"465 65 OFFCURVE",
"342 65 CURVE SMOOTH",
"202 65 OFFCURVE",
"120 173 OFFCURVE",
"120 332 CURVE SMOOTH",
"120 346 OFFCURVE",
"120 366 OFFCURVE",
"121 380 CURVE",
"61 380 LINE",
"60 364 OFFCURVE",
"59 346 OFFCURVE",
"59 331 CURVE SMOOTH",
"59 145 OFFCURVE",
"170 10 OFFCURVE",
"342 10 CURVE SMOOTH"
);
},
{
closed = 1;
nodes = (
"139 579 LINE",
"139 634 LINE",
"-20 634 LINE",
"-20 579 LINE"
);
}
);
width = 645;
},
{
associatedMasterId = "731EBDE8-0F2D-4E32-814F-AAFC41A14D25";
background = {
paths = (
{
closed = 1;
nodes = (
"-20 559 LINE",
"-20 671 LINE",
"175 671 LINE",
"175 559 LINE"
);
},
{
closed = 1;
nodes = (
"376 336 OFFCURVE",
"389 316 OFFCURVE",
"429 316 CURVE SMOOTH",
"495 316 OFFCURVE",
"563 354 OFFCURVE",
"626 397 CURVE",
"651 347 OFFCURVE",
"663 305 OFFCURVE",
"663 246 CURVE SMOOTH",
"663 95 OFFCURVE",
"548 -9 OFFCURVE",
"377 -9 CURVE SMOOTH",
"189 -9 OFFCURVE",
"36 122 OFFCURVE",
"36 347 CURVE SMOOTH",
"36 358 OFFCURVE",
"37 382 OFFCURVE",
"39 394 CURVE",
"176 394 LINE",
"175 383 OFFCURVE",
"174 358 OFFCURVE",
"174 347 CURVE SMOOTH",
"174 176 OFFCURVE",
"276 111 OFFCURVE",
"378 111 CURVE SMOOTH",
"482 111 OFFCURVE",
"536 170 OFFCURVE",
"536 238 CURVE SMOOTH",
"536 265 OFFCURVE",
"535 286 OFFCURVE",
"531 310 CURVE",
"574 265 LINE",
"541 225 OFFCURVE",
"480 196 OFFCURVE",
"413 196 CURVE SMOOTH",
"312 196 OFFCURVE",
"245 257 OFFCURVE",
"245 367 CURVE",
"245 453 LINE",
"251 518 LINE",
"251 604 OFFCURVE",
"295 681 OFFCURVE",
"416 681 CURVE SMOOTH",
"526 681 OFFCURVE",
"599 606 OFFCURVE",
"599 519 CURVE",
"599 429 OFFCURVE",
"530 375 OFFCURVE",
"421 375 CURVE",
"263 375 OFFCURVE",
"135 457 OFFCURVE",
"89 570 CURVE",
"175 671 LINE",
"200 569 OFFCURVE",
"286 475 OFFCURVE",
"420 475 CURVE",
"463 475 OFFCURVE",
"480 491 OFFCURVE",
"480 524 CURVE",
"480 551 OFFCURVE",
"458 574 OFFCURVE",
"427 574 CURVE SMOOTH",
"395 574 OFFCURVE",
"376 551 OFFCURVE",
"376 519 CURVE",
"376 370 LINE"
);
}
);
};
layerId = "90432558-77B2-4C4F-A80E-BA0218D6F096";
name = "Bold Mar 17 15, 16:54";
paths = (
{
closed = 1;
nodes = (
"568 363 LINE",
"568 257 OFFCURVE",
"508 188 OFFCURVE",
"404 188 CURVE SMOOTH",
"319 188 OFFCURVE",
"245 243 OFFCURVE",
"245 352 CURVE",
"245 453 LINE",
"257 478 LINE",
"257 583 OFFCURVE",
"312 681 OFFCURVE",
"433 681 CURVE SMOOTH",
"541 681 OFFCURVE",
"611 616 OFFCURVE",
"611 525 CURVE",
"611 427 OFFCURVE",
"530 377 OFFCURVE",
"421 377 CURVE",
"263 377 OFFCURVE",
"135 457 OFFCURVE",
"89 570 CURVE",
"175 671 LINE",
"200 569 OFFCURVE",
"286 470 OFFCURVE",
"420 470 CURVE",
"463 470 OFFCURVE",
"483 494 OFFCURVE",
"483 527 CURVE",
"483 551 OFFCURVE",
"468 569 OFFCURVE",
"437 569 CURVE SMOOTH",
"392 569 OFFCURVE",
"380 527 OFFCURVE",
"380 471 CURVE",
"380 352 LINE",
"380 312 OFFCURVE",
"406 293 OFFCURVE",
"440 293 CURVE SMOOTH",
"497 293 OFFCURVE",
"522 322 OFFCURVE",
"522 363 CURVE"
);
},
{
closed = 1;
nodes = (
"169 396 LINE",
"168 383 OFFCURVE",
"168 371 OFFCURVE",
"168 359 CURVE SMOOTH",
"168 191 OFFCURVE",
"252 110 OFFCURVE",
"368 110 CURVE SMOOTH",
"492 110 OFFCURVE",
"536 187 OFFCURVE",
"536 278 CURVE SMOOTH",
"536 317 OFFCURVE",
"535 335 OFFCURVE",
"532 363 CURVE",
"661 363 LINE",
"665 334 OFFCURVE",
"667 314 OFFCURVE",
"667 278 CURVE",
"667 107 OFFCURVE",
"562 -10 OFFCURVE",
"368 -10 CURVE SMOOTH",
"145 -10 OFFCURVE",
"29 156 OFFCURVE",
"29 359 CURVE SMOOTH",
"29 371 OFFCURVE",
"29 384 OFFCURVE",
"30 396 CURVE"
);
},
{
closed = 1;
nodes = (
"-20 559 LINE",
"-20 671 LINE",
"175 671 LINE",
"175 559 LINE"
);
}
);
width = 698;
}
);
unicode = 0999;
},
{
glyphname = bnCA;
lastChange = "2015-07-03 10:49:30 +0000";
layers = (
{
anchors = (
{
name = abvm.chandrabindu;
position = "{135, 671}";
},
{
name = abvm.reph;
position = "{135, 671}";
},
{
name = blwm.u;
position = "{271, -39}";
}
);
background = {
paths = (
{
closed = 1;
nodes = (
"-20 671 LINE",
"555 671 LINE",
"555 559 LINE",
"-20 559 LINE"
);
},
{
closed = 1;
nodes = (
"205 129 OFFCURVE",
"225 110 OFFCURVE",
"257 110 CURVE SMOOTH",
"331 110 OFFCURVE",
"362 194 OFFCURVE",
"362 262 CURVE",
"362 316 OFFCURVE",
"331 343 OFFCURVE",
"277 343 CURVE SMOOTH",
"250 343 OFFCURVE",
"213 336 OFFCURVE",
"183 326 CURVE",
"183 446 LINE",
"221 460 OFFCURVE",
"262 468 OFFCURVE",
"298 468 CURVE SMOOTH",
"421 468 OFFCURVE",
"502 384 OFFCURVE",
"502 262 CURVE SMOOTH",
"502 130 OFFCURVE",
"413 -10 OFFCURVE",
"253 -10 CURVE SMOOTH",
"150 -10 OFFCURVE",
"65 54 OFFCURVE",
"65 163 CURVE",
"65 618 LINE",
"205 618 LINE",
"205 163 LINE"
);
}
);
};
layerId = "731EBDE8-0F2D-4E32-814F-AAFC41A14D25";
name = Bold;
paths = (
{
closed = 1;
nodes = (
"393 -10 OFFCURVE",
"502 132 OFFCURVE",
"502 262 CURVE SMOOTH",
"502 384 OFFCURVE",
"436 433 OFFCURVE",
"298 473 CURVE SMOOTH",
"180 507 LINE",
"179 375 LINE",
"275 345 LINE SMOOTH",
"339 325 OFFCURVE",
"362 307 OFFCURVE",
"362 262 CURVE",
"362 194 OFFCURVE",
"312 110 OFFCURVE",
"249 110 CURVE SMOOTH",
"217 110 OFFCURVE",
"205 129 OFFCURVE",
"205 163 CURVE",
"205 618 LINE",
"65 618 LINE",
"65 163 LINE",
"65 54 OFFCURVE",
"144 -10 OFFCURVE",
"247 -10 CURVE SMOOTH"
);
},
{
closed = 1;
nodes = (
"555 559 LINE",
"555 671 LINE",
"-20 671 LINE",
"-20 559 LINE"
);
}
);
width = 535;
},
{
anchors = (
{
name = abvm.chandrabindu;
position = "{131, 634}";
},
{
name = abvm.reph;
position = "{131, 634}";
},
{
name = blwm.u;
position = "{292, -47}";
}
);
background = {
paths = (
{
closed = 1;
nodes = (
"161 81 OFFCURVE",
"198 48 OFFCURVE",
"254 48 CURVE SMOOTH",
"354 48 OFFCURVE",
"412 159 OFFCURVE",
"412 267 CURVE",
"412 343 OFFCURVE",
"369 388 OFFCURVE",
"285 388 CURVE SMOOTH",
"232 388 OFFCURVE",
"184 374 OFFCURVE",
"150 358 CURVE",
"150 413 LINE",
"178 427 OFFCURVE",
"234 443 OFFCURVE",
"291 443 CURVE SMOOTH",
"408 443 OFFCURVE",
"477 368 OFFCURVE",
"477 267 CURVE SMOOTH",
"477 135 OFFCURVE",
"400 -7 OFFCURVE",
"254 -7 CURVE SMOOTH",
"161 -7 OFFCURVE",
"100 44 OFFCURVE",
"100 153 CURVE",
"100 618 LINE",
"161 618 LINE",
"161 153 LINE"
);
},
{
closed = 1;
nodes = (
"-20 579 LINE",
"-20 634 LINE",
"572 634 LINE",
"572 579 LINE"
);
}
);
};
layerId = "D864283E-EAB4-426F-8533-332F2D658CBA";
name = Light;
paths = (
{
closed = 1;
nodes = (
"384 -7 OFFCURVE",
"473 146 OFFCURVE",
"473 267 CURVE SMOOTH",
"473 368 OFFCURVE",
"405 411 OFFCURVE",
"307 447 CURVE SMOOTH",
"150 505 LINE",
"150 440 LINE",
"293 387 LINE SMOOTH",
"371 358 OFFCURVE",
"412 333 OFFCURVE",
"412 267 CURVE",
"412 167 OFFCURVE",
"338 48 OFFCURVE",
"240 48 CURVE SMOOTH",
"184 48 OFFCURVE",
"161 90 OFFCURVE",
"161 149 CURVE",
"161 618 LINE",
"100 618 LINE",
"100 149 LINE",
"100 50 OFFCURVE",
"154 -7 OFFCURVE",
"240 -7 CURVE SMOOTH"
);
},
{
closed = 1;
nodes = (
"552 579 LINE",
"552 634 LINE",
"-20 634 LINE",
"-20 579 LINE"
);
}
);
width = 532;
},
{
associatedMasterId = "731EBDE8-0F2D-4E32-814F-AAFC41A14D25";
background = {
paths = (
{
closed = 1;
nodes = (
"-20 671 LINE",
"555 671 LINE",
"555 559 LINE",
"-20 559 LINE"
);
},
{
closed = 1;
nodes = (
"205 129 OFFCURVE",
"225 110 OFFCURVE",
"257 110 CURVE SMOOTH",
"331 110 OFFCURVE",
"362 194 OFFCURVE",
"362 262 CURVE",
"362 316 OFFCURVE",
"331 343 OFFCURVE",
"277 343 CURVE SMOOTH",
"250 343 OFFCURVE",
"213 336 OFFCURVE",
"183 326 CURVE",
"183 446 LINE",
"221 460 OFFCURVE",
"262 468 OFFCURVE",
"298 468 CURVE SMOOTH",
"421 468 OFFCURVE",
"502 384 OFFCURVE",
"502 262 CURVE SMOOTH",
"502 130 OFFCURVE",
"413 -10 OFFCURVE",
"253 -10 CURVE SMOOTH",
"150 -10 OFFCURVE",
"65 54 OFFCURVE",
"65 163 CURVE",
"65 618 LINE",
"205 618 LINE",
"205 163 LINE"
);
}
);
};
layerId = "E73886B8-20E0-4247-890F-B7E9C102F531";
name = "Bold Mar 17 15, 10:53";
paths = (
{
closed = 1;
nodes = (
"-20 671 LINE",
"555 671 LINE",
"555 559 LINE",
"-20 559 LINE"
);
},
{
closed = 1;
nodes = (
"205 129 OFFCURVE",
"225 110 OFFCURVE",
"257 110 CURVE SMOOTH",
"319 110 OFFCURVE",
"352 182 OFFCURVE",
"352 250 CURVE",
"352 310 OFFCURVE",
"315 343 OFFCURVE",
"254 343 CURVE SMOOTH",
"224 343 OFFCURVE",
"210 341 OFFCURVE",
"188 337 CURVE",
"188 457 LINE",
"206 460 OFFCURVE",
"227 463 OFFCURVE",
"256 463 CURVE SMOOTH",
"404 463 OFFCURVE",
"492 371 OFFCURVE",
"492 250 CURVE SMOOTH",
"492 118 OFFCURVE",
"402 -10 OFFCURVE",
"253 -10 CURVE SMOOTH",
"150 -10 OFFCURVE",
"65 54 OFFCURVE",
"65 163 CURVE",
"65 618 LINE",
"205 618 LINE",
"205 163 LINE"
);
}
);
width = 535;
}
);
unicode = 099A;
},
{
glyphname = bnCHA;
lastChange = "2015-07-03 10:49:30 +0000";
layers = (
{
anchors = (
{
name = abvm.chandrabindu;
position = "{133, 671}";
},
{
name = abvm.reph;
position = "{133, 671}";
},
{
name = blwm.u;
position = "{244, -43}";
}
);
background = {
paths = (
{
closed = 1;
nodes = (
"-20 671 LINE",
"662 671 LINE",
"662 559 LINE",
"-20 559 LINE"
);
},
{
closed = 1;
nodes = (
"192 325 OFFCURVE",
"202 318 OFFCURVE",
"217 318 CURVE SMOOTH",
"247 318 OFFCURVE",
"272 345 OFFCURVE",
"272 376 CURVE",
"272 399 OFFCURVE",
"262 411 OFFCURVE",
"232 417 CURVE SMOOTH",
"169 430 LINE",
"169 533 LINE",
"234 519 LINE SMOOTH",
"323 500 OFFCURVE",
"385 456 OFFCURVE",
"385 374 CURVE SMOOTH",
"385 299 OFFCURVE",
"324 224 OFFCURVE",
"213 224 CURVE SMOOTH",
"122 224 OFFCURVE",
"73 272 OFFCURVE",
"73 357 CURVE",
"73 602 LINE",
"192 602 LINE",
"192 347 LINE"
);
},
{
closed = 1;
nodes = (
"552 -56 LINE",
"361 -56 LINE",
"149 89 LINE",
"234 155 LINE",
"552 -43 LINE"
);
},
{
closed = 1;
nodes = (
"234 519 LINE",
"291 508 OFFCURVE",
"331 501 OFFCURVE",
"394 491 CURVE SMOOTH",
"523 471 OFFCURVE",
"585 414 OFFCURVE",
"585 318 CURVE SMOOTH",
"585 150 OFFCURVE",
"395 66 OFFCURVE",
"190 66 CURVE SMOOTH",
"161 66 OFFCURVE",
"133 68 OFFCURVE",
"104 71 CURVE",
"104 179 LINE",
"121 177 OFFCURVE",
"163 176 OFFCURVE",
"179 176 CURVE SMOOTH",
"329 176 OFFCURVE",
"459 219 OFFCURVE",
"459 320 CURVE SMOOTH",
"459 364 OFFCURVE",
"425 380 OFFCURVE",
"371 388 CURVE SMOOTH",
"294 401 LINE"
);
}
);
};
layerId = "731EBDE8-0F2D-4E32-814F-AAFC41A14D25";
name = Bold;
paths = (
{
closed = 1;
nodes = (
"397 81 OFFCURVE",
"585 157 OFFCURVE",
"585 318 CURVE SMOOTH",
"585 414 OFFCURVE",
"519 462 OFFCURVE",
"390 488 CURVE",
"234 518 LINE",
"294 405 LINE",
"371 390 LINE SMOOTH",
"425 379 OFFCURVE",
"459 364 OFFCURVE",
"459 320 CURVE SMOOTH",
"459 212 OFFCURVE",
"317 179 OFFCURVE",
"168 179 CURVE SMOOTH",
"147 179 OFFCURVE",
"125 180 OFFCURVE",
"104 181 CURVE",
"104 86 LINE",
"133 83 OFFCURVE",
"163 81 OFFCURVE",
"192 81 CURVE SMOOTH"
);
},
{
closed = 1;
nodes = (
"562 -50 LINE",
"562 -37 LINE",
"407 42 LINE SMOOTH",
"336 78 OFFCURVE",
"173 138 OFFCURVE",
"130 152 CURVE",
"104 152 LINE",
"104 86 LINE",
"368 -50 LINE"
);
},
{
closed = 1;
nodes = (
"307 224 OFFCURVE",
"385 299 OFFCURVE",
"385 374 CURVE SMOOTH",
"385 456 OFFCURVE",
"326 501 OFFCURVE",
"234 518 CURVE SMOOTH",
"169 530 LINE",
"169 433 LINE",
"232 420 LINE SMOOTH",
"262 414 OFFCURVE",
"273 407 OFFCURVE",
"273 384 CURVE",
"273 353 OFFCURVE",
"247 318 OFFCURVE",
"217 318 CURVE SMOOTH",
"202 318 OFFCURVE",
"192 325 OFFCURVE",
"192 347 CURVE",
"192 602 LINE",
"73 602 LINE",
"73 357 LINE",
"73 272 OFFCURVE",
"125 224 OFFCURVE",
"216 224 CURVE SMOOTH"
);
},
{
closed = 1;
nodes = (
"662 559 LINE",
"662 671 LINE",
"-20 671 LINE",
"-20 559 LINE"
);
}
);
width = 642;
},
{
anchors = (
{
name = abvm.chandrabindu;
position = "{106, 634}";
},
{
name = abvm.reph;
position = "{106, 634}";
},
{
name = blwm.u;
position = "{266, -10}";
}
);
layerId = "D864283E-EAB4-426F-8533-332F2D658CBA";
name = Light;
paths = (
{
closed = 1;
nodes = (
"342 124 OFFCURVE",
"509 171 OFFCURVE",
"509 322 CURVE SMOOTH",
"509 412 OFFCURVE",
"449 453 OFFCURVE",
"341 481 CURVE",
"220 512 LINE",
"255 444 LINE",
"325 426 LINE SMOOTH",
"394 408 OFFCURVE",
"448 385 OFFCURVE",
"448 324 CURVE SMOOTH",
"448 214 OFFCURVE",
"319 177 OFFCURVE",
"153 177 CURVE SMOOTH",
"135 177 OFFCURVE",
"117 178 OFFCURVE",
"99 179 CURVE",
"99 129 LINE",
"128 126 OFFCURVE",
"148 124 OFFCURVE",
"177 124 CURVE SMOOTH"
);
},
{
closed = 1;
nodes = (
"482 -26 LINE",
"482 -13 LINE",
"339 63 LINE SMOOTH",
"243 114 OFFCURVE",
"169 143 OFFCURVE",
"103 169 CURVE",
"99 169 LINE",
"99 121 LINE",
"384 -26 LINE"
);
},
{
closed = 1;
nodes = (
"266 240 OFFCURVE",
"333 317 OFFCURVE",
"333 391 CURVE SMOOTH",
"333 447 OFFCURVE",
"294 495 OFFCURVE",
"220 512 CURVE SMOOTH",
"125 534 LINE",
"125 477 LINE",
"206 458 LINE SMOOTH",
"256 446 OFFCURVE",
"275 429 OFFCURVE",
"275 393 CURVE",
"275 347 OFFCURVE",
"232 295 OFFCURVE",
"182 295 CURVE SMOOTH",
"154 295 OFFCURVE",
"136 311 OFFCURVE",
"136 344 CURVE",
"136 618 LINE",
"75 618 LINE",
"75 344 LINE",
"75 275 OFFCURVE",
"122 240 OFFCURVE",
"182 240 CURVE SMOOTH"
);
},
{
closed = 1;
nodes = (
"580 579 LINE",
"580 634 LINE",
"-20 634 LINE",
"-20 579 LINE"
);
}
);
width = 560;
},
{
associatedMasterId = "731EBDE8-0F2D-4E32-814F-AAFC41A14D25";
background = {
paths = (
{
closed = 1;
nodes = (
"-20 671 LINE",
"662 671 LINE",
"662 559 LINE",
"-20 559 LINE"
);
},
{
closed = 1;
nodes = (
"192 325 OFFCURVE",
"202 318 OFFCURVE",
"217 318 CURVE SMOOTH",
"247 318 OFFCURVE",
"272 345 OFFCURVE",
"272 376 CURVE",
"272 399 OFFCURVE",
"262 411 OFFCURVE",
"232 417 CURVE SMOOTH",
"169 430 LINE",
"169 533 LINE",
"234 519 LINE SMOOTH",
"326 499 OFFCURVE",
"385 456 OFFCURVE",
"385 374 CURVE SMOOTH",
"385 299 OFFCURVE",
"324 224 OFFCURVE",
"213 224 CURVE SMOOTH",
"122 224 OFFCURVE",
"73 272 OFFCURVE",
"73 357 CURVE",
"73 602 LINE",
"192 602 LINE",
"192 347 LINE"
);
},
{
closed = 1;
nodes = (
"562 -56 LINE",
"368 -56 LINE",
"104 80 LINE",
"104 146 LINE",
"189 146 LINE",
"562 -43 LINE"
);
},
{
closed = 1;
nodes = (
"234 519 LINE",
"291 508 OFFCURVE",
"331 501 OFFCURVE",
"394 491 CURVE SMOOTH",
"523 471 OFFCURVE",
"585 414 OFFCURVE",
"585 318 CURVE SMOOTH",
"585 157 OFFCURVE",
"397 75 OFFCURVE",
"192 75 CURVE SMOOTH",
"163 75 OFFCURVE",
"133 77 OFFCURVE",
"104 80 CURVE",
"104 175 LINE",
"121 174 OFFCURVE",
"137 174 OFFCURVE",
"153 174 CURVE SMOOTH",
"323 174 OFFCURVE",
"459 219 OFFCURVE",
"459 320 CURVE SMOOTH",
"459 364 OFFCURVE",
"425 380 OFFCURVE",
"371 388 CURVE SMOOTH",
"294 401 LINE"
);
}
);
};
layerId = "A646F492-662E-47D0-A0CA-2B7CF61BDEA6";
name = "Bold Mar 17 15, 13:33";
paths = (
{
closed = 1;
nodes = (
"-20 671 LINE",
"662 671 LINE",
"662 559 LINE",
"-20 559 LINE"
);
},
{
closed = 1;
nodes = (
"192 324 OFFCURVE",
"203 309 OFFCURVE",
"228 309 CURVE SMOOTH",
"258 309 OFFCURVE",
"277 334 OFFCURVE",
"277 365 CURVE",
"277 392 OFFCURVE",
"262 405 OFFCURVE",
"232 405 CURVE SMOOTH",
"211 405 OFFCURVE",
"192 400 OFFCURVE",
"169 392 CURVE",
"169 485 LINE",
"190 495 OFFCURVE",
"221 502 OFFCURVE",
"249 502 CURVE SMOOTH",
"345 502 OFFCURVE",
"389 447 OFFCURVE",
"389 365 CURVE SMOOTH",
"389 280 OFFCURVE",
"330 215 OFFCURVE",
"225 215 CURVE SMOOTH",
"134 215 OFFCURVE",
"70 263 OFFCURVE",
"70 348 CURVE",
"70 593 LINE",
"192 593 LINE",
"192 350 LINE"
);
},
{
closed = 1;
nodes = (
"573 -66 LINE",
"369 -66 LINE",
"104 73 LINE",
"104 165 LINE",
"139 165 LINE",
"573 -53 LINE"
);
},
{
closed = 1;
nodes = (
"309 457 LINE",
"333 483 OFFCURVE",
"377 501 OFFCURVE",
"421 501 CURVE SMOOTH",
"538 501 OFFCURVE",
"597 427 OFFCURVE",
"597 331 CURVE SMOOTH",
"597 164 OFFCURVE",
"420 78 OFFCURVE",
"242 78 CURVE",
"104 78 LINE",
"104 173 LINE",
"240 173 LINE",
"365 173 OFFCURVE",
"470 229 OFFCURVE",
"470 331 CURVE SMOOTH",
"470 375 OFFCURVE",
"450 396 OFFCURVE",
"414 396 CURVE SMOOTH",
"388 396 OFFCURVE",
"373 386 OFFCURVE",
"351 375 CURVE"
);
}
);
width = 642;
},
{
associatedMasterId = "731EBDE8-0F2D-4E32-814F-AAFC41A14D25";
background = {
paths = (
{
closed = 1;
nodes = (
"-20 671 LINE",
"662 671 LINE",
"662 559 LINE",
"-20 559 LINE"
);
},
{
closed = 1;
nodes = (
"192 325 OFFCURVE",
"202 318 OFFCURVE",
"217 318 CURVE SMOOTH",
"247 318 OFFCURVE",
"272 345 OFFCURVE",
"272 376 CURVE",
"272 399 OFFCURVE",
"262 411 OFFCURVE",
"232 417 CURVE SMOOTH",
"169 430 LINE",
"169 533 LINE",
"234 519 LINE SMOOTH",
"326 499 OFFCURVE",
"385 456 OFFCURVE",
"385 374 CURVE SMOOTH",
"385 299 OFFCURVE",
"324 224 OFFCURVE",
"213 224 CURVE SMOOTH",
"122 224 OFFCURVE",
"73 272 OFFCURVE",
"73 357 CURVE",
"73 602 LINE",
"192 602 LINE",
"192 347 LINE"
);
},
{
closed = 1;
nodes = (
"562 -56 LINE",
"368 -56 LINE",
"104 80 LINE",
"104 146 LINE",
"189 146 LINE",
"562 -43 LINE"
);
},
{
closed = 1;
nodes = (
"234 519 LINE",
"291 508 OFFCURVE",
"331 501 OFFCURVE",
"394 491 CURVE SMOOTH",
"523 471 OFFCURVE",
"585 414 OFFCURVE",
"585 318 CURVE SMOOTH",
"585 157 OFFCURVE",
"397 75 OFFCURVE",
"192 75 CURVE SMOOTH",
"163 75 OFFCURVE",
"133 77 OFFCURVE",
"104 80 CURVE",
"104 175 LINE",
"121 174 OFFCURVE",
"137 174 OFFCURVE",
"153 174 CURVE SMOOTH",
"323 174 OFFCURVE",
"459 219 OFFCURVE",
"459 320 CURVE SMOOTH",
"459 364 OFFCURVE",
"425 380 OFFCURVE",
"371 388 CURVE SMOOTH",
"294 401 LINE"
);
}
);
};
layerId = "35AB9610-CE55-44E6-9A04-D47D00C3C37F";
name = "Bold Mar 17 15, 13:33";
paths = (
{
closed = 1;
nodes = (
"-20 671 LINE",
"662 671 LINE",
"662 559 LINE",
"-20 559 LINE"
);
},
{
closed = 1;
nodes = (
"192 325 OFFCURVE",
"202 318 OFFCURVE",
"217 318 CURVE SMOOTH",
"247 318 OFFCURVE",
"272 345 OFFCURVE",
"272 376 CURVE",
"272 399 OFFCURVE",
"262 411 OFFCURVE",
"232 417 CURVE SMOOTH",
"169 430 LINE",
"169 533 LINE",
"234 519 LINE SMOOTH",
"323 500 OFFCURVE",
"385 456 OFFCURVE",
"385 374 CURVE SMOOTH",
"385 299 OFFCURVE",
"324 224 OFFCURVE",
"213 224 CURVE SMOOTH",
"122 224 OFFCURVE",
"73 272 OFFCURVE",
"73 357 CURVE",
"73 602 LINE",
"192 602 LINE",
"192 347 LINE"
);
},
{
closed = 1;
nodes = (
"552 -56 LINE",
"361 -56 LINE",
"149 89 LINE",
"234 155 LINE",
"552 -43 LINE"
);
},
{
closed = 1;
nodes = (
"234 519 LINE",
"291 508 OFFCURVE",
"331 501 OFFCURVE",
"394 491 CURVE SMOOTH",
"523 471 OFFCURVE",
"585 414 OFFCURVE",
"585 318 CURVE SMOOTH",
"585 150 OFFCURVE",
"395 66 OFFCURVE",
"190 66 CURVE SMOOTH",
"161 66 OFFCURVE",
"133 68 OFFCURVE",
"104 71 CURVE",
"104 179 LINE",
"121 177 OFFCURVE",
"163 176 OFFCURVE",
"179 176 CURVE SMOOTH",
"329 176 OFFCURVE",
"459 219 OFFCURVE",
"459 320 CURVE SMOOTH",
"459 364 OFFCURVE",
"425 380 OFFCURVE",
"371 388 CURVE SMOOTH",
"294 401 LINE"
);
}
);
width = 642;
}
);
unicode = 099B;
},
{
glyphname = bnJA;
lastChange = "2015-07-03 10:49:30 +0000";
layers = (
{
anchors = (
{
name = abvm.chandrabindu;
position = "{451, 671}";
},
{
name = abvm.reph;
position = "{438, 671}";
},
{
name = blwm.u;
position = "{744, 0}";
}
);
background = {
paths = (
{
closed = 1;
nodes = (
"-20 671 LINE",
"907 671 LINE",
"907 559 LINE",
"-20 559 LINE"
);
},
{
closed = 1;
nodes = (
"579 573 LINE",
"622 500 OFFCURVE",
"731 450 OFFCURVE",
"843 420 CURVE",
"762 330 LINE",
"638 360 OFFCURVE",
"486 434 OFFCURVE",
"445 562 CURVE"
);
},
{
closed = 1;
nodes = (
"676 0 LINE",
"665 47 OFFCURVE",
"658 90 OFFCURVE",
"658 145 CURVE SMOOTH",
"658 273 OFFCURVE",
"685 353 OFFCURVE",
"729 430 CURVE",
"843 420 LINE",
"812 344 OFFCURVE",
"792 267 OFFCURVE",
"792 147 CURVE SMOOTH",
"792 101 OFFCURVE",
"801 40 OFFCURVE",
"811 0 CURVE"
);
},
{
closed = 1;
nodes = (
"179 395 LINE",
"178 381 OFFCURVE",
"178 367 OFFCURVE",
"178 357 CURVE SMOOTH",
"178 199 OFFCURVE",
"243 110 OFFCURVE",
"350 110 CURVE SMOOTH",
"436 110 OFFCURVE",
"486 169 OFFCURVE",
"486 256 CURVE SMOOTH",
"486 272 OFFCURVE",
"485 297 OFFCURVE",
"481 316 CURVE",
"589 273 LINE",
"560 251 OFFCURVE",
"495 220 OFFCURVE",
"428 220 CURVE SMOOTH",
"322 220 OFFCURVE",
"243 282 OFFCURVE",
"243 398 CURVE",
"243 504 OFFCURVE",
"307 603 OFFCURVE",
"435 624 CURVE",
"537 581 LINE",
"460 559 OFFCURVE",
"388 488 OFFCURVE",
"388 409 CURVE",
"388 353 OFFCURVE",
"428 334 OFFCURVE",
"476 334 CURVE SMOOTH",
"523 334 OFFCURVE",
"560 345 OFFCURVE",
"595 361 CURVE",
"610 318 OFFCURVE",
"613 289 OFFCURVE",
"613 249 CURVE SMOOTH",
"613 110 OFFCURVE",
"521 -10 OFFCURVE",
"350 -10 CURVE SMOOTH",
"165 -10 OFFCURVE",
"40 125 OFFCURVE",
"40 351 CURVE SMOOTH",
"40 363 OFFCURVE",
"40 379 OFFCURVE",
"41 395 CURVE"
);
}
);
};
guideLines = (
{
position = "{140, 395}";
}
);
layerId = "731EBDE8-0F2D-4E32-814F-AAFC41A14D25";
name = Bold;
paths = (
{
closed = 1;
nodes = (
"521 -10 OFFCURVE",
"613 110 OFFCURVE",
"613 249 CURVE SMOOTH",
"613 289 OFFCURVE",
"610 318 OFFCURVE",
"595 361 CURVE",
"560 345 OFFCURVE",
"523 334 OFFCURVE",
"476 334 CURVE SMOOTH",
"428 334 OFFCURVE",
"388 353 OFFCURVE",
"388 409 CURVE",
"388 488 OFFCURVE",
"460 559 OFFCURVE",
"537 581 CURVE",
"435 624 LINE",
"307 603 OFFCURVE",
"243 504 OFFCURVE",
"243 398 CURVE",
"243 289 OFFCURVE",
"318 220 OFFCURVE",
"428 220 CURVE SMOOTH",
"495 220 OFFCURVE",
"560 251 OFFCURVE",
"589 273 CURVE",
"479 306 LINE",
"483 287 OFFCURVE",
"484 262 OFFCURVE",
"484 246 CURVE SMOOTH",
"484 159 OFFCURVE",
"436 110 OFFCURVE",
"350 110 CURVE SMOOTH",
"243 110 OFFCURVE",
"178 199 OFFCURVE",
"178 357 CURVE SMOOTH",
"178 367 OFFCURVE",
"178 381 OFFCURVE",
"179 395 CURVE",
"41 395 LINE",
"40 379 OFFCURVE",
"40 363 OFFCURVE",
"40 351 CURVE SMOOTH",
"40 125 OFFCURVE",
"165 -10 OFFCURVE",
"350 -10 CURVE SMOOTH"
);
},
{
closed = 1;
nodes = (
"811 0 LINE",
"802 35 OFFCURVE",
"792 91 OFFCURVE",
"792 147 CURVE SMOOTH",
"792 267 OFFCURVE",
"812 344 OFFCURVE",
"843 420 CURVE",
"729 430 LINE",
"685 353 OFFCURVE",
"658 273 OFFCURVE",
"658 145 CURVE SMOOTH",
"658 95 OFFCURVE",
"665 44 OFFCURVE",
"676 0 CURVE"
);
},
{
closed = 1;
nodes = (
"907 559 LINE",
"907 671 LINE",
"-20 671 LINE",
"-20 559 LINE"
);
},
{
closed = 1;
nodes = (
"843 420 LINE",
"731 450 OFFCURVE",
"622 500 OFFCURVE",
"579 573 CURVE",
"445 562 LINE",
"486 434 OFFCURVE",
"638 360 OFFCURVE",
"762 330 CURVE"
);
}
);
width = 887;
},
{
anchors = (
{
name = abvm.chandrabindu;
position = "{391, 634}";
},
{
name = abvm.reph;
position = "{392, 634}";
},
{
name = blwm.u;
position = "{728, 0}";
}
);
background = {
paths = (
{
closed = 1;
nodes = (
"-30 579 LINE",
"-30 634 LINE",
"826 634 LINE",
"826 579 LINE"
);
},
{
closed = 1;
nodes = (
"451 602 LINE",
"361 559 OFFCURVE",
"292 486 OFFCURVE",
"292 404 CURVE",
"292 347 OFFCURVE",
"332 318 OFFCURVE",
"399 318 CURVE SMOOTH",
"448 318 OFFCURVE",
"486 327 OFFCURVE",
"546 354 CURVE",
"559 327 OFFCURVE",
"565 291 OFFCURVE",
"565 258 CURVE SMOOTH",
"565 118 OFFCURVE",
"483 10 OFFCURVE",
"326 10 CURVE SMOOTH",
"155 10 OFFCURVE",
"49 151 OFFCURVE",
"49 332 CURVE SMOOTH",
"49 347 OFFCURVE",
"50 364 OFFCURVE",
"51 380 CURVE",
"111 380 LINE",
"110 366 OFFCURVE",
"110 352 OFFCURVE",
"110 338 CURVE SMOOTH",
"110 184 OFFCURVE",
"190 65 OFFCURVE",
"326 65 CURVE SMOOTH",
"450 65 OFFCURVE",
"507 146 OFFCURVE",
"507 259 CURVE SMOOTH",
"507 276 OFFCURVE",
"504 315 OFFCURVE",
"501 330 CURVE",
"542 301 LINE",
"499 274 OFFCURVE",
"449 263 OFFCURVE",
"388 263 CURVE SMOOTH",
"292 263 OFFCURVE",
"231 318 OFFCURVE",
"231 404 CURVE SMOOTH",
"231 515 OFFCURVE",
"325 596 OFFCURVE",
"375 617 CURVE"
);
},
{
closed = 1;
nodes = (
"741 413 LINE",
"724 344 OFFCURVE",
"714 278 OFFCURVE",
"714 208 CURVE SMOOTH",
"714 126 OFFCURVE",
"725 65 OFFCURVE",
"738 0 CURVE",
"677 0 LINE",
"662 67 OFFCURVE",
"654 135 OFFCURVE",
"654 204 CURVE SMOOTH",
"654 280 OFFCURVE",
"668 362 OFFCURVE",
"685 415 CURVE"
);
},
{
closed = 1;
nodes = (
"452 600 LINE",
"495 505 OFFCURVE",
"581 443 OFFCURVE",
"741 413 CURVE",
"724 364 LINE",
"580 379 OFFCURVE",
"433 467 OFFCURVE",
"392 595 CURVE"
);
}
);
};
layerId = "D864283E-EAB4-426F-8533-332F2D658CBA";
name = Light;
paths = (
{
closed = 1;
nodes = (
"483 10 OFFCURVE",
"565 118 OFFCURVE",
"565 258 CURVE SMOOTH",
"565 291 OFFCURVE",
"559 327 OFFCURVE",
"546 354 CURVE",
"486 327 OFFCURVE",
"449 321 OFFCURVE",
"400 321 CURVE SMOOTH",
"336 321 OFFCURVE",
"303 351 OFFCURVE",
"303 404 CURVE SMOOTH",
"303 486 OFFCURVE",
"372 559 OFFCURVE",
"462 602 CURVE",
"386 617 LINE",
"336 596 OFFCURVE",
"242 515 OFFCURVE",
"242 404 CURVE SMOOTH",
"242 318 OFFCURVE",
"299 265 OFFCURVE",
"390 265 CURVE SMOOTH",
"444 265 OFFCURVE",
"499 274 OFFCURVE",
"542 301 CURVE",
"501 330 LINE",
"504 315 OFFCURVE",
"507 276 OFFCURVE",
"507 259 CURVE SMOOTH",
"507 146 OFFCURVE",
"450 65 OFFCURVE",
"326 65 CURVE SMOOTH",
"190 65 OFFCURVE",
"120 184 OFFCURVE",
"120 338 CURVE SMOOTH",
"120 352 OFFCURVE",
"120 366 OFFCURVE",
"121 380 CURVE",
"61 380 LINE",
"60 364 OFFCURVE",
"59 347 OFFCURVE",
"59 332 CURVE SMOOTH",
"59 151 OFFCURVE",
"155 10 OFFCURVE",
"326 10 CURVE SMOOTH"
);
},
{
closed = 1;
nodes = (
"758 0 LINE",
"745 65 OFFCURVE",
"734 130 OFFCURVE",
"734 204 CURVE SMOOTH",
"734 274 OFFCURVE",
"743 344 OFFCURVE",
"761 413 CURVE",
"704 415 LINE",
"687 362 OFFCURVE",
"674 280 OFFCURVE",
"674 204 CURVE SMOOTH",
"674 135 OFFCURVE",
"682 67 OFFCURVE",
"697 0 CURVE"
);
},
{
closed = 1;
nodes = (
"836 579 LINE",
"836 634 LINE",
"-20 634 LINE",
"-20 579 LINE"
);
},
{
closed = 1;
nodes = (
"761 413 LINE",
"601 441 OFFCURVE",
"495 505 OFFCURVE",
"452 600 CURVE",
"392 595 LINE",
"433 467 OFFCURVE",
"590 378 OFFCURVE",
"744 364 CURVE"
);
}
);
width = 816;
},
{
associatedMasterId = "731EBDE8-0F2D-4E32-814F-AAFC41A14D25";
background = {
paths = (
{
closed = 1;
nodes = (
"-20 671 LINE",
"907 671 LINE",
"907 559 LINE",
"-20 559 LINE"
);
},
{
closed = 1;
nodes = (
"570 573 LINE",
"613 500 OFFCURVE",
"731 450 OFFCURVE",
"843 420 CURVE",
"762 332 LINE",
"638 362 OFFCURVE",
"486 434 OFFCURVE",
"445 562 CURVE"
);
},
{
closed = 1;
nodes = (
"676 0 LINE",
"665 47 OFFCURVE",
"658 90 OFFCURVE",
"658 145 CURVE SMOOTH",
"658 273 OFFCURVE",
"685 353 OFFCURVE",
"729 430 CURVE",
"843 420 LINE",
"812 344 OFFCURVE",
"792 267 OFFCURVE",
"792 147 CURVE SMOOTH",
"792 101 OFFCURVE",
"801 40 OFFCURVE",
"811 0 CURVE"
);
},
{
closed = 1;
nodes = (
"460 559 OFFCURVE",
"388 488 OFFCURVE",
"388 409 CURVE",
"388 353 OFFCURVE",
"427 334 OFFCURVE",
"472 334 CURVE SMOOTH",
"519 334 OFFCURVE",
"560 345 OFFCURVE",
"595 361 CURVE",
"610 318 OFFCURVE",
"613 289 OFFCURVE",
"613 249 CURVE SMOOTH",
"613 110 OFFCURVE",
"520 -10 OFFCURVE",
"349 -10 CURVE SMOOTH",
"163 -10 OFFCURVE",
"40 115 OFFCURVE",
"40 351 CURVE SMOOTH",
"40 377 OFFCURVE",
"41 419 OFFCURVE",
"44 446 CURVE",
"182 446 LINE",
"179 419 OFFCURVE",
"178 380 OFFCURVE",
"178 357 CURVE SMOOTH",
"178 189 OFFCURVE",
"241 110 OFFCURVE",
"349 110 CURVE SMOOTH",
"435 110 OFFCURVE",
"486 176 OFFCURVE",
"486 263 CURVE SMOOTH",
"486 279 OFFCURVE",
"485 297 OFFCURVE",
"481 316 CURVE",
"589 273 LINE",
"560 251 OFFCURVE",
"495 220 OFFCURVE",
"428 220 CURVE SMOOTH",
"322 220 OFFCURVE",
"243 282 OFFCURVE",
"243 398 CURVE",
"243 504 OFFCURVE",
"318 596 OFFCURVE",
"446 617 CURVE",
"537 581 LINE"
);
}
);
};
guideLines = (
{
position = "{140, 395}";
}
);
layerId = "9FA86900-8E45-4B68-B662-0D35157EC601";
name = "Bold Mar 17 15, 17:44";
paths = (
{
closed = 1;
nodes = (
"-20 671 LINE",
"923 671 LINE",
"923 559 LINE",
"-20 559 LINE"
);
},
{
closed = 1;
nodes = (
"638 359 LINE",
"643 329 OFFCURVE",
"646 306 OFFCURVE",
"646 269 CURVE",
"646 104 OFFCURVE",
"539 -9 OFFCURVE",
"369 -9 CURVE SMOOTH",
"134 -9 OFFCURVE",
"27 187 OFFCURVE",
"44 437 CURVE",
"182 437 LINE",
"172 277 OFFCURVE",
"206 111 OFFCURVE",
"369 111 CURVE SMOOTH",
"469 111 OFFCURVE",
"516 177 OFFCURVE",
"516 268 CURVE SMOOTH",
"516 305 OFFCURVE",
"513 316 OFFCURVE",
"505 359 CURVE"
);
},
{
closed = 1;
nodes = (
"537 359 LINE",
"542 292 OFFCURVE",
"502 203 OFFCURVE",
"398 203 CURVE SMOOTH",
"313 203 OFFCURVE",
"245 257 OFFCURVE",
"245 366 CURVE",
"245 449 LINE",
"245 550 OFFCURVE",
"308 593 OFFCURVE",
"445 593 CURVE",
"483 559 LINE",
"408 559 OFFCURVE",
"385 520 OFFCURVE",
"385 451 CURVE",
"385 368 LINE",
"385 335 OFFCURVE",
"401 319 OFFCURVE",
"435 319 CURVE SMOOTH",
"473 319 OFFCURVE",
"493 341 OFFCURVE",
"502 359 CURVE"
);
},
{
closed = 1;
nodes = (
"584 578 LINE",
"584 516 OFFCURVE",
"616 493 OFFCURVE",
"678 493 CURVE",
"860 493 LINE",
"860 388 LINE",
"678 388 LINE",
"550 388 OFFCURVE",
"458 453 OFFCURVE",
"458 578 CURVE",
"458 624 LINE",
"584 624 LINE"
);
},
{
closed = 1;
nodes = (
"690 0 LINE",
"690 277 LINE",
"690 361 OFFCURVE",
"738 424 OFFCURVE",
"842 424 CURVE",
"860 388 LINE",
"834 374 OFFCURVE",
"830 347 OFFCURVE",
"830 313 CURVE SMOOTH",
"830 0 LINE"
);
}
);
width = 887;
}
);
unicode = 099C;
},
{
glyphname = bnJHA;
lastChange = "2015-07-03 10:49:30 +0000";
layers = (
{
anchors = (
{
name = abvm.chandrabindu;
position = "{675, 760}";
},
{
name = abvm.reph;
position = "{675, 720}";
},
{
name = blwm.u;
position = "{408, 0}";
}
);
layerId = "731EBDE8-0F2D-4E32-814F-AAFC41A14D25";
name = Bold;
paths = (
{
closed = 1;
nodes = (
"425 84 LINE",
"123 303 LINE",
"37 209 LINE",
"339 0 LINE"
);
},
{
closed = 1;
nodes = (
"133 251 LINE",
"207 312 OFFCURVE",
"276 349 OFFCURVE",
"390 390 CURVE",
"341 504 LINE",
"216 470 OFFCURVE",
"127 416 OFFCURVE",
"37 343 CURVE",
"37 209 LINE"
);
},
{
closed = 1;
nodes = (
"480 0 LINE",
"480 586 LINE",
"340 586 LINE",
"340 0 LINE"
);
},
{
closed = 1;
nodes = (
"632 168 LINE",
"632 272 OFFCURVE",
"592 329 OFFCURVE",
"498 329 CURVE SMOOTH",
"458 329 LINE",
"425 217 LINE",
"483 217 LINE SMOOTH",
"571 217 OFFCURVE",
"605 167 OFFCURVE",
"605 90 CURVE"
);
},
{
closed = 1;
nodes = (
"480 559 LINE",
"480 671 LINE",
"-20 671 LINE",
"-20 559 LINE"
);
},
{
closed = 1;
nodes = (
"745 90 LINE",
"745 761 LINE",
"605 761 LINE",
"605 90 LINE"
);
},
{
closed = 1;
nodes = (
"830 559 LINE",
"830 671 LINE",
"625 671 LINE",
"625 559 LINE"
);
}
);
width = 815;
},
{
anchors = (
{
name = abvm.chandrabindu;
position = "{641, 719}";
},
{
name = abvm.reph;
position = "{640, 668}";
},
{
name = blwm.u;
position = "{391, 0}";
}
);
layerId = "D864283E-EAB4-426F-8533-332F2D658CBA";
name = Light;
paths = (
{
closed = 1;
nodes = (
"391 50 LINE",
"71 306 LINE",
"45 247 LINE",
"360 0 LINE"
);
},
{
closed = 1;
nodes = (
"74 263 LINE",
"166 356 OFFCURVE",
"292 432 OFFCURVE",
"386 452 CURVE",
"362 504 LINE",
"251 476 OFFCURVE",
"127 400 OFFCURVE",
"45 321 CURVE",
"45 247 LINE"
);
},
{
closed = 1;
nodes = (
"421 0 LINE",
"421 596 LINE",
"360 596 LINE",
"360 0 LINE"
);
},
{
closed = 1;
nodes = (
"635 148 LINE",
"635 234 OFFCURVE",
"597 292 OFFCURVE",
"503 292 CURVE SMOOTH",
"396 292 LINE",
"396 237 LINE",
"504 237 LINE SMOOTH",
"592 237 OFFCURVE",
"610 167 OFFCURVE",
"610 90 CURVE"
);
},
{
closed = 1;
nodes = (
"421 579 LINE",
"421 634 LINE",
"-20 634 LINE",
"-20 579 LINE"
);
},
{
closed = 1;
nodes = (
"671 70 LINE",
"671 719 LINE",
"610 719 LINE",
"610 70 LINE"
);
},
{
closed = 1;
nodes = (
"791 579 LINE",
"791 634 LINE",
"620 634 LINE",
"620 579 LINE"
);
}
);
width = 771;
}
);
unicode = 099D;
},
{
glyphname = bnNYA;
lastChange = "2015-07-03 10:49:30 +0000";
layers = (
{
anchors = (
{
name = abvm.chandrabindu;
position = "{472, 664}";
},
{
name = abvm.reph;
position = "{472, 682}";
},
{
name = blwm.u;
position = "{505, 0}";
}
);
layerId = "731EBDE8-0F2D-4E32-814F-AAFC41A14D25";
name = Bold;
paths = (
{
closed = 1;
nodes = (
"226 680 OFFCURVE",
"122 560 OFFCURVE",
"122 428 CURVE SMOOTH",
"122 306 OFFCURVE",
"188 242 OFFCURVE",
"312 242 CURVE SMOOTH",
"332 242 OFFCURVE",
"353 244 OFFCURVE",
"375 249 CURVE",
"375 371 LINE",
"360 368 OFFCURVE",
"345 367 OFFCURVE",
"333 367 CURVE SMOOTH",
"287 367 OFFCURVE",
"262 384 OFFCURVE",
"262 428 CURVE",
"262 496 OFFCURVE",
"324 560 OFFCURVE",
"388 560 CURVE SMOOTH",
"420 560 OFFCURVE",
"435 546 OFFCURVE",
"435 503 CURVE",
"435 0 LINE",
"575 0 LINE",
"575 503 LINE",
"575 612 OFFCURVE",
"509 680 OFFCURVE",
"388 680 CURVE SMOOTH"
);
},
{
closed = 1;
nodes = (
"31 242 LINE",
"26 222 OFFCURVE",
"23 194 OFFCURVE",
"23 174 CURVE SMOOTH",
"23 49 OFFCURVE",
"121 0 OFFCURVE",
"210 0 CURVE",
"283 0 OFFCURVE",
"350 36 OFFCURVE",
"399 36 CURVE SMOOTH",
"426 36 OFFCURVE",
"435 19 OFFCURVE",
"435 0 CURVE",
"435 138 LINE",
"421 151 OFFCURVE",
"404 155 OFFCURVE",
"386 155 CURVE SMOOTH",
"342 155 OFFCURVE",
"282 126 OFFCURVE",
"232 126 CURVE",
"184 126 OFFCURVE",
"163 149 OFFCURVE",
"163 194 CURVE SMOOTH",
"163 212 OFFCURVE",
"165 232 OFFCURVE",
"167 243 CURVE"
);
},
{
closed = 1;
nodes = (
"582 628 OFFCURVE",
"515 529 OFFCURVE",
"515 419 CURVE",
"575 379 LINE",
"575 461 OFFCURVE",
"623 512 OFFCURVE",
"695 512 CURVE SMOOTH",
"740 512 OFFCURVE",
"773 492 OFFCURVE",
"773 454 CURVE",
"773 415 OFFCURVE",
"747 394 OFFCURVE",
"696 394 CURVE",
"657 394 LINE",
"657 276 LINE",
"696 276 LINE",
"747 276 OFFCURVE",
"773 255 OFFCURVE",
"773 216 CURVE",
"773 178 OFFCURVE",
"740 158 OFFCURVE",
"695 158 CURVE SMOOTH",
"623 158 OFFCURVE",
"575 209 OFFCURVE",
"575 291 CURVE",
"515 251 LINE",
"515 141 OFFCURVE",
"582 42 OFFCURVE",
"714 42 CURVE SMOOTH",
"836 42 OFFCURVE",
"903 126 OFFCURVE",
"903 206 CURVE",
"903 276 OFFCURVE",
"857 317 OFFCURVE",
"812 335 CURVE",
"857 353 OFFCURVE",
"903 394 OFFCURVE",
"903 464 CURVE",
"903 544 OFFCURVE",
"836 628 OFFCURVE",
"714 628 CURVE SMOOTH"
);
}
);
width = 948;
},
{
anchors = (
{
name = abvm.reph;
position = "{402, 634}";
},
{
name = blwm.u;
position = "{483, 0}";
}
);
layerId = "D864283E-EAB4-426F-8533-332F2D658CBA";
name = Light;
paths = (
{
closed = 1;
nodes = (
"247 644 OFFCURVE",
"150 534 OFFCURVE",
"150 412 CURVE SMOOTH",
"150 311 OFFCURVE",
"213 264 OFFCURVE",
"312 264 CURVE SMOOTH",
"328 264 OFFCURVE",
"345 265 OFFCURVE",
"368 268 CURVE",
"368 321 LINE",
"345 319 OFFCURVE",
"332 319 OFFCURVE",
"318 319 CURVE SMOOTH",
"254 319 OFFCURVE",
"211 336 OFFCURVE",
"211 412 CURVE",
"211 510 OFFCURVE",
"293 589 OFFCURVE",
"372 589 CURVE SMOOTH",
"428 589 OFFCURVE",
"452 556 OFFCURVE",
"452 484 CURVE",
"452 0 LINE",
"513 0 LINE",
"513 484 LINE",
"513 593 OFFCURVE",
"465 644 OFFCURVE",
"372 644 CURVE SMOOTH"
);
},
{
closed = 1;
nodes = (
"58 236 LINE",
"56 223 OFFCURVE",
"55 206 OFFCURVE",
"55 189 CURVE SMOOTH",
"55 83 OFFCURVE",
"114 19 OFFCURVE",
"213 19 CURVE",
"296 19 OFFCURVE",
"371 59 OFFCURVE",
"412 59 CURVE SMOOTH",
"444 59 OFFCURVE",
"452 37 OFFCURVE",
"452 11 CURVE",
"452 94 LINE",
"445 102 OFFCURVE",
"430 113 OFFCURVE",
"407 113 CURVE SMOOTH",
"349 113 OFFCURVE",
"279 74 OFFCURVE",
"213 74 CURVE",
"149 74 OFFCURVE",
"115 118 OFFCURVE",
"115 189 CURVE SMOOTH",
"115 204 OFFCURVE",
"116 222 OFFCURVE",
"117 236 CURVE"
);
},
{
closed = 1;
nodes = (
"544 596 OFFCURVE",
"482 520 OFFCURVE",
"482 436 CURVE",
"513 408 LINE",
"513 490 OFFCURVE",
"563 541 OFFCURVE",
"635 541 CURVE SMOOTH",
"691 541 OFFCURVE",
"731 509 OFFCURVE",
"731 454 CURVE SMOOTH",
"731 401 OFFCURVE",
"696 362 OFFCURVE",
"618 362 CURVE SMOOTH",
"585 362 LINE",
"585 305 LINE",
"618 305 LINE",
"696 305 OFFCURVE",
"731 267 OFFCURVE",
"731 214 CURVE",
"731 162 OFFCURVE",
"695 126 OFFCURVE",
"641 126 CURVE SMOOTH",
"569 126 OFFCURVE",
"513 177 OFFCURVE",
"513 259 CURVE",
"482 231 LINE",
"482 147 OFFCURVE",
"541 71 OFFCURVE",
"644 71 CURVE SMOOTH",
"731 71 OFFCURVE",
"792 128 OFFCURVE",
"792 208 CURVE",
"792 278 OFFCURVE",
"744 321 OFFCURVE",
"696 334 CURVE",
"744 347 OFFCURVE",
"792 390 OFFCURVE",
"792 460 CURVE SMOOTH",
"792 538 OFFCURVE",
"730 596 OFFCURVE",
"641 596 CURVE SMOOTH"
);
}
);
width = 853;
}
);
unicode = 099E;
},
{
glyphname = bnTTA;
lastChange = "2015-07-03 10:49:30 +0000";
layers = (
{
anchors = (
{
name = abvm.chandrabindu;
position = "{582, 778}";
},
{
name = abvm.reph;
position = "{228, 761}";
},
{
name = blwm.u;
position = "{281, -42}";
}
);
components = (
{
name = bnDDHA;
}
);
layerId = "731EBDE8-0F2D-4E32-814F-AAFC41A14D25";
name = Bold;
paths = (
{
closed = 1;
nodes = (
"502 662 LINE",
"505 682 OFFCURVE",
"507 701 OFFCURVE",
"507 718 CURVE SMOOTH",
"507 816 OFFCURVE",
"451 876 OFFCURVE",
"344 876 CURVE",
"266 876 OFFCURVE",
"196 852 OFFCURVE",
"131 852 CURVE SMOOTH",
"100 852 OFFCURVE",
"62 857 OFFCURVE",
"40 869 CURVE",
"40 762 LINE",
"60 750 OFFCURVE",
"105 740 OFFCURVE",
"144 740 CURVE SMOOTH",
"205 740 OFFCURVE",
"281 759 OFFCURVE",
"328 759 CURVE",
"373 759 OFFCURVE",
"380 734 OFFCURVE",
"380 698 CURVE SMOOTH",
"380 690 OFFCURVE",
"379 671 OFFCURVE",
"378 661 CURVE"
);
}
);
width = 565;
},
{
anchors = (
{
name = abvm.chandrabindu;
position = "{499, 740}";
},
{
name = abvm.reph;
position = "{212, 704}";
},
{
name = blwm.u;
position = "{309, -35}";
}
);
components = (
{
name = bnDDHA;
}
);
layerId = "D864283E-EAB4-426F-8533-332F2D658CBA";
name = Light;
paths = (
{
closed = 1;
nodes = (
"464 628 LINE",
"469 648 OFFCURVE",
"472 678 OFFCURVE",
"472 695 CURVE SMOOTH",
"472 755 OFFCURVE",
"440 815 OFFCURVE",
"347 815 CURVE",
"288 815 OFFCURVE",
"239 790 OFFCURVE",
"180 790 CURVE SMOOTH",
"144 790 OFFCURVE",
"108 796 OFFCURVE",
"80 805 CURVE",
"80 755 LINE",
"104 742 OFFCURVE",
"147 735 OFFCURVE",
"181 735 CURVE SMOOTH",
"253 735 OFFCURVE",
"289 760 OFFCURVE",
"348 760 CURVE SMOOTH",
"394 760 OFFCURVE",
"414 735 OFFCURVE",
"414 690 CURVE SMOOTH",
"414 672 OFFCURVE",
"411 643 OFFCURVE",
"407 628 CURVE"
);
}
);
width = 537;
}
);
unicode = 099F;
},
{
glyphname = bnTTHA;
lastChange = "2015-07-03 10:49:30 +0000";
layers = (
{
anchors = (
{
name = abvm.chandrabindu;
position = "{640, 671}";
},
{
name = abvm.reph;
position = "{478, 671}";
},
{
name = blwm.u;
position = "{294, -20}";
}
);
background = {
paths = (
{
closed = 1;
nodes = (
"-20 559 LINE",
"-20 671 LINE",
"629 671 LINE",
"629 559 LINE"
);
},
{
closed = 1;
nodes = (
"185 325 LINE",
"185 316 OFFCURVE",
"185 283 OFFCURVE",
"185 274 CURVE",
"185 189 OFFCURVE",
"228 131 OFFCURVE",
"305 131 CURVE SMOOTH",
"387 131 OFFCURVE",
"422 199 OFFCURVE",
"422 271 CURVE SMOOTH",
"422 360 OFFCURVE",
"396 435 OFFCURVE",
"347 509 CURVE",
"286 578 LINE",
"251 627 OFFCURVE",
"206 679 OFFCURVE",
"206 752 CURVE SMOOTH",
"206 834 OFFCURVE",
"262 895 OFFCURVE",
"376 895 CURVE SMOOTH",
"391 895 OFFCURVE",
"408 893 OFFCURVE",
"426 891 CURVE",
"426 770 LINE",
"418 771 OFFCURVE",
"411 772 OFFCURVE",
"404 772 CURVE SMOOTH",
"364 772 OFFCURVE",
"339 755 OFFCURVE",
"339 722 CURVE SMOOTH",
"339 698 OFFCURVE",
"352 671 OFFCURVE",
"389 624 CURVE SMOOTH",
"455 540 LINE SMOOTH",
"518 459 OFFCURVE",
"557 369 OFFCURVE",
"557 271 CURVE SMOOTH",
"557 119 OFFCURVE",
"465 11 OFFCURVE",
"305 11 CURVE SMOOTH",
"140 11 OFFCURVE",
"48 123 OFFCURVE",
"48 300 CURVE SMOOTH",
"48 326 OFFCURVE",
"49 353 OFFCURVE",
"52 382 CURVE",
"178 382 LINE",
"231 382 OFFCURVE",
"254 412 OFFCURVE",
"254 455 CURVE",
"254 658 LINE",
"334 658 LINE",
"354 588 OFFCURVE",
"366 518 OFFCURVE",
"366 433 CURVE SMOOTH",
"366 335 OFFCURVE",
"308 273 OFFCURVE",
"209 273 CURVE SMOOTH",
"192 273 OFFCURVE",
"150 274 OFFCURVE",
"91 275 CURVE"
);
}
);
};
layerId = "731EBDE8-0F2D-4E32-814F-AAFC41A14D25";
name = Bold;
paths = (
{
closed = 1;
nodes = (
"465 11 OFFCURVE",
"557 119 OFFCURVE",
"557 271 CURVE SMOOTH",
"557 369 OFFCURVE",
"518 459 OFFCURVE",
"455 540 CURVE SMOOTH",
"389 624 LINE SMOOTH",
"352 671 OFFCURVE",
"339 698 OFFCURVE",
"339 722 CURVE SMOOTH",
"339 755 OFFCURVE",
"364 772 OFFCURVE",
"404 772 CURVE SMOOTH",
"411 772 OFFCURVE",
"418 771 OFFCURVE",
"426 770 CURVE",
"426 891 LINE",
"408 893 OFFCURVE",
"391 895 OFFCURVE",
"376 895 CURVE SMOOTH",
"262 895 OFFCURVE",
"206 834 OFFCURVE",
"206 752 CURVE SMOOTH",
"206 679 OFFCURVE",
"251 627 OFFCURVE",
"286 578 CURVE",
"347 509 LINE",
"396 435 OFFCURVE",
"422 360 OFFCURVE",
"422 271 CURVE SMOOTH",
"422 199 OFFCURVE",
"387 131 OFFCURVE",
"305 131 CURVE SMOOTH",
"228 131 OFFCURVE",
"185 189 OFFCURVE",
"185 274 CURVE",
"185 283 OFFCURVE",
"185 316 OFFCURVE",
"185 325 CURVE",
"91 275 LINE",
"189 275 LINE",
"298 275 OFFCURVE",
"366 345 OFFCURVE",
"366 453 CURVE SMOOTH",
"366 538 OFFCURVE",
"354 588 OFFCURVE",
"334 658 CURVE",
"254 658 LINE",
"254 485 LINE",
"254 422 OFFCURVE",
"221 382 OFFCURVE",
"148 382 CURVE",
"52 382 LINE",
"49 353 OFFCURVE",
"48 326 OFFCURVE",
"48 300 CURVE SMOOTH",
"48 123 OFFCURVE",
"140 11 OFFCURVE",
"305 11 CURVE SMOOTH"
);
},
{
closed = 1;
nodes = (
"629 559 LINE",
"629 671 LINE",
"-20 671 LINE",
"-20 559 LINE"
);
}
);
width = 609;
},
{
anchors = (
{
name = abvm.chandrabindu;
position = "{425, 615}";
},
{
name = abvm.reph;
position = "{362, 634}";
},
{
name = blwm.u;
position = "{320, -27}";
}
);
background = {
paths = (
{
closed = 1;
nodes = (
"-20 634 LINE",
"585 634 LINE",
"585 579 LINE",
"-20 579 LINE"
);
},
{
closed = 1;
nodes = (
"396 503 LINE SMOOTH",
"446 431 OFFCURVE",
"497 333 OFFCURVE",
"497 248 CURVE SMOOTH",
"497 117 OFFCURVE",
"420 20 OFFCURVE",
"282 20 CURVE SMOOTH",
"146 20 OFFCURVE",
"63 128 OFFCURVE",
"63 270 CURVE SMOOTH",
"63 292 OFFCURVE",
"64 329 OFFCURVE",
"71 366 CURVE",
"186 366 LINE",
"225 366 OFFCURVE",
"255 389 OFFCURVE",
"255 436 CURVE",
"255 618 LINE",
"299 618 LINE",
"305 557 OFFCURVE",
"309 500 OFFCURVE",
"309 436 CURVE",
"309 354 OFFCURVE",
"264 311 OFFCURVE",
"188 311 CURVE",
"99 311 LINE",
"129 349 LINE",
"126 333 OFFCURVE",
"123 298 OFFCURVE",
"123 272 CURVE SMOOTH",
"123 152 OFFCURVE",
"182 75 OFFCURVE",
"282 75 CURVE SMOOTH",
"387 75 OFFCURVE",
"435 144 OFFCURVE",
"435 248 CURVE SMOOTH",
"435 331 OFFCURVE",
"390 416 OFFCURVE",
"351 471 CURVE SMOOTH",
"276 578 LINE SMOOTH",
"241 628 OFFCURVE",
"196 683 OFFCURVE",
"196 743 CURVE SMOOTH",
"196 809 OFFCURVE",
"245 847 OFFCURVE",
"311 847 CURVE SMOOTH",
"336 847 OFFCURVE",
"346 845 OFFCURVE",
"364 843 CURVE",
"364 790 LINE",
"356 791 OFFCURVE",
"341 792 OFFCURVE",
"324 792 CURVE SMOOTH",
"284 792 OFFCURVE",
"257 777 OFFCURVE",
"257 741 CURVE SMOOTH",
"257 707 OFFCURVE",
"274 672 OFFCURVE",
"309 624 CURVE SMOOTH"
);
}
);
};
layerId = "D864283E-EAB4-426F-8533-332F2D658CBA";
name = Light;
paths = (
{
closed = 1;
nodes = (
"422 20 OFFCURVE",
"497 121 OFFCURVE",
"497 252 CURVE SMOOTH",
"497 337 OFFCURVE",
"446 431 OFFCURVE",
"396 503 CURVE SMOOTH",
"309 624 LINE SMOOTH",
"274 672 OFFCURVE",
"257 705 OFFCURVE",
"257 739 CURVE SMOOTH",
"257 775 OFFCURVE",
"284 792 OFFCURVE",
"324 792 CURVE SMOOTH",
"341 792 OFFCURVE",
"356 791 OFFCURVE",
"364 790 CURVE",
"364 843 LINE",
"346 845 OFFCURVE",
"336 847 OFFCURVE",
"311 847 CURVE SMOOTH",
"245 847 OFFCURVE",
"196 805 OFFCURVE",
"196 739 CURVE SMOOTH",
"196 679 OFFCURVE",
"241 628 OFFCURVE",
"276 578 CURVE SMOOTH",
"351 471 LINE SMOOTH",
"390 416 OFFCURVE",
"435 335 OFFCURVE",
"435 252 CURVE SMOOTH",
"435 148 OFFCURVE",
"389 75 OFFCURVE",
"284 75 CURVE SMOOTH",
"184 75 OFFCURVE",
"123 153 OFFCURVE",
"123 269 CURVE SMOOTH",
"123 295 OFFCURVE",
"126 333 OFFCURVE",
"129 349 CURVE",
"99 311 LINE",
"148 311 LINE",
"252 311 OFFCURVE",
"309 368 OFFCURVE",
"309 476 CURVE",
"309 540 OFFCURVE",
"305 557 OFFCURVE",
"299 618 CURVE",
"255 618 LINE",
"255 476 LINE",
"255 399 OFFCURVE",
"215 366 OFFCURVE",
"146 366 CURVE",
"71 366 LINE",
"64 329 OFFCURVE",
"63 291 OFFCURVE",
"63 269 CURVE SMOOTH",
"63 127 OFFCURVE",
"148 20 OFFCURVE",
"284 20 CURVE SMOOTH"
);
},
{
closed = 1;
nodes = (
"585 579 LINE",
"585 634 LINE",
"-20 634 LINE",
"-20 579 LINE"
);
}
);
width = 565;
},
{
associatedMasterId = "731EBDE8-0F2D-4E32-814F-AAFC41A14D25";
background = {
paths = (
{
closed = 1;
nodes = (
"-20 559 LINE",
"-20 671 LINE",
"629 671 LINE",
"629 559 LINE"
);
},
{
closed = 1;
nodes = (
"185 325 LINE",
"185 316 OFFCURVE",
"185 283 OFFCURVE",
"185 274 CURVE",
"185 189 OFFCURVE",
"228 131 OFFCURVE",
"305 131 CURVE SMOOTH",
"387 131 OFFCURVE",
"422 199 OFFCURVE",
"422 271 CURVE SMOOTH",
"422 360 OFFCURVE",
"396 435 OFFCURVE",
"347 509 CURVE",
"286 578 LINE",
"251 627 OFFCURVE",
"206 679 OFFCURVE",
"206 752 CURVE SMOOTH",
"206 834 OFFCURVE",
"262 895 OFFCURVE",
"376 895 CURVE SMOOTH",
"391 895 OFFCURVE",
"408 893 OFFCURVE",
"426 891 CURVE",
"426 770 LINE",
"418 771 OFFCURVE",
"411 772 OFFCURVE",
"404 772 CURVE SMOOTH",
"364 772 OFFCURVE",
"339 755 OFFCURVE",
"339 722 CURVE SMOOTH",
"339 698 OFFCURVE",
"352 671 OFFCURVE",
"389 624 CURVE SMOOTH",
"455 540 LINE SMOOTH",
"518 459 OFFCURVE",
"557 369 OFFCURVE",
"557 271 CURVE SMOOTH",
"557 119 OFFCURVE",
"465 11 OFFCURVE",
"305 11 CURVE SMOOTH",
"140 11 OFFCURVE",
"48 123 OFFCURVE",
"48 300 CURVE SMOOTH",
"48 326 OFFCURVE",
"49 353 OFFCURVE",
"52 382 CURVE",
"178 382 LINE",
"231 382 OFFCURVE",
"254 412 OFFCURVE",
"254 455 CURVE",
"254 658 LINE",
"334 658 LINE",
"354 588 OFFCURVE",
"366 518 OFFCURVE",
"366 433 CURVE SMOOTH",
"366 335 OFFCURVE",
"308 273 OFFCURVE",
"209 273 CURVE SMOOTH",
"192 273 OFFCURVE",
"150 274 OFFCURVE",
"91 275 CURVE"
);
}
);
};
layerId = "3265763D-B88C-4216-AE93-F926BBA048A9";
name = "Bold Mar 17 15, 18:45";
paths = (
{
closed = 1;
nodes = (
"-69 559 LINE",
"-69 671 LINE",
"629 671 LINE",
"629 559 LINE"
);
},
{
closed = 1;
nodes = (
"136 388 OFFCURVE",
"136 365 OFFCURVE",
"136 299 CURVE SMOOTH",
"136 204 OFFCURVE",
"187 131 OFFCURVE",
"285 131 CURVE SMOOTH",
"377 131 OFFCURVE",
"422 197 OFFCURVE",
"422 285 CURVE SMOOTH",
"422 374 OFFCURVE",
"396 435 OFFCURVE",
"347 509 CURVE",
"286 578 LINE",
"251 627 OFFCURVE",
"206 679 OFFCURVE",
"206 752 CURVE SMOOTH",
"206 834 OFFCURVE",
"262 895 OFFCURVE",
"376 895 CURVE SMOOTH",
"391 895 OFFCURVE",
"408 893 OFFCURVE",
"426 891 CURVE",
"426 770 LINE",
"374 777 OFFCURVE",
"339 761 OFFCURVE",
"339 722 CURVE SMOOTH",
"339 698 OFFCURVE",
"352 671 OFFCURVE",
"389 624 CURVE SMOOTH",
"455 540 LINE SMOOTH",
"518 459 OFFCURVE",
"562 383 OFFCURVE",
"562 285 CURVE SMOOTH",
"562 121 OFFCURVE",
"457 11 OFFCURVE",
"285 11 CURVE SMOOTH",
"115 11 OFFCURVE",
"10 128 OFFCURVE",
"10 299 CURVE",
"10 359 OFFCURVE",
"15 397 OFFCURVE",
"22 443 CURVE",
"144 443 LINE"
);
},
{
closed = 1;
nodes = (
"147 407 OFFCURVE",
"161 373 OFFCURVE",
"204 373 CURVE SMOOTH",
"238 373 OFFCURVE",
"254 393 OFFCURVE",
"254 426 CURVE",
"254 658 LINE",
"334 658 LINE",
"354 588 OFFCURVE",
"366 496 OFFCURVE",
"366 411 CURVE SMOOTH",
"366 317 OFFCURVE",
"325 253 OFFCURVE",
"240 253 CURVE SMOOTH",
"146 253 OFFCURVE",
"101 337 OFFCURVE",
"101 443 CURVE",
"147 443 LINE"
);
}
);
width = 609;
}
);
unicode = 09A0;
},
{
glyphname = bnDDA;
lastChange = "2015-07-03 10:49:30 +0000";
layers = (
{
anchors = (
{
name = abvm.chandrabindu;
position = "{315, 671}";
},
{
name = abvm.reph;
position = "{315, 671}";
},
{
name = blwm.u;
position = "{355, -35}";
}
);
background = {
paths = (
{
closed = 1;
nodes = (
"-20 671 LINE",
"698 671 LINE",
"698 559 LINE",
"-20 559 LINE"
);
},
{
closed = 1;
nodes = (
"632 453 LINE",
"640 404 OFFCURVE",
"647 359 OFFCURVE",
"647 299 CURVE",
"647 128 OFFCURVE",
"532 11 OFFCURVE",
"356 11 CURVE SMOOTH",
"157 11 OFFCURVE",
"35 142 OFFCURVE",
"35 355 CURVE SMOOTH",
"35 385 OFFCURVE",
"40 434 OFFCURVE",
"44 457 CURVE",
"182 457 LINE",
"177 421 OFFCURVE",
"175 376 OFFCURVE",
"175 355 CURVE SMOOTH",
"175 208 OFFCURVE",
"250 131 OFFCURVE",
"356 131 CURVE SMOOTH",
"466 131 OFFCURVE",
"516 208 OFFCURVE",
"516 299 CURVE SMOOTH",
"516 365 OFFCURVE",
"513 398 OFFCURVE",
"505 453 CURVE"
);
},
{
closed = 1;
nodes = (
"548 453 LINE",
"548 347 OFFCURVE",
"502 253 OFFCURVE",
"398 253 CURVE SMOOTH",
"313 253 OFFCURVE",
"245 307 OFFCURVE",
"245 416 CURVE",
"245 658 LINE",
"385 658 LINE",
"385 426 LINE",
"385 393 OFFCURVE",
"401 373 OFFCURVE",
"435 373 CURVE SMOOTH",
"485 373 OFFCURVE",
"502 417 OFFCURVE",
"502 453 CURVE"
);
}
);
};
layerId = "731EBDE8-0F2D-4E32-814F-AAFC41A14D25";
name = Bold;
paths = (
{
closed = 1;
nodes = (
"548 0 OFFCURVE",
"648 135 OFFCURVE",
"648 292 CURVE SMOOTH",
"648 340 OFFCURVE",
"639 395 OFFCURVE",
"619 444 CURVE",
"557 413 OFFCURVE",
"488 382 OFFCURVE",
"439 382 CURVE SMOOTH",
"399 382 OFFCURVE",
"385 402 OFFCURVE",
"385 435 CURVE",
"385 658 LINE",
"245 658 LINE",
"245 433 LINE",
"245 323 OFFCURVE",
"302 262 OFFCURVE",
"411 262 CURVE SMOOTH",
"478 262 OFFCURVE",
"529 289 OFFCURVE",
"579 321 CURVE",
"514 376 LINE",
"516 355 OFFCURVE",
"518 308 OFFCURVE",
"518 292 CURVE SMOOTH",
"518 189 OFFCURVE",
"466 120 OFFCURVE",
"357 120 CURVE SMOOTH",
"249 120 OFFCURVE",
"168 199 OFFCURVE",
"168 367 CURVE SMOOTH",
"168 390 OFFCURVE",
"169 419 OFFCURVE",
"172 446 CURVE",
"34 446 LINE",
"31 419 OFFCURVE",
"30 387 OFFCURVE",
"30 361 CURVE SMOOTH",
"30 125 OFFCURVE",
"171 0 OFFCURVE",
"357 0 CURVE SMOOTH"
);
},
{
closed = 1;
nodes = (
"698 559 LINE",
"698 671 LINE",
"-20 671 LINE",
"-20 559 LINE"
);
}
);
width = 678;
},
{
anchors = (
{
name = abvm.chandrabindu;
position = "{299, 634}";
},
{
name = abvm.reph;
position = "{299, 634}";
},
{
name = blwm.u;
position = "{398, -17}";
}
);
background = {
paths = (
{
closed = 1;
nodes = (
"-20 579 LINE",
"-20 634 LINE",
"665 634 LINE",
"665 579 LINE"
);
},
{
closed = 1;
nodes = (
"579 379 OFFCURVE",
"585 345 OFFCURVE",
"585 282 CURVE SMOOTH",
"585 134 OFFCURVE",
"503 20 OFFCURVE",
"343 20 CURVE SMOOTH",
"167 20 OFFCURVE",
"68 153 OFFCURVE",
"68 340 CURVE SMOOTH",
"68 366 OFFCURVE",
"70 394 OFFCURVE",
"74 423 CURVE",
"134 423 LINE",
"131 396 OFFCURVE",
"130 370 OFFCURVE",
"130 346 CURVE SMOOTH",
"130 186 OFFCURVE",
"200 75 OFFCURVE",
"343 75 CURVE SMOOTH",
"467 75 OFFCURVE",
"525 162 OFFCURVE",
"525 288 CURVE SMOOTH",
"525 330 OFFCURVE",
"519 353 OFFCURVE",
"514 377 CURVE",
"558 366 LINE",
"511 323 OFFCURVE",
"447 294 OFFCURVE",
"386 294 CURVE SMOOTH",
"317 294 OFFCURVE",
"268 337 OFFCURVE",
"268 419 CURVE",
"268 618 LINE",
"329 618 LINE",
"329 419 LINE",
"329 372 OFFCURVE",
"347 349 OFFCURVE",
"386 349 CURVE SMOOTH",
"447 349 OFFCURVE",
"503 383 OFFCURVE",
"563 422 CURVE"
);
}
);
};
layerId = "D864283E-EAB4-426F-8533-332F2D658CBA";
name = Light;
paths = (
{
closed = 1;
nodes = (
"497 20 OFFCURVE",
"585 134 OFFCURVE",
"585 282 CURVE SMOOTH",
"585 345 OFFCURVE",
"579 379 OFFCURVE",
"563 422 CURVE",
"503 383 OFFCURVE",
"452 349 OFFCURVE",
"391 349 CURVE SMOOTH",
"352 349 OFFCURVE",
"329 372 OFFCURVE",
"329 419 CURVE",
"329 618 LINE",
"268 618 LINE",
"268 419 LINE",
"268 341 OFFCURVE",
"320 294 OFFCURVE",
"389 294 CURVE SMOOTH",
"450 294 OFFCURVE",
"511 323 OFFCURVE",
"558 366 CURVE",
"514 377 LINE",
"519 353 OFFCURVE",
"525 330 OFFCURVE",
"525 288 CURVE SMOOTH",
"525 162 OFFCURVE",
"461 75 OFFCURVE",
"337 75 CURVE SMOOTH",
"194 75 OFFCURVE",
"130 191 OFFCURVE",
"130 340 CURVE SMOOTH",
"130 364 OFFCURVE",
"131 396 OFFCURVE",
"134 423 CURVE",
"74 423 LINE",
"70 394 OFFCURVE",
"68 366 OFFCURVE",
"68 340 CURVE SMOOTH",
"68 157 OFFCURVE",
"161 20 OFFCURVE",
"337 20 CURVE SMOOTH"
);
},
{
closed = 1;
nodes = (
"665 579 LINE",
"665 634 LINE",
"-20 634 LINE",
"-20 579 LINE"
);
}
);
width = 645;
},
{
associatedMasterId = "D864283E-EAB4-426F-8533-332F2D658CBA";
background = {
paths = (
{
closed = 1;
nodes = (
"-20 579 LINE",
"-20 634 LINE",
"665 634 LINE",
"665 579 LINE"
);
},
{
closed = 1;
nodes = (
"579 379 OFFCURVE",
"585 345 OFFCURVE",
"585 282 CURVE SMOOTH",
"585 134 OFFCURVE",
"503 20 OFFCURVE",
"343 20 CURVE SMOOTH",
"167 20 OFFCURVE",
"68 153 OFFCURVE",
"68 340 CURVE SMOOTH",
"68 366 OFFCURVE",
"70 394 OFFCURVE",
"74 423 CURVE",
"134 423 LINE",
"131 396 OFFCURVE",
"130 370 OFFCURVE",
"130 346 CURVE SMOOTH",
"130 186 OFFCURVE",
"200 75 OFFCURVE",
"343 75 CURVE SMOOTH",
"467 75 OFFCURVE",
"525 162 OFFCURVE",
"525 288 CURVE SMOOTH",
"525 330 OFFCURVE",
"519 353 OFFCURVE",
"514 377 CURVE",
"558 366 LINE",
"511 323 OFFCURVE",
"447 294 OFFCURVE",
"386 294 CURVE SMOOTH",
"317 294 OFFCURVE",
"268 337 OFFCURVE",
"268 419 CURVE",
"268 618 LINE",
"329 618 LINE",
"329 419 LINE",
"329 372 OFFCURVE",
"347 349 OFFCURVE",
"386 349 CURVE SMOOTH",
"447 349 OFFCURVE",
"503 383 OFFCURVE",
"563 422 CURVE"
);
}
);
};
layerId = "4A2DB11F-A699-43F4-81C8-82F2CEF99841";
name = "Light Mar 18 15, 16:17";
paths = (
{
closed = 1;
nodes = (
"-20 579 LINE",
"-20 634 LINE",
"665 634 LINE",
"665 579 LINE"
);
},
{
closed = 1;
nodes = (
"539 414 LINE",
"539 320 OFFCURVE",
"482 252 OFFCURVE",
"404 252 CURVE SMOOTH",
"332 252 OFFCURVE",
"280 306 OFFCURVE",
"280 392 CURVE",
"280 618 LINE",
"341 618 LINE",
"341 392 LINE",
"341 338 OFFCURVE",
"365 307 OFFCURVE",
"408 307 CURVE SMOOTH",
"463 307 OFFCURVE",
"501 354 OFFCURVE",
"501 414 CURVE"
);
},
{
closed = 1;
nodes = (
"563 414 LINE",
"577 386 OFFCURVE",
"590 323 OFFCURVE",
"590 288 CURVE SMOOTH",
"590 164 OFFCURVE",
"531 20 OFFCURVE",
"341 20 CURVE SMOOTH",
"153 20 OFFCURVE",
"66 157 OFFCURVE",
"66 322 CURVE SMOOTH",
"66 349 OFFCURVE",
"69 392 OFFCURVE",
"74 423 CURVE",
"134 423 LINE",
"129 390 OFFCURVE",
"127 347 OFFCURVE",
"127 320 CURVE SMOOTH",
"127 172 OFFCURVE",
"203 75 OFFCURVE",
"341 75 CURVE SMOOTH",
"470 75 OFFCURVE",
"529 166 OFFCURVE",
"529 288 CURVE SMOOTH",
"529 326 OFFCURVE",
"520 391 OFFCURVE",
"501 414 CURVE"
);
}
);
width = 645;
}
);
unicode = 09A1;
},
{
glyphname = bnDDHA;
lastChange = "2015-07-03 10:49:30 +0000";
layers = (
{
anchors = (
{
name = abvm.chandrabindu;
position = "{135, 671}";
},
{
name = abvm.reph;
position = "{135, 671}";
},
{
name = blwm.u;
position = "{306, -39}";
}
);
layerId = "731EBDE8-0F2D-4E32-814F-AAFC41A14D25";
name = Bold;
paths = (
{
closed = 1;
nodes = (
"432 -10 OFFCURVE",
"532 130 OFFCURVE",
"532 262 CURVE SMOOTH",
"532 384 OFFCURVE",
"460 468 OFFCURVE",
"328 468 CURVE SMOOTH",
"308 468 OFFCURVE",
"287 466 OFFCURVE",
"265 461 CURVE",
"265 339 LINE",
"280 342 OFFCURVE",
"295 343 OFFCURVE",
"307 343 CURVE SMOOTH",
"361 343 OFFCURVE",
"392 316 OFFCURVE",
"392 262 CURVE",
"392 194 OFFCURVE",
"346 110 OFFCURVE",
"262 110 CURVE SMOOTH",
"230 110 OFFCURVE",
"205 129 OFFCURVE",
"205 163 CURVE",
"205 618 LINE",
"65 618 LINE",
"65 163 LINE",
"65 54 OFFCURVE",
"159 -10 OFFCURVE",
"262 -10 CURVE SMOOTH"
);
},
{
closed = 1;
nodes = (
"585 559 LINE",
"585 671 LINE",
"-20 671 LINE",
"-20 559 LINE"
);
}
);
width = 565;
},
{
anchors = (
{
name = abvm.chandrabindu;
position = "{131, 634}";
},
{
name = abvm.reph;
position = "{131, 634}";
},
{
name = blwm.u;
position = "{310, -34}";
}
);
layerId = "D864283E-EAB4-426F-8533-332F2D658CBA";
name = Light;
paths = (
{
closed = 1;
nodes = (
"391 10 OFFCURVE",
"473 139 OFFCURVE",
"473 271 CURVE SMOOTH",
"473 372 OFFCURVE",
"408 440 OFFCURVE",
"291 440 CURVE SMOOTH",
"275 440 OFFCURVE",
"260 439 OFFCURVE",
"245 437 CURVE",
"245 382 LINE",
"258 384 OFFCURVE",
"271 385 OFFCURVE",
"285 385 CURVE SMOOTH",
"369 385 OFFCURVE",
"412 347 OFFCURVE",
"412 271 CURVE",
"412 163 OFFCURVE",
"345 65 OFFCURVE",
"245 65 CURVE SMOOTH",
"194 65 OFFCURVE",
"161 97 OFFCURVE",
"161 159 CURVE",
"161 618 LINE",
"100 618 LINE",
"100 159 LINE",
"100 64 OFFCURVE",
"161 10 OFFCURVE",
"245 10 CURVE SMOOTH"
);
},
{
closed = 1;
nodes = (
"557 579 LINE",
"557 634 LINE",
"-20 634 LINE",
"-20 579 LINE"
);
}
);
width = 537;
}
);
unicode = 09A2;
},
{
glyphname = bnNNA;
lastChange = "2015-07-03 10:49:30 +0000";
layers = (
{
anchors = (
{
name = abvm.chandrabindu;
position = "{473, 751}";
},
{
name = abvm.reph;
position = "{470, 711}";
}
);
layerId = "731EBDE8-0F2D-4E32-814F-AAFC41A14D25";
name = Bold;
paths = (
{
closed = 1;
nodes = (
"276 270 OFFCURVE",
"289 272 OFFCURVE",
"314 277 CURVE",
"314 399 LINE",
"296 396 OFFCURVE",
"287 395 OFFCURVE",
"265 395 CURVE SMOOTH",
"218 395 OFFCURVE",
"180 417 OFFCURVE",
"180 474 CURVE SMOOTH",
"180 525 OFFCURVE",
"214 561 OFFCURVE",
"272 561 CURVE",
"361 561 OFFCURVE",
"403 495 OFFCURVE",
"403 409 CURVE",
"403 373 LINE",
"447 373 LINE",
"447 401 LINE",
"447 564 OFFCURVE",
"399 681 OFFCURVE",
"241 681 CURVE",
"125 681 OFFCURVE",
"40 598 OFFCURVE",
"40 474 CURVE SMOOTH",
"40 341 OFFCURVE",
"123 270 OFFCURVE",
"248 270 CURVE SMOOTH"
);
},
{
closed = 1;
nodes = (
"543 0 LINE",
"543 751 LINE",
"403 751 LINE",
"403 0 LINE"
);
},
{
closed = 1;
nodes = (
"628 559 LINE",
"628 671 LINE",
"403 671 LINE",
"403 559 LINE"
);
}
);
width = 608;
},
{
anchors = (
{
name = abvm.chandrabindu;
position = "{419, 719}";
},
{
name = abvm.reph;
position = "{418, 667}";
}
);
layerId = "D864283E-EAB4-426F-8533-332F2D658CBA";
name = Light;
paths = (
{
closed = 1;
nodes = (
"256 295 OFFCURVE",
"280 297 OFFCURVE",
"302 303 CURVE",
"302 356 LINE",
"279 352 OFFCURVE",
"260 350 OFFCURVE",
"237 350 CURVE SMOOTH",
"164 350 OFFCURVE",
"117 390 OFFCURVE",
"117 471 CURVE SMOOTH",
"117 546 OFFCURVE",
"167 592 OFFCURVE",
"239 592 CURVE SMOOTH",
"351 592 OFFCURVE",
"388 500 OFFCURVE",
"388 433 CURVE",
"388 375 LINE",
"429 375 LINE",
"429 432 LINE",
"429 524 OFFCURVE",
"388 644 OFFCURVE",
"239 644 CURVE SMOOTH",
"126 644 OFFCURVE",
"55 566 OFFCURVE",
"55 471 CURVE SMOOTH",
"55 363 OFFCURVE",
"128 295 OFFCURVE",
"233 295 CURVE SMOOTH"
);
},
{
closed = 1;
nodes = (
"449 0 LINE",
"449 719 LINE",
"388 719 LINE",
"388 0 LINE"
);
},
{
closed = 1;
nodes = (
"569 579 LINE",
"569 634 LINE",
"430 634 LINE",
"430 579 LINE"
);
}
);
width = 549;
}
);
unicode = 09A3;
},
{
glyphname = bnTA;
lastChange = "2015-07-03 10:49:30 +0000";
layers = (
{
anchors = (
{
name = abvm.chandrabindu;
position = "{412, 671}";
},
{
name = abvm.reph;
position = "{408, 671}";
},
{
name = blwm.u;
position = "{349, -6}";
}
);
background = {
paths = (
{
closed = 1;
nodes = (
"511 27 OFFCURVE",
"633 138 OFFCURVE",
"633 310 CURVE SMOOTH",
"633 423 OFFCURVE",
"557 519 OFFCURVE",
"430 519 CURVE SMOOTH",
"318 519 OFFCURVE",
"250 447 OFFCURVE",
"250 350 CURVE SMOOTH",
"250 321 OFFCURVE",
"256 293 OFFCURVE",
"265 272 CURVE",
"395 272 LINE",
"389 292 OFFCURVE",
"385 313 OFFCURVE",
"385 340 CURVE SMOOTH",
"385 381 OFFCURVE",
"404 407 OFFCURVE",
"436 407 CURVE SMOOTH",
"475 407 OFFCURVE",
"493 366 OFFCURVE",
"493 310 CURVE SMOOTH",
"493 216 OFFCURVE",
"441 147 OFFCURVE",
"339 147 CURVE SMOOTH",
"220 147 OFFCURVE",
"163 241 OFFCURVE",
"163 377 CURVE SMOOTH",
"163 400 OFFCURVE",
"164 428 OFFCURVE",
"166 451 CURVE",
"28 451 LINE",
"25 425 OFFCURVE",
"24 400 OFFCURVE",
"24 376 CURVE SMOOTH",
"24 128 OFFCURVE",
"166 27 OFFCURVE",
"339 27 CURVE SMOOTH"
);
},
{
closed = 1;
nodes = (
"685 559 LINE",
"685 671 LINE",
"-20 671 LINE",
"-20 559 LINE"
);
}
);
};
layerId = "731EBDE8-0F2D-4E32-814F-AAFC41A14D25";
name = Bold;
paths = (
{
closed = 1;
nodes = (
"511 27 OFFCURVE",
"633 138 OFFCURVE",
"633 310 CURVE SMOOTH",
"633 423 OFFCURVE",
"557 519 OFFCURVE",
"430 519 CURVE SMOOTH",
"318 519 OFFCURVE",
"250 447 OFFCURVE",
"250 350 CURVE SMOOTH",
"250 321 OFFCURVE",
"256 293 OFFCURVE",
"265 272 CURVE",
"395 272 LINE",
"389 292 OFFCURVE",
"385 313 OFFCURVE",
"385 340 CURVE SMOOTH",
"385 381 OFFCURVE",
"404 407 OFFCURVE",
"436 407 CURVE SMOOTH",
"475 407 OFFCURVE",
"493 366 OFFCURVE",
"493 310 CURVE SMOOTH",
"493 216 OFFCURVE",
"441 147 OFFCURVE",
"339 147 CURVE SMOOTH",
"220 147 OFFCURVE",
"158 241 OFFCURVE",
"158 377 CURVE SMOOTH",
"158 400 OFFCURVE",
"159 428 OFFCURVE",
"161 451 CURVE",
"28 451 LINE",
"25 425 OFFCURVE",
"24 400 OFFCURVE",
"24 376 CURVE SMOOTH",
"24 128 OFFCURVE",
"166 27 OFFCURVE",
"339 27 CURVE SMOOTH"
);
},
{
closed = 1;
nodes = (
"685 559 LINE",
"685 671 LINE",
"-20 671 LINE",
"-20 559 LINE"
);
}
);
width = 665;
},
{
anchors = (
{
name = abvm.chandrabindu;
position = "{391, 634}";
},
{
name = abvm.reph;
position = "{392, 634}";
},
{
name = blwm.u;
position = "{391, 0}";
}
);
layerId = "D864283E-EAB4-426F-8533-332F2D658CBA";
name = Light;
paths = (
{
closed = 1;
nodes = (
"532 43 OFFCURVE",
"595 190 OFFCURVE",
"595 314 CURVE SMOOTH",
"595 411 OFFCURVE",
"538 504 OFFCURVE",
"440 504 CURVE SMOOTH",
"340 504 OFFCURVE",
"295 430 OFFCURVE",
"295 351 CURVE SMOOTH",
"295 321 OFFCURVE",
"301 294 OFFCURVE",
"310 271 CURVE",
"367 271 LINE",
"361 294 OFFCURVE",
"356 315 OFFCURVE",
"356 350 CURVE SMOOTH",
"356 406 OFFCURVE",
"384 449 OFFCURVE",
"440 449 CURVE SMOOTH",
"510 449 OFFCURVE",
"534 382 OFFCURVE",
"534 314 CURVE SMOOTH",
"534 192 OFFCURVE",
"471 98 OFFCURVE",
"343 98 CURVE SMOOTH",
"201 98 OFFCURVE",
"137 228 OFFCURVE",
"137 376 CURVE SMOOTH",
"137 409 OFFCURVE",
"138 443 OFFCURVE",
"143 476 CURVE",
"83 476 LINE",
"78 445 OFFCURVE",
"76 410 OFFCURVE",
"76 376 CURVE SMOOTH",
"76 211 OFFCURVE",
"151 43 OFFCURVE",
"343 43 CURVE SMOOTH"
);
},
{
closed = 1;
nodes = (
"691 579 LINE",
"691 634 LINE",
"-20 634 LINE",
"-20 579 LINE"
);
}
);
width = 671;
}
);
unicode = 09A4;
},
{
glyphname = bnTHA;
lastChange = "2015-07-03 10:49:30 +0000";
layers = (
{
anchors = (
{
name = abvm.chandrabindu;
position = "{544, 751}";
},
{
name = abvm.reph;
position = "{543, 711}";
}
);
background = {
paths = (
{
closed = 1;
nodes = (
"611 0 LINE",
"476 0 LINE",
"476 761 LINE",
"611 761 LINE"
);
},
{
closed = 1;
nodes = (
"476 559 LINE",
"476 671 LINE",
"696 671 LINE",
"696 559 LINE"
);
},
{
closed = 1;
nodes = (
"44 322 LINE",
"130 322 LINE",
"561 84 LINE",
"475 0 LINE",
"44 232 LINE"
);
},
{
closed = 1;
nodes = (
"208 412 OFFCURVE",
"292 442 OFFCURVE",
"292 512 CURVE SMOOTH",
"292 542 OFFCURVE",
"278 564 OFFCURVE",
"249 564 CURVE SMOOTH",
"217 564 OFFCURVE",
"204 541 OFFCURVE",
"204 512 CURVE SMOOTH",
"204 494 OFFCURVE",
"209 473 OFFCURVE",
"216 457 CURVE",
"82 457 LINE",
"74 480 OFFCURVE",
"71 503 OFFCURVE",
"71 524 CURVE SMOOTH",
"71 611 OFFCURVE",
"132 681 OFFCURVE",
"249 681 CURVE SMOOTH",
"349 681 OFFCURVE",
"423 619 OFFCURVE",
"423 507 CURVE SMOOTH",
"423 403 OFFCURVE",
"325 330 OFFCURVE",
"185 286 CURVE",
"44 282 LINE",
"44 368 LINE"
);
}
);
};
layerId = "731EBDE8-0F2D-4E32-814F-AAFC41A14D25";
name = Bold;
paths = (
{
closed = 1;
nodes = (
"561 84 LINE",
"130 322 LINE",
"44 322 LINE",
"44 232 LINE",
"475 0 LINE"
);
},
{
closed = 1;
nodes = (
"161 250 LINE",
"299 250 OFFCURVE",
"416 319 OFFCURVE",
"416 490 CURVE SMOOTH",
"416 590 OFFCURVE",
"344 682 OFFCURVE",
"216 682 CURVE SMOOTH",
"102 682 OFFCURVE",
"34 617 OFFCURVE",
"34 525 CURVE SMOOTH",
"34 494 OFFCURVE",
"41 460 OFFCURVE",
"50 441 CURVE",
"177 441 LINE",
"173 453 OFFCURVE",
"165 473 OFFCURVE",
"165 506 CURVE SMOOTH",
"165 542 OFFCURVE",
"184 570 OFFCURVE",
"221 570 CURVE SMOOTH",
"263 570 OFFCURVE",
"281 534 OFFCURVE",
"281 490 CURVE SMOOTH",
"281 393 OFFCURVE",
"229 344 OFFCURVE",
"139 344 CURVE",
"44 344 LINE",
"44 250 LINE"
);
},
{
closed = 1;
nodes = (
"611 0 LINE",
"611 751 LINE",
"476 751 LINE",
"476 0 LINE"
);
},
{
closed = 1;
nodes = (
"696 559 LINE",
"696 671 LINE",
"476 671 LINE",
"476 559 LINE"
);
}
);
width = 676;
},
{
anchors = (
{
name = abvm.chandrabindu;
position = "{501, 719}";
},
{
name = abvm.reph;
position = "{500, 668}";
}
);
layerId = "D864283E-EAB4-426F-8533-332F2D658CBA";
name = Light;
paths = (
{
closed = 1;
nodes = (
"497 50 LINE",
"83 315 LINE",
"61 315 LINE",
"61 256 LINE",
"470 0 LINE"
);
},
{
closed = 1;
nodes = (
"143 267 LINE",
"281 267 OFFCURVE",
"360 351 OFFCURVE",
"360 475 CURVE SMOOTH",
"360 567 OFFCURVE",
"299 644 OFFCURVE",
"199 644 CURVE SMOOTH",
"102 644 OFFCURVE",
"45 577 OFFCURVE",
"45 492 CURVE SMOOTH",
"45 465 OFFCURVE",
"50 441 OFFCURVE",
"58 419 CURVE",
"117 419 LINE",
"112 438 OFFCURVE",
"106 461 OFFCURVE",
"106 492 CURVE SMOOTH",
"106 550 OFFCURVE",
"142 589 OFFCURVE",
"199 589 CURVE SMOOTH",
"263 589 OFFCURVE",
"299 546 OFFCURVE",
"299 475 CURVE SMOOTH",
"299 375 OFFCURVE",
"248 320 OFFCURVE",
"143 317 CURVE",
"61 317 LINE",
"61 267 LINE"
);
},
{
closed = 1;
nodes = (
"531 0 LINE",
"531 719 LINE",
"470 719 LINE",
"470 0 LINE"
);
},
{
closed = 1;
nodes = (
"651 579 LINE",
"651 634 LINE",
"500 634 LINE",
"500 579 LINE"
);
}
);
width = 631;
}
);
unicode = 09A5;
},
